<?xml version="1.0" encoding="utf-8"?>
<!-- Generator: Adobe Illustrator 17.0.0, SVG Export Plug-In . SVG Version: 6.00 Build 0)  -->
<!DOCTYPE svg PUBLIC "-//W3C//DTD SVG 1.1//EN" "http://www.w3.org/Graphics/SVG/1.1/DTD/svg11.dtd">
<svg version="1.1" id="Layer_1" xmlns="http://www.w3.org/2000/svg" xmlns:xlink="http://www.w3.org/1999/xlink" x="0px" y="0px"
	 width="792.674px" height="740.547px" viewBox="-73.686 -68.331 792.674 740.547"
	 enable-background="new -73.686 -68.331 792.674 740.547" xml:space="preserve">
<path fill="#F4B9A4" d="M688.507,453.768c43.072-104.56,38.932-216.802-2.556-313.045c-40.165-93.174-153.536-30.888-254.761-72.587
	C315.436,20.453,228.467-109.833,126.013-55.175C46.327-12.663-19.619,56.757-56.706,146.788
	c-84.77,205.785,170.988,180.214,257.482,387.884C303.68,781.745,603.736,659.553,688.507,453.768z"/>
<path fill="#FF8A5B" d="M565.516,293.024h-175.36H274.583h-36.471c-8.344,0-15.457,5.159-18.384,12.461
	c-0.923,2.282-1.458,4.762-1.458,7.381v59.528c0,1.548,0.218,3.036,0.546,4.475c0.089,0.397,0.248,0.764,0.357,1.151
	c0.317,1.052,0.685,2.083,1.171,3.056c0.169,0.347,0.357,0.675,0.546,1.002c0.575,1.012,1.23,1.974,1.964,2.867
	c0.169,0.208,0.327,0.417,0.506,0.615c0.952,1.062,2.004,2.054,3.165,2.887c3.274,2.361,7.253,3.79,11.588,3.79h327.404
	c10.963,0,19.843-8.88,19.843-19.843v-59.528C585.359,301.903,576.479,293.024,565.516,293.024z"/>
<path fill="#38D3B1" d="M226.534,388.447c-1.161-0.843-2.212-1.826-3.165-2.887c-0.179-0.198-0.337-0.407-0.506-0.615
	c-0.744-0.893-1.389-1.855-1.964-2.867c-0.188-0.337-0.377-0.665-0.546-1.002c-0.476-0.972-0.853-2.004-1.171-3.056
	c-0.119-0.387-0.268-0.754-0.357-1.151c-0.337-1.439-0.556-2.927-0.556-4.475v-59.528c0-2.619,0.536-5.1,1.458-7.381
	c2.927-7.302,10.04-12.461,18.384-12.461h36.471h115.574c10.626-24.317,16.618-51.135,16.618-79.371
	c0-57.296-24.426-108.768-63.268-144.99c-35.449-33.058-82.863-53.436-135.158-53.436S108.639,35.605,73.19,68.663
	c-38.842,36.223-63.268,87.695-63.268,144.99c0,57.425,24.545,108.996,63.536,145.228c35.409,32.909,82.724,53.198,134.89,53.198
	c3.343,0,6.657-0.119,9.951-0.288c0,0.099-0.03,0.189-0.03,0.288v59.528c0,10.963,8.88,19.843,19.843,19.843
	c-10.963,0-19.843,8.88-19.843,19.843v59.528c0,10.963,8.88,19.843,19.843,19.843h327.404c10.963,0,19.843-8.88,19.843-19.843
	v-59.528c0-10.963-8.88-19.843-19.843-19.843c10.963,0,19.843-8.88,19.843-19.843V412.08c0-10.963-8.88-19.843-19.843-19.843
	H238.112C233.776,392.237,229.798,390.808,226.534,388.447z M224.361,397.813c0.853-0.823,1.756-1.577,2.738-2.232
	C226.117,396.235,225.214,396.999,224.361,397.813z M227.923,395.134c0.814-0.486,1.627-0.982,2.51-1.349
	C229.55,394.152,228.736,394.638,227.923,395.134z M232.348,393.189c0.595-0.179,1.161-0.427,1.776-0.546
	C233.518,392.763,232.943,393.001,232.348,393.189z"/>
<g>
	<path fill="#2B2D42" d="M565.516,283.102H404.493c7.947-22.343,12.203-45.598,12.203-69.449
		c0-114.879-93.459-208.348-208.348-208.348S0,98.774,0,213.653s93.459,208.348,208.348,208.348v49.607
		c0,7.649,2.986,14.564,7.739,19.843c-4.762,5.278-7.739,12.193-7.739,19.843v59.528c0,16.41,13.354,29.764,29.764,29.764h327.404
		c16.41,0,29.764-13.354,29.764-29.764v-59.528c0-7.649-2.986-14.565-7.739-19.843c4.762-5.278,7.739-12.193,7.739-19.843V412.08
		c0-7.649-2.986-14.565-7.739-19.843c4.762-5.278,7.739-12.193,7.739-19.843v-59.528
		C595.28,296.456,581.926,283.102,565.516,283.102z M575.437,312.866v59.528c0,5.477-4.455,9.921-9.921,9.921H238.112
		c-2.49,0-4.703-1.002-6.449-2.53c-0.278-0.238-0.556-0.466-0.804-0.734c-0.704-0.764-1.3-1.617-1.736-2.57
		c-0.099-0.208-0.159-0.427-0.238-0.635c-0.407-1.081-0.694-2.232-0.694-3.453v-59.528c0-5.477,4.455-9.921,9.921-9.921h36.471
		h115.574h175.36C570.983,302.945,575.437,307.39,575.437,312.866z M575.437,412.08v59.528c0,5.477-4.455,9.921-9.921,9.921H238.112
		c-5.467,0-9.921-4.445-9.921-9.921V412.08c0-0.06,0.03-0.109,0.03-0.169c0.099-5.377,4.524-9.753,9.892-9.753h327.404
		C570.983,402.158,575.437,406.603,575.437,412.08z M208.348,30.942c10.745,13.89,31.103,42.781,47.007,80.303
		c-15.18,4.246-30.935,6.697-47.007,6.697s-31.828-2.451-47.007-6.697C177.245,73.723,197.603,44.832,208.348,30.942z
		 M142.371,104.766c-20.24-8.274-38.882-20.24-54.875-35.598c27.532-23.067,61.721-38.376,99.233-42.682
		C174.487,43.125,156.678,70.528,142.371,104.766z M229.967,26.487c37.513,4.306,71.702,19.614,99.233,42.682
		c-15.993,15.358-34.635,27.323-54.875,35.598C260.018,70.528,242.21,43.125,229.967,26.487z M208.348,137.794
		c18.543,0,36.768-2.699,54.22-7.768c7.927,22.541,13.672,47.464,14.862,73.716H139.256c1.2-26.242,6.935-51.164,14.862-73.716
		C171.58,135.086,189.805,137.794,208.348,137.794z M277.41,223.574c-0.883,19.337-4.177,39.259-10.15,59.528h-29.149
		c-9.862,0-18.553,4.871-23.98,12.283c-19.853-0.556-39.507,1.687-58.387,6.637c-8.78-23.752-15.209-50.371-16.499-78.448
		L277.41,223.574L277.41,223.574z M208.348,315.347v57.048c0,1.706,0.188,3.383,0.476,5.05c0.04,0.248,0.06,0.506,0.109,0.754
		c0.099,0.486,0.278,0.933,0.397,1.409c0.218,0.863,0.456,1.726,0.744,2.56c0.169,0.486,0.308,0.972,0.496,1.449
		c0.169,0.407,0.377,0.784,0.556,1.181c0.278,0.595,0.595,1.181,0.913,1.756c0.367,0.675,0.704,1.349,1.121,1.984
		c0.169,0.268,0.337,0.536,0.516,0.794c-1.955,2.649-3.74,5.02-5.328,7.054c-10.288-13.305-29.387-40.439-44.973-75.69
		C177.999,317.083,193.079,315.357,208.348,315.347z M186.729,400.819c-37.136-4.266-71.047-19.277-98.439-41.957
		c16.648-13.989,35.479-24.893,55.708-32.284C157.997,358.971,174.953,384.826,186.729,400.819z M287.699,283.102
		c5.526-20.2,8.711-40.112,9.524-59.528h99.174c-1.072,20.438-5.238,40.42-12.838,59.528H287.699z M396.347,203.732h-99.134
		c-1.191-28.812-7.262-55.907-15.765-80.264c23.027-9.346,44.209-23.097,62.296-40.668
		C374.391,114.509,393.897,156.873,396.347,203.732z M72.952,82.81c18.087,17.561,39.269,31.312,62.296,40.668
		c-8.503,24.347-14.574,51.452-15.765,80.264H20.349C22.799,156.873,42.305,114.509,72.952,82.81z M20.349,223.574h99.134
		c1.26,30.468,7.937,59.082,17.194,84.49c-22.958,8.463-44.348,20.994-63.09,37.145C42.563,313.432,22.819,270.77,20.349,223.574z
		 M575.437,570.821c0,5.477-4.455,9.921-9.921,9.921H238.112c-5.467,0-9.921-4.445-9.921-9.921v-59.528
		c0-5.477,4.455-9.921,9.921-9.921h327.404c5.467,0,9.921,4.445,9.921,9.921V570.821z"/>
	<rect x="535.752" y="332.709" fill="#2B2D42" width="19.843" height="19.843"/>
	<rect x="248.033" y="332.709" fill="#2B2D42" width="168.663" height="19.843"/>
	<rect x="535.752" y="431.922" fill="#2B2D42" width="19.843" height="19.843"/>
	<rect x="248.033" y="431.922" fill="#2B2D42" width="168.663" height="19.843"/>
	<rect x="535.752" y="531.136" fill="#2B2D42" width="19.843" height="19.843"/>
	<rect x="248.033" y="531.136" fill="#2B2D42" width="168.663" height="19.843"/>
	<rect x="416.696" y="124.361" fill="#2B2D42" width="19.843" height="19.843"/>
	<rect x="456.381" y="124.361" fill="#2B2D42" width="19.843" height="19.843"/>
	<rect x="496.067" y="124.361" fill="#2B2D42" width="19.843" height="19.843"/>
	<rect x="535.752" y="124.361" fill="#2B2D42" width="19.843" height="19.843"/>
	<rect x="535.752" y="164.046" fill="#2B2D42" width="19.843" height="19.843"/>
	<rect x="535.752" y="203.732" fill="#2B2D42" width="19.843" height="19.843"/>
	<rect x="535.752" y="243.417" fill="#2B2D42" width="19.843" height="19.843"/>
	<rect x="168.663" y="531.136" fill="#2B2D42" width="19.843" height="19.843"/>
	<rect x="128.977" y="531.136" fill="#2B2D42" width="19.843" height="19.843"/>
	<rect x="89.292" y="531.136" fill="#2B2D42" width="19.843" height="19.843"/>
	<rect x="89.292" y="491.45" fill="#2B2D42" width="19.843" height="19.843"/>
	<rect x="89.292" y="451.765" fill="#2B2D42" width="19.843" height="19.843"/>
	<rect x="89.292" y="412.08" fill="#2B2D42" width="19.843" height="19.843"/>
</g>
</svg>
