<?xml version="1.0" encoding="iso-8859-1"?>
<!-- Generator: Adobe Illustrator 19.0.0, SVG Export Plug-In . SVG Version: 6.00 Build 0)  -->
<svg version="1.1" id="Layer_1" xmlns="http://www.w3.org/2000/svg" xmlns:xlink="http://www.w3.org/1999/xlink" x="0px" y="0px"
	 viewBox="0 0 480 480" style="enable-background:new 0 0 480 480;" xml:space="preserve">
<path style="fill:#FF8A5B;" d="M456,232H314.6h-93.192H192c-6.728,0-12.464,4.16-14.824,10.048c-0.744,1.84-1.176,3.84-1.176,5.952
	v48c0,1.248,0.176,2.448,0.44,3.608c0.072,0.32,0.2,0.616,0.288,0.928c0.256,0.848,0.552,1.68,0.944,2.464
	c0.136,0.28,0.288,0.544,0.44,0.808c0.464,0.816,0.992,1.592,1.584,2.312c0.136,0.168,0.264,0.336,0.408,0.496
	c0.768,0.856,1.616,1.656,2.552,2.328c2.64,1.904,5.848,3.056,9.344,3.056h264c8.84,0,16-7.16,16-16v-48
	C472,239.16,464.84,232,456,232z"/>
<path style="fill:#21BABD;" d="M182.664,308.944c-0.936-0.68-1.784-1.472-2.552-2.328c-0.144-0.16-0.272-0.328-0.408-0.496
	c-0.6-0.72-1.12-1.496-1.584-2.312c-0.152-0.272-0.304-0.536-0.44-0.808c-0.384-0.784-0.688-1.616-0.944-2.464
	c-0.096-0.312-0.216-0.608-0.288-0.928c-0.272-1.16-0.448-2.36-0.448-3.608v-48c0-2.112,0.432-4.112,1.176-5.952
	C179.536,236.16,185.272,232,192,232h29.408H314.6c8.568-19.608,13.4-41.232,13.4-64c0-46.2-19.696-87.704-51.016-116.912
	C248.4,24.432,210.168,8,168,8S87.6,24.432,59.016,51.088C27.696,80.296,8,121.8,8,168c0,46.304,19.792,87.888,51.232,117.104
	C87.784,311.64,125.936,328,168,328c2.696,0,5.368-0.096,8.024-0.232c0,0.08-0.024,0.152-0.024,0.232v48c0,8.84,7.16,16,16,16
	c-8.84,0-16,7.16-16,16v48c0,8.84,7.16,16,16,16h264c8.84,0,16-7.16,16-16v-48c0-8.84-7.16-16-16-16c8.84,0,16-7.16,16-16v-48
	c0-8.84-7.16-16-16-16H192C188.504,312,185.296,310.848,182.664,308.944z M180.912,316.496c0.688-0.664,1.416-1.272,2.208-1.8
	C182.328,315.224,181.6,315.84,180.912,316.496z M183.784,314.336c0.656-0.392,1.312-0.792,2.024-1.088
	C185.096,313.544,184.44,313.936,183.784,314.336z M187.352,312.768c0.48-0.144,0.936-0.344,1.432-0.44
	C188.296,312.424,187.832,312.616,187.352,312.768z"/>
<g>
	<path style="fill:#2B2D42;" d="M456,224H326.16c6.408-18.016,9.84-36.768,9.84-56C336,75.368,260.64,0,168,0S0,75.368,0,168
		s75.36,168,168,168v40c0,6.168,2.408,11.744,6.24,16c-3.84,4.256-6.24,9.832-6.24,16v48c0,13.232,10.768,24,24,24h264
		c13.232,0,24-10.768,24-24v-48c0-6.168-2.408-11.744-6.24-16c3.84-4.256,6.24-9.832,6.24-16v-48c0-6.168-2.408-11.744-6.24-16
		c3.84-4.256,6.24-9.832,6.24-16v-48C480,234.768,469.232,224,456,224z M464,248v48c0,4.416-3.592,8-8,8H192
		c-2.008,0-3.792-0.808-5.2-2.04c-0.224-0.192-0.448-0.376-0.648-0.592c-0.568-0.616-1.048-1.304-1.4-2.072
		c-0.08-0.168-0.128-0.344-0.192-0.512c-0.328-0.872-0.56-1.8-0.56-2.784v-48c0-4.416,3.592-8,8-8h29.408H314.6H456
		C460.408,240,464,243.584,464,248z M464,328v48c0,4.416-3.592,8-8,8H192c-4.408,0-8-3.584-8-8v-48c0-0.048,0.024-0.088,0.024-0.136
		c0.08-4.336,3.648-7.864,7.976-7.864h264C460.408,320,464,323.584,464,328z M168,20.672c8.664,11.2,25.08,34.496,37.904,64.752
		c-12.24,3.424-24.944,5.4-37.904,5.4s-25.664-1.976-37.904-5.4C142.92,55.168,159.336,31.872,168,20.672z M114.8,80.2
		c-16.32-6.672-31.352-16.32-44.248-28.704c22.2-18.6,49.768-30.944,80.016-34.416C140.696,30.496,126.336,52.592,114.8,80.2z
		 M185.432,17.08c30.248,3.472,57.816,15.816,80.016,34.416C252.552,63.88,237.52,73.528,221.2,80.2
		C209.664,52.592,195.304,30.496,185.432,17.08z M168,106.832c14.952,0,29.648-2.176,43.72-6.264
		c6.392,18.176,11.024,38.272,11.984,59.44H112.288c0.968-21.16,5.592-41.256,11.984-59.44
		C138.352,104.648,153.048,106.832,168,106.832z M223.688,176c-0.712,15.592-3.368,31.656-8.184,48H192
		c-7.952,0-14.96,3.928-19.336,9.904c-16.008-0.448-31.856,1.36-47.08,5.352c-7.08-19.152-12.264-40.616-13.304-63.256L223.688,176
		L223.688,176z M168,250v46c0,1.376,0.152,2.728,0.384,4.072c0.032,0.2,0.048,0.408,0.088,0.608c0.08,0.392,0.224,0.752,0.32,1.136
		c0.176,0.696,0.368,1.392,0.6,2.064c0.136,0.392,0.248,0.784,0.4,1.168c0.136,0.328,0.304,0.632,0.448,0.952
		c0.224,0.48,0.48,0.952,0.736,1.416c0.296,0.544,0.568,1.088,0.904,1.6c0.136,0.216,0.272,0.432,0.416,0.64
		c-1.576,2.136-3.016,4.048-4.296,5.688c-8.296-10.728-23.696-32.608-36.264-61.032C143.528,251.4,155.688,250.008,168,250z
		 M150.568,318.92c-29.944-3.44-57.288-15.544-79.376-33.832c13.424-11.28,28.608-20.072,44.92-26.032
		C127.4,285.176,141.072,306.024,150.568,318.92z M231.984,224c4.456-16.288,7.024-32.344,7.68-48h79.968
		c-0.864,16.48-4.224,32.592-10.352,48H231.984z M319.592,160h-79.936c-0.96-23.232-5.856-45.08-12.712-64.72
		c18.568-7.536,35.648-18.624,50.232-32.792C301.888,88.056,317.616,122.216,319.592,160z M58.824,62.496
		c14.584,14.16,31.664,25.248,50.232,32.792c-6.856,19.632-11.752,41.488-12.712,64.72H16.408
		C18.384,122.216,34.112,88.056,58.824,62.496z M16.408,176h79.936c1.016,24.568,6.4,47.64,13.864,68.128
		c-18.512,6.824-35.76,16.928-50.872,29.952C34.32,248.456,18.4,214.056,16.408,176z M464,456c0,4.416-3.592,8-8,8H192
		c-4.408,0-8-3.584-8-8v-48c0-4.416,3.592-8,8-8h264c4.408,0,8,3.584,8,8V456z"/>
	<rect x="432" y="264" style="fill:#2B2D42;" width="16" height="16"/>
	<rect x="200" y="264" style="fill:#2B2D42;" width="136" height="16"/>
	<rect x="432" y="344" style="fill:#2B2D42;" width="16" height="16"/>
	<rect x="200" y="344" style="fill:#2B2D42;" width="136" height="16"/>
	<rect x="432" y="424" style="fill:#2B2D42;" width="16" height="16"/>
	<rect x="200" y="424" style="fill:#2B2D42;" width="136" height="16"/>
	<rect x="336" y="96" style="fill:#2B2D42;" width="16" height="16"/>
	<rect x="368" y="96" style="fill:#2B2D42;" width="16" height="16"/>
	<rect x="400" y="96" style="fill:#2B2D42;" width="16" height="16"/>
	<rect x="432" y="96" style="fill:#2B2D42;" width="16" height="16"/>
	<rect x="432" y="128" style="fill:#2B2D42;" width="16" height="16"/>
	<rect x="432" y="160" style="fill:#2B2D42;" width="16" height="16"/>
	<rect x="432" y="192" style="fill:#2B2D42;" width="16" height="16"/>
	<rect x="136" y="424" style="fill:#2B2D42;" width="16" height="16"/>
	<rect x="104" y="424" style="fill:#2B2D42;" width="16" height="16"/>
	<rect x="72" y="424" style="fill:#2B2D42;" width="16" height="16"/>
	<rect x="72" y="392" style="fill:#2B2D42;" width="16" height="16"/>
	<rect x="72" y="360" style="fill:#2B2D42;" width="16" height="16"/>
	<rect x="72" y="328" style="fill:#2B2D42;" width="16" height="16"/>
</g>
<g>
</g>
<g>
</g>
<g>
</g>
<g>
</g>
<g>
</g>
<g>
</g>
<g>
</g>
<g>
</g>
<g>
</g>
<g>
</g>
<g>
</g>
<g>
</g>
<g>
</g>
<g>
</g>
<g>
</g>
</svg>
