<?xml version="1.0" encoding="utf-8"?>
<!-- Generator: Adobe Illustrator 17.0.0, SVG Export Plug-In . SVG Version: 6.00 Build 0)  -->
<!DOCTYPE svg PUBLIC "-//W3C//DTD SVG 1.1//EN" "http://www.w3.org/Graphics/SVG/1.1/DTD/svg11.dtd">
<svg version="1.1" id="Layer_1" xmlns="http://www.w3.org/2000/svg" xmlns:xlink="http://www.w3.org/1999/xlink" x="0px" y="0px"
	 width="595.28px" height="595.28px" viewBox="0 123.305 595.28 595.28" enable-background="new 0 123.305 595.28 595.28"
	 xml:space="preserve">
<path fill="#FF8A5B" d="M545.673,172.912h-79.371v49.607h4.961c19.178,0,34.725,15.547,34.725,34.725
	c0,19.178-15.547,34.725-34.725,34.725h-49.607c-19.178,0-34.725-15.547-34.725-34.725c0-19.178,15.547-34.725,34.725-34.725h4.961
	v-49.607H168.663v49.607h4.961c19.178,0,34.725,15.547,34.725,34.725c0,19.178-15.547,34.725-34.725,34.725h-49.607
	c-19.178,0-34.725-15.547-34.725-34.725c0-19.178,15.547-34.725,34.725-34.725h4.961v-49.607H49.607
	c-21.916,0-39.685,17.769-39.685,39.685v119.056h575.437V212.597C585.359,190.681,567.59,172.912,545.673,172.912z"/>
<path fill="#FCEADE" d="M148.82,252.282c-10.963,0-19.843-8.88-19.843-19.843v-9.921h-4.961c-19.178,0-34.725,15.547-34.725,34.725
	c0,19.178,15.547,34.725,34.725,34.725h49.607c19.178,0,34.725-15.547,34.725-34.725c0-19.178-15.547-34.725-34.725-34.725h-4.961
	v9.921C168.663,243.403,159.783,252.282,148.82,252.282z"/>
<path fill="#38D3B1" d="M9.921,668.978c0,21.916,17.769,39.685,39.685,39.685h496.067c21.916,0,39.685-17.769,39.685-39.685V331.653
	H9.921V668.978z M535.752,639.214l-59.528,9.921l-9.921-9.921h-148.82v29.764h-39.685l-19.843-19.843l-19.843,19.843H59.528v-99.213
	h177.344l21.083,19.843l18.603-19.843h40.926v29.764h148.82l9.921-9.921l59.528,9.921V639.214z M367.089,430.866l59.528-59.528
	h59.528l39.685,49.607h-69.449l-29.764,39.685l29.764,39.685h69.449l-39.685,49.607h-59.528l-59.528-59.528H79.371
	c-16.44,0-29.764-13.324-29.764-29.764s13.324-29.764,29.764-29.764H367.089z"/>
<path fill="#FCEADE" d="M446.46,252.282c-10.963,0-19.843-8.88-19.843-19.843v-9.921h-4.961c-19.178,0-34.725,15.547-34.725,34.725
	c0,19.178,15.547,34.725,34.725,34.725h49.607c19.178,0,34.725-15.547,34.725-34.725c0-19.178-15.547-34.725-34.725-34.725h-4.961
	v9.921C466.303,243.403,457.423,252.282,446.46,252.282z"/>
<g>
	<path fill="#38D3B1" d="M128.977,232.44c0,10.963,8.88,19.843,19.843,19.843c10.963,0,19.843-8.88,19.843-19.843v-9.921v-49.607
		v-19.843c0-10.963-8.88-19.843-19.843-19.843c-10.963,0-19.843,8.88-19.843,19.843v19.843v49.607V232.44z"/>
	<path fill="#38D3B1" d="M426.617,232.44c0,10.963,8.88,19.843,19.843,19.843s19.843-8.88,19.843-19.843v-9.921v-49.607v-19.843
		c0-10.963-8.88-19.843-19.843-19.843s-19.843,8.88-19.843,19.843v19.843v49.607V232.44z"/>
</g>
<polygon fill="#FCEADE" points="466.303,599.529 317.483,599.529 317.483,639.214 466.303,639.214 476.224,649.136 535.752,639.214 
	535.752,599.529 476.224,589.608 "/>
<polygon fill="#FF8A5B" points="317.483,569.765 276.557,569.765 257.955,589.608 236.872,569.765 59.528,569.765 59.528,668.978 
	238.112,668.978 257.955,649.136 277.797,668.978 317.483,668.978 317.483,639.214 317.483,599.529 "/>
<path fill="#FCEADE" d="M49.607,460.63c0,16.44,13.324,29.764,29.764,29.764h287.719l59.528,59.528h59.528l39.685-49.607h-69.449
	l-29.764-39.685l29.764-39.685h69.449l-39.685-49.607h-59.528l-59.528,59.528H79.371C62.931,430.866,49.607,444.191,49.607,460.63z"
	/>
<g>
	<path fill="#2B2D42" d="M545.673,162.99h-69.449v-9.921c0-16.41-13.354-29.764-29.764-29.764s-29.764,13.354-29.764,29.764v9.921
		H178.584v-9.921c0-16.41-13.354-29.764-29.764-29.764s-29.764,13.354-29.764,29.764v9.921H49.607
		C22.254,162.99,0,185.244,0,212.597v456.381c0,27.353,22.254,49.607,49.607,49.607h496.067c27.353,0,49.607-22.254,49.607-49.607
		V212.597C595.28,185.244,573.026,162.99,545.673,162.99z M416.746,232.936c0.278,16.182,13.473,29.268,29.714,29.268
		c16.241,0,29.437-13.086,29.714-29.268c11.33,2.282,19.892,12.312,19.892,24.307c0,13.682-11.122,24.803-24.803,24.803h-49.607
		c-13.682,0-24.803-11.122-24.803-24.803C396.853,245.248,405.415,235.218,416.746,232.936z M436.539,153.069
		c0-5.477,4.445-9.921,9.921-9.921s9.921,4.445,9.921,9.921v79.371c0,5.477-4.445,9.921-9.921,9.921s-9.921-4.445-9.921-9.921
		V153.069z M119.106,232.936c0.278,16.182,13.473,29.268,29.714,29.268c16.241,0,29.437-13.086,29.714-29.268
		c11.33,2.282,19.892,12.312,19.892,24.307c0,13.682-11.122,24.803-24.803,24.803h-49.607c-13.682,0-24.803-11.122-24.803-24.803
		C99.213,245.248,107.775,235.218,119.106,232.936z M138.899,153.069c0-5.477,4.445-9.921,9.921-9.921
		c5.477,0,9.921,4.445,9.921,9.921v79.371c0,5.477-4.445,9.921-9.921,9.921c-5.477,0-9.921-4.445-9.921-9.921V153.069z
		 M49.607,182.833h69.449v30.27c-22.263,2.5-39.685,21.222-39.685,44.14c0,24.615,20.031,44.646,44.646,44.646h49.607
		c24.615,0,44.646-20.031,44.646-44.646c0-22.918-17.422-41.64-39.685-44.14v-30.27h238.112v30.27
		c-22.263,2.5-39.685,21.222-39.685,44.14c0,24.615,20.031,44.646,44.646,44.646h49.607c24.615,0,44.646-20.031,44.646-44.646
		c0-22.918-17.422-41.64-39.685-44.14v-30.27h69.449c16.41,0,29.764,13.354,29.764,29.764v109.135H19.843V212.597
		C19.843,196.187,33.197,182.833,49.607,182.833z M545.673,698.742H49.607c-16.41,0-29.764-13.354-29.764-29.764V341.574h555.595
		v327.404C575.437,685.388,562.083,698.742,545.673,698.742z"/>
	<rect x="119.056" y="361.417" fill="#2B2D42" width="19.843" height="19.843"/>
	<rect x="79.371" y="361.417" fill="#2B2D42" width="19.843" height="19.843"/>
	<rect x="39.685" y="361.417" fill="#2B2D42" width="19.843" height="19.843"/>
	<path fill="#2B2D42" d="M537.379,589.747l-59.528-9.921c-3.135-0.506-6.379,0.506-8.641,2.768l-7.014,7.014H327.404v-19.843
		c0-5.487-4.435-9.921-9.921-9.921h-40.926c-2.738,0-5.358,1.131-7.233,3.135l-11.796,12.59l-13.85-13.027
		c-1.845-1.726-4.276-2.699-6.806-2.699H59.528c-5.486,0-9.921,4.435-9.921,9.921v99.213c0,5.487,4.435,9.921,9.921,9.921h178.584
		c2.639,0,5.159-1.042,7.014-2.907l12.828-12.828l12.828,12.828c1.855,1.865,4.375,2.907,7.014,2.907h39.685
		c5.487,0,9.921-4.435,9.921-9.921v-19.843h134.791l7.014,7.014c1.875,1.875,4.405,2.907,7.014,2.907
		c0.546,0,1.081-0.05,1.627-0.139l59.528-9.921c4.782-0.794,8.294-4.931,8.294-9.782v-39.685
		C545.673,594.678,542.161,590.54,537.379,589.747z M307.561,659.057h-25.657l-16.936-16.936c-3.879-3.879-10.15-3.879-14.029,0
		l-16.936,16.936H69.449v-79.371h163.494l18.216,17.154c1.915,1.806,4.544,2.907,7.114,2.689c2.639-0.079,5.129-1.201,6.925-3.125
		l15.666-16.717h26.698v19.843v39.685V659.057z M525.831,630.811l-46.204,7.689l-6.31-6.31c-1.855-1.855-4.375-2.897-7.014-2.897
		H327.404V609.45h138.899c2.639,0,5.159-1.042,7.014-2.907l6.31-6.31l46.204,7.699V630.811z"/>
	<path fill="#2B2D42" d="M79.371,500.316h283.611l56.621,56.621c1.855,1.865,4.375,2.907,7.014,2.907h59.528
		c3.016,0,5.863-1.369,7.749-3.72l39.685-49.607c2.381-2.986,2.837-7.064,1.191-10.507c-1.657-3.423-5.119-5.616-8.939-5.616
		h-64.489l-22.323-29.764l22.323-29.764h64.489c3.82,0,7.282-2.193,8.939-5.615c1.647-3.443,1.191-7.52-1.191-10.507l-39.685-49.607
		c-1.885-2.351-4.732-3.72-7.749-3.72h-59.528c-2.639,0-5.159,1.042-7.014,2.907l-56.621,56.621H79.371
		c-21.886,0-39.685,17.799-39.685,39.685S57.484,500.316,79.371,500.316z M79.371,440.788h287.719c2.639,0,5.159-1.042,7.014-2.907
		l56.621-56.621h50.648l23.801,29.764h-48.793c-3.115,0-6.062,1.468-7.937,3.969l-29.764,39.685c-2.649,3.522-2.649,8.374,0,11.896
		l29.764,39.685c1.865,2.5,4.812,3.969,7.937,3.969h48.803l-23.801,29.764h-50.648l-56.621-56.621
		c-1.865-1.855-4.385-2.897-7.024-2.897H79.371c-10.943,0-19.843-8.899-19.843-19.843S68.427,440.788,79.371,440.788z"/>
	<rect x="89.292" y="599.529" fill="#2B2D42" width="69.449" height="19.843"/>
	<rect x="178.584" y="599.529" fill="#2B2D42" width="19.843" height="19.843"/>
</g>
</svg>
