<?xml version="1.0" encoding="utf-8"?>
<!-- Generator: Adobe Illustrator 17.0.0, SVG Export Plug-In . SVG Version: 6.00 Build 0)  -->
<!DOCTYPE svg PUBLIC "-//W3C//DTD SVG 1.1//EN" "http://www.w3.org/Graphics/SVG/1.1/DTD/svg11.dtd">
<svg version="1.1" id="Layer_1" xmlns="http://www.w3.org/2000/svg" xmlns:xlink="http://www.w3.org/1999/xlink" x="0px" y="0px"
	 width="791.987px" height="673.363px" viewBox="-99 -26.695 791.987 673.363" enable-background="new -99 -26.695 791.987 673.363"
	 xml:space="preserve">
<path fill="#ACCEEF" d="M-99,338.387c0,111.123,45.771,211.555,119.489,283.472c71.367,69.623,151.062-29.401,258.64-29.401
	c123.019,0,250.801,85.826,323.432-2.182c56.491-68.451,90.426-156.207,90.426-251.889c0-218.701-222.809-99.743-379.122-256.056
	C127.893-103.642-99,119.686-99,338.387z"/>
<path fill="#FF8A5B" d="M542.673,22.912h-79.371v49.607h4.961c19.178,0,34.725,15.547,34.725,34.725s-15.547,34.725-34.725,34.725
	h-49.607c-19.178,0-34.725-15.547-34.725-34.725s15.547-34.725,34.725-34.725h4.961V22.912H165.663v49.607h4.961
	c19.178,0,34.725,15.547,34.725,34.725s-15.547,34.725-34.725,34.725h-49.607c-19.178,0-34.725-15.547-34.725-34.725
	s15.547-34.725,34.725-34.725h4.961V22.912H46.607c-21.916,0-39.685,17.769-39.685,39.685v119.056h575.437V62.597
	C582.359,40.681,564.59,22.912,542.673,22.912z"/>
<path fill="#FCEADE" d="M145.82,102.282c-10.963,0-19.843-8.88-19.843-19.843v-9.921h-4.961c-19.178,0-34.725,15.547-34.725,34.725
	s15.547,34.725,34.725,34.725h49.607c19.178,0,34.725-15.547,34.725-34.725s-15.547-34.725-34.725-34.725h-4.961v9.921
	C165.663,93.403,156.783,102.282,145.82,102.282z"/>
<path fill="#38D3B1" d="M6.921,518.978c0,21.916,17.769,39.685,39.685,39.685h496.067c21.916,0,39.685-17.769,39.685-39.685V181.653
	H6.921V518.978z M532.752,489.214l-59.528,9.921l-9.921-9.921h-148.82v29.764h-39.685l-19.843-19.843l-19.843,19.843H56.528v-99.213
	h177.344l21.083,19.843l18.603-19.843h40.926v29.764h148.82l9.921-9.921l59.528,9.921L532.752,489.214L532.752,489.214z
	 M364.089,280.866l59.528-59.528h59.528l39.685,49.607h-69.449l-29.764,39.685l29.764,39.685h69.449l-39.685,49.607h-59.528
	l-59.528-59.528H76.371c-16.44,0-29.764-13.324-29.764-29.764s13.324-29.764,29.764-29.764L364.089,280.866L364.089,280.866z"/>
<path fill="#FCEADE" d="M443.46,102.282c-10.963,0-19.843-8.88-19.843-19.843v-9.921h-4.961c-19.178,0-34.725,15.547-34.725,34.725
	s15.547,34.725,34.725,34.725h49.607c19.178,0,34.725-15.547,34.725-34.725s-15.547-34.725-34.725-34.725h-4.961v9.921
	C463.303,93.403,454.423,102.282,443.46,102.282z"/>
<g>
	<path fill="#38D3B1" d="M125.977,82.44c0,10.963,8.88,19.843,19.843,19.843s19.843-8.88,19.843-19.843v-9.921V22.912V3.069
		c0-10.963-8.88-19.843-19.843-19.843s-19.843,8.88-19.843,19.843v19.843v49.607V82.44z"/>
	<path fill="#38D3B1" d="M423.617,82.44c0,10.963,8.88,19.843,19.843,19.843s19.843-8.88,19.843-19.843v-9.921V22.912V3.069
		c0-10.963-8.88-19.843-19.843-19.843s-19.843,8.88-19.843,19.843v19.843v49.607V82.44z"/>
</g>
<polygon fill="#FCEADE" points="463.303,449.529 314.483,449.529 314.483,489.214 463.303,489.214 473.224,499.136 532.752,489.214 
	532.752,449.529 473.224,439.608 "/>
<polygon fill="#FF8A5B" points="314.483,419.765 273.557,419.765 254.955,439.608 233.872,419.765 56.528,419.765 56.528,518.978 
	235.112,518.978 254.955,499.136 274.797,518.978 314.483,518.978 314.483,489.214 314.483,449.529 "/>
<path fill="#FCEADE" d="M46.607,310.63c0,16.44,13.324,29.764,29.764,29.764H364.09l59.528,59.528h59.528l39.685-49.607h-69.449
	l-29.764-39.685l29.764-39.685h69.449l-39.685-49.607h-59.528l-59.528,59.528H76.371C59.931,280.866,46.607,294.191,46.607,310.63z"
	/>
<g>
	<path fill="#2B2D42" d="M542.673,12.99h-69.449V3.069c0-16.41-13.354-29.764-29.764-29.764s-29.764,13.354-29.764,29.764v9.921
		H175.584V3.069c0-16.41-13.354-29.764-29.764-29.764s-29.764,13.354-29.764,29.764v9.921H46.607C19.254,12.99-3,35.244-3,62.597
		v456.381c0,27.353,22.254,49.607,49.607,49.607h496.067c27.353,0,49.607-22.254,49.607-49.607V62.597
		C592.28,35.244,570.026,12.99,542.673,12.99z M413.746,82.936c0.278,16.182,13.473,29.268,29.714,29.268
		s29.437-13.086,29.714-29.268c11.33,2.282,19.892,12.312,19.892,24.307c0,13.682-11.122,24.803-24.803,24.803h-49.607
		c-13.682,0-24.803-11.122-24.803-24.803C393.853,95.248,402.415,85.218,413.746,82.936z M433.539,3.069
		c0-5.477,4.445-9.921,9.921-9.921s9.921,4.445,9.921,9.921V82.44c0,5.477-4.445,9.921-9.921,9.921s-9.921-4.445-9.921-9.921V3.069z
		 M116.106,82.936c0.278,16.182,13.473,29.268,29.714,29.268s29.437-13.086,29.714-29.268c11.33,2.282,19.892,12.312,19.892,24.307
		c0,13.682-11.122,24.803-24.803,24.803h-49.607c-13.682,0-24.803-11.122-24.803-24.803
		C96.213,95.248,104.775,85.218,116.106,82.936z M135.899,3.069c0-5.477,4.445-9.921,9.921-9.921c5.477,0,9.921,4.445,9.921,9.921
		V82.44c0,5.477-4.445,9.921-9.921,9.921c-5.477,0-9.921-4.445-9.921-9.921V3.069z M46.607,32.833h69.449v30.27
		c-22.263,2.5-39.685,21.222-39.685,44.14c0,24.615,20.031,44.646,44.646,44.646h49.607c24.615,0,44.646-20.031,44.646-44.646
		c0-22.918-17.422-41.64-39.685-44.14v-30.27h238.112v30.27c-22.263,2.5-39.685,21.222-39.685,44.14
		c0,24.615,20.031,44.646,44.646,44.646h49.607c24.615,0,44.646-20.031,44.646-44.646c0-22.918-17.422-41.64-39.685-44.14v-30.27
		h69.449c16.41,0,29.764,13.354,29.764,29.764v109.135H16.843V62.597C16.843,46.187,30.197,32.833,46.607,32.833z M542.673,548.742
		H46.607c-16.41,0-29.764-13.354-29.764-29.764V191.574h555.595v327.404C572.437,535.388,559.083,548.742,542.673,548.742z"/>
	<rect x="116.056" y="211.417" fill="#2B2D42" width="19.843" height="19.843"/>
	<rect x="76.371" y="211.417" fill="#2B2D42" width="19.843" height="19.843"/>
	<rect x="36.685" y="211.417" fill="#2B2D42" width="19.843" height="19.843"/>
	<path fill="#2B2D42" d="M534.379,439.747l-59.528-9.921c-3.135-0.506-6.379,0.506-8.641,2.768l-7.014,7.014H324.404v-19.843
		c0-5.487-4.435-9.921-9.921-9.921h-40.926c-2.738,0-5.358,1.131-7.233,3.135l-11.796,12.59l-13.85-13.027
		c-1.845-1.726-4.276-2.699-6.806-2.699H56.528c-5.486,0-9.921,4.435-9.921,9.921v99.213c0,5.487,4.435,9.921,9.921,9.921h178.584
		c2.639,0,5.159-1.042,7.014-2.907l12.828-12.828l12.828,12.828c1.855,1.865,4.375,2.907,7.014,2.907h39.685
		c5.487,0,9.921-4.435,9.921-9.921v-19.843h134.791l7.014,7.014c1.875,1.875,4.405,2.907,7.014,2.907
		c0.546,0,1.081-0.05,1.627-0.139l59.528-9.921c4.782-0.794,8.294-4.931,8.294-9.782v-39.685
		C542.673,444.678,539.161,440.54,534.379,439.747z M304.561,509.057h-25.657l-16.936-16.936c-3.879-3.879-10.15-3.879-14.029,0
		l-16.936,16.936H66.449v-79.371h163.494l18.216,17.154c1.915,1.806,4.544,2.907,7.114,2.689c2.639-0.079,5.129-1.201,6.925-3.125
		l15.666-16.717h26.698v19.843v39.685v19.842H304.561z M522.831,480.811l-46.204,7.689l-6.31-6.31
		c-1.855-1.855-4.375-2.897-7.014-2.897H324.404V459.45h138.899c2.639,0,5.159-1.042,7.014-2.907l6.31-6.31l46.204,7.699V480.811z"
		/>
	<path fill="#2B2D42" d="M76.371,350.316h283.611l56.621,56.621c1.855,1.865,4.375,2.907,7.014,2.907h59.528
		c3.016,0,5.863-1.369,7.749-3.72l39.685-49.607c2.381-2.986,2.837-7.064,1.191-10.507c-1.657-3.423-5.119-5.616-8.939-5.616
		h-64.489l-22.323-29.764l22.323-29.764h64.489c3.82,0,7.282-2.193,8.939-5.615c1.647-3.443,1.191-7.52-1.191-10.507l-39.685-49.607
		c-1.885-2.351-4.732-3.72-7.749-3.72h-59.528c-2.639,0-5.159,1.042-7.014,2.907l-56.621,56.621H76.371
		c-21.886,0-39.685,17.799-39.685,39.685S54.484,350.316,76.371,350.316z M76.371,290.788H364.09c2.639,0,5.159-1.042,7.014-2.907
		l56.621-56.621h50.648l23.801,29.764h-48.793c-3.115,0-6.062,1.468-7.937,3.969l-29.764,39.685c-2.649,3.522-2.649,8.374,0,11.896
		l29.764,39.685c1.865,2.5,4.812,3.969,7.937,3.969h48.803l-23.801,29.764h-50.648l-56.621-56.621
		c-1.865-1.855-4.385-2.897-7.024-2.897H76.371c-10.943,0-19.843-8.899-19.843-19.843S65.427,290.788,76.371,290.788z"/>
	<rect x="86.292" y="449.529" fill="#2B2D42" width="69.449" height="19.843"/>
	<rect x="175.584" y="449.529" fill="#2B2D42" width="19.843" height="19.843"/>
</g>
</svg>
