<?xml version="1.0" encoding="iso-8859-1"?>
<!-- Generator: Adobe Illustrator 19.0.0, SVG Export Plug-In . SVG Version: 6.00 Build 0)  -->
<svg version="1.1" id="Layer_1" xmlns="http://www.w3.org/2000/svg" xmlns:xlink="http://www.w3.org/1999/xlink" x="0px" y="0px"
	 viewBox="0 0 496 496" style="enable-background:new 0 0 496 496;" xml:space="preserve">
<g>
	<rect x="248" y="200" style="fill:#FFA64D;" width="64" height="32"/>
	<rect x="360" y="200" style="fill:#FFA64D;" width="64" height="32"/>
	<rect x="48" y="224" style="fill:#FFA64D;" width="112" height="112"/>
</g>
<g>
	<path style="fill:#333333;" d="M439.448,304l-8.008-112h-78.888l-8.008,112h-17.096l-8.008-112h-78.888l-8.008,112H192v-96h16v-64
		h-19.472l-48-80H16v80H0v64h16v288h160h16h304V304H439.448z M416.552,208l1.144,16h-51.392l1.144-16H416.552z M365.16,240h53.68
		l4.568,64h-62.816L365.16,240z M304.552,208l1.144,16h-51.392l1.144-16H304.552z M253.16,240h53.68l4.568,64h-62.816L253.16,240z
		 M169.872,144h-29.344l-38.4-64h29.336L169.872,144z M92.528,144l-38.4-64h29.344l38.4,64H92.528z M32,80h3.472l38.4,64H32V80z
		 M16,160h176v32H16V160z M176,480H32V208h144v96V480z M480,480H192V320h39.408h97.184h14.816h97.184H480V480z"/>
	<path style="fill:#333333;" d="M242.848,54.576c0.176,0.456,0.32,0.92,0.512,1.368c0.872,1.992,1.856,3.928,3.056,5.76
		C237.272,70.664,232,82.968,232,96c0,14.456,6.704,28.12,17.88,37.168c-1.24,3.44-1.88,7.096-1.88,10.832c0,17.648,14.352,32,32,32
		s32-14.352,32-32c0-3.688-0.64-7.296-1.848-10.704c8.192-6.64,14.136-15.912,16.584-26.528c0.016-0.064,0.032-0.128,0.048-0.2
		c0.344-1.536,0.616-3.096,0.808-4.68c0.024-0.216,0.072-0.424,0.096-0.632c0.2-1.72,0.312-3.472,0.312-5.256
		c0-13.032-5.272-25.336-14.416-34.296C317.768,55.296,320,47.824,320,40c0-22.056-17.944-40-40-40s-40,17.944-40,40
		c0,2.464,0.296,4.864,0.728,7.24c0.112,0.632,0.264,1.24,0.408,1.856C241.576,50.968,242.144,52.792,242.848,54.576z M280,16
		c13.232,0,24,10.768,24,24c0,6.48-2.56,12.552-7.224,17.128l-6.992,6.848l8.112,5.488C306.728,75.44,312,85.36,312,96
		c0,1.96-0.24,3.864-0.576,5.736c-0.08,0.456-0.168,0.904-0.272,1.352c-0.408,1.792-0.92,3.536-1.616,5.2
		c-0.128,0.296-0.296,0.576-0.432,0.872c-0.576,1.272-1.256,2.488-1.992,3.672c-0.432,0.68-0.872,1.352-1.352,2
		c-0.44,0.592-0.928,1.144-1.408,1.704c-2.368,2.744-5.176,5.168-8.48,7.072l-0.752,0.432c-4.536,2.44-9.624,3.96-15.12,3.96v16
		c5.464,0,10.704-0.96,15.6-2.656c0.152,0.888,0.4,1.744,0.4,2.656c0,8.824-7.176,16-16,16s-16-7.176-16-16
		c0-3.216,0.952-6.32,2.76-8.968l4.84-7.128l-7.464-4.304C254.032,117.776,248,107.456,248,96c0-8.688,3.56-16.864,9.664-22.832
		C264.048,77.48,271.736,80,280,80V64c-6.536,0-12.456-2.64-16.792-6.896c-2.312-2.272-4.112-4.92-5.328-7.8
		c-0.36-0.856-0.568-1.776-0.832-2.672c-0.176-0.616-0.44-1.2-0.568-1.832c-0.312-1.544-0.48-3.152-0.48-4.8
		C256,26.768,266.768,16,280,16z"/>
	<path style="fill:#333333;" d="M354.848,54.576c0.176,0.456,0.32,0.92,0.512,1.368c0.872,1.992,1.856,3.928,3.056,5.76
		C349.272,70.664,344,82.968,344,96c0,14.456,6.704,28.12,17.88,37.168c-1.24,3.44-1.88,7.096-1.88,10.832c0,17.648,14.352,32,32,32
		s32-14.352,32-32c0-3.688-0.64-7.296-1.848-10.704c8.192-6.64,14.136-15.912,16.584-26.528c0.016-0.064,0.032-0.128,0.048-0.2
		c0.344-1.536,0.616-3.096,0.808-4.68c0.024-0.216,0.072-0.424,0.096-0.632c0.2-1.72,0.312-3.472,0.312-5.256
		c0-13.032-5.272-25.336-14.416-34.296C429.768,55.296,432,47.824,432,40c0-22.056-17.944-40-40-40s-40,17.944-40,40
		c0,2.464,0.296,4.864,0.728,7.24c0.112,0.632,0.264,1.24,0.408,1.856C353.576,50.968,354.144,52.792,354.848,54.576z M392,16
		c13.232,0,24,10.768,24,24c0,6.48-2.56,12.552-7.224,17.128l-6.992,6.848l8.112,5.488C418.728,75.44,424,85.36,424,96
		c0,1.96-0.24,3.864-0.576,5.736c-0.08,0.456-0.168,0.904-0.272,1.352c-0.408,1.792-0.92,3.536-1.616,5.2
		c-0.128,0.296-0.296,0.576-0.432,0.872c-0.576,1.272-1.256,2.488-1.992,3.672c-0.432,0.68-0.872,1.352-1.352,2
		c-0.44,0.592-0.928,1.144-1.408,1.704c-2.368,2.744-5.176,5.168-8.48,7.072l-0.752,0.432c-4.536,2.44-9.624,3.96-15.12,3.96v16
		c5.464,0,10.704-0.96,15.6-2.656c0.152,0.888,0.4,1.744,0.4,2.656c0,8.824-7.176,16-16,16s-16-7.176-16-16
		c0-3.216,0.952-6.32,2.76-8.968l4.84-7.128l-7.464-4.304C366.032,117.776,360,107.456,360,96c0-8.688,3.56-16.864,9.664-22.832
		C376.048,77.48,383.736,80,392,80V64c-6.536,0-12.456-2.64-16.792-6.896c-2.312-2.272-4.112-4.92-5.328-7.8
		c-0.36-0.856-0.568-1.776-0.832-2.672c-0.176-0.616-0.44-1.2-0.568-1.832c-0.312-1.544-0.48-3.152-0.48-4.8
		C368,26.768,378.768,16,392,16z"/>
	<path style="fill:#333333;" d="M240,448h192v-96H240V448z M256,408h72v24h-72V408z M344,432v-24h72v24H344z M416,392h-72v-24h72
		V392z M328,368v24h-72v-24H328z"/>
	<rect x="48" y="352" style="fill:#333333;" width="16" height="16"/>
	<rect x="80" y="352" style="fill:#333333;" width="48" height="16"/>
	<rect x="144" y="352" style="fill:#333333;" width="16" height="16"/>
</g>
<g>
</g>
<g>
</g>
<g>
</g>
<g>
</g>
<g>
</g>
<g>
</g>
<g>
</g>
<g>
</g>
<g>
</g>
<g>
</g>
<g>
</g>
<g>
</g>
<g>
</g>
<g>
</g>
<g>
</g>
</svg>
