<?xml version="1.0" encoding="utf-8"?>
<!-- Generator: Adobe Illustrator 17.0.0, SVG Export Plug-In . SVG Version: 6.00 Build 0)  -->
<!DOCTYPE svg PUBLIC "-//W3C//DTD SVG 1.1//EN" "http://www.w3.org/Graphics/SVG/1.1/DTD/svg11.dtd">
<svg version="1.1" id="Layer_1" xmlns="http://www.w3.org/2000/svg" xmlns:xlink="http://www.w3.org/1999/xlink" x="0px" y="0px"
	 width="791.987px" height="652.565px" viewBox="-98 66.02 791.987 652.565" enable-background="new -98 66.02 791.987 652.565"
	 xml:space="preserve">
<path fill="#ADF2E0" d="M693.987,374.301c0-111.123-45.771-211.555-119.489-283.472c-71.367-69.623-151.062,29.401-258.64,29.401
	c-123.019,0-250.801-85.826-323.432,2.182C-64.065,190.863-98,278.619-98,374.301c0,218.701,222.808,99.743,379.122,256.056
	C467.095,816.33,693.987,593.002,693.987,374.301z"/>
<path fill="#38D3B1" d="M267.876,222.518c0,38.386,62.127,69.449,138.899,69.449v-9.921c0-60.272-48.863-109.135-109.135-109.135
	s-109.135,48.863-109.135,109.135C232.378,282.046,267.876,255.417,267.876,222.518z"/>
<path fill="#FCEADE" d="M347.247,430.866h-4.336l0,0c-3.433,1.568-6.965,2.966-10.566,4.187c3.611-1.22,7.133-2.619,10.566-4.187
	c15.13-6.915,28.454-17.094,38.911-29.764c15.586-18.87,24.952-43.069,24.952-69.449v9.921h14.882
	c19.178,0,34.725-15.547,34.725-34.725s-15.547-34.725-34.725-34.725h-14.882v9.921v9.921c-76.771,0-138.899-31.064-138.899-69.449
	c0,32.899-35.499,59.528-79.371,59.528v-9.921h-14.882c-19.178,0-34.725,15.547-34.725,34.725s15.547,34.725,34.725,34.725h14.882
	v-9.921c0,44.1,26.212,82,63.864,99.213c3.433,1.568,6.965,2.966,10.566,4.187c-3.611-1.22-7.133-2.619-10.566-4.187l0,0h-4.336
	l49.607,99.213L347.247,430.866z M311.143,439.865c3.324-0.417,6.618-0.933,9.832-1.647
	C317.76,438.942,314.467,439.448,311.143,439.865z M321.888,437.99c3.522-0.814,6.995-1.766,10.388-2.907
	C328.882,436.224,325.41,437.176,321.888,437.99z M263.015,435.083c3.383,1.141,6.856,2.093,10.388,2.907
	C269.87,437.176,266.398,436.224,263.015,435.083z M274.295,438.228c3.224,0.714,6.518,1.22,9.832,1.647
	C280.813,439.448,277.52,438.942,274.295,438.228z M297.64,440.788c3.969,0,7.878-0.228,11.727-0.645
	C305.518,440.559,301.609,440.788,297.64,440.788s-7.878-0.228-11.727-0.645C289.762,440.559,293.672,440.788,297.64,440.788z"/>
<path fill="#38D3B1" d="M119.056,569.765c0-21.916,17.769-39.685,39.685-39.685h99.213h39.685l-49.607-99.213h-39.685
	c-76.712,0-138.899,62.187-138.899,138.899v138.899h49.607v-138.9H119.056z"/>
<path fill="#FF8A5B" d="M436.539,530.08h-99.213H297.64h-39.685h-99.213c-21.916,0-39.685,17.769-39.685,39.685v138.899h357.168
	V569.765C476.224,547.849,458.455,530.08,436.539,530.08z M297.64,649.136c-16.44,0-29.764-13.324-29.764-29.764
	s13.324-29.764,29.764-29.764s29.764,13.324,29.764,29.764C327.404,635.811,314.08,649.136,297.64,649.136z"/>
<circle fill="#FCEADE" cx="297.64" cy="619.372" r="29.764"/>
<path fill="#38D3B1" d="M337.325,530.08h99.213c21.916,0,39.685,17.769,39.685,39.685v138.899h49.607V569.765
	c0-76.712-62.187-138.899-138.899-138.899h-39.685L297.64,530.08H337.325z"/>
<g>
	<path fill="#2B2D42" d="M257.955,331.653c5.477,0,9.921,4.455,9.921,9.921h19.843c0-16.41-13.354-29.764-29.764-29.764
		s-29.764,13.354-29.764,29.764h19.843C248.033,336.108,252.478,331.653,257.955,331.653z"/>
	<path fill="#2B2D42" d="M337.325,331.653c5.477,0,9.921,4.455,9.921,9.921h19.843c0-16.41-13.354-29.764-29.764-29.764
		s-29.764,13.354-29.764,29.764h19.843C327.404,336.108,331.849,331.653,337.325,331.653z"/>
	<path fill="#2B2D42" d="M297.64,579.686c-21.886,0-39.685,17.799-39.685,39.685s17.799,39.685,39.685,39.685
		s39.685-17.799,39.685-39.685S319.526,579.686,297.64,579.686z M297.64,639.214c-10.943,0-19.843-8.899-19.843-19.843
		s8.899-19.843,19.843-19.843s19.843,8.899,19.843,19.843S308.583,639.214,297.64,639.214z"/>
	<path fill="#2B2D42" d="M535.752,569.765c0-82.059-66.761-148.82-148.82-148.82h-10.804c3.532-3.105,6.856-6.419,10.001-9.921
		h10.725c27.353,0,49.607-22.254,49.607-49.607v-17.481c11.955-8.016,19.843-21.648,19.843-37.086
		c0-15.497-7.947-29.149-19.962-37.155c-1.32-80.928-67.455-146.389-148.701-146.389S150.26,188.767,148.94,269.695
		c-12.015,8.007-19.962,21.658-19.962,37.155c0,24.615,20.031,44.646,44.646,44.646h6.756c4.643,27.492,18.692,51.77,38.783,69.449
		h-10.814c-82.059,0-148.82,66.761-148.82,148.82v128.977H0v19.843h69.449h49.607h357.168h49.607h69.449v-19.843h-59.528
		L535.752,569.765L535.752,569.765z M297.64,450.709c10.616,0,20.865-1.528,30.667-4.147l-30.667,61.334l-30.667-61.334
		C276.775,449.181,287.024,450.709,297.64,450.709z M370.879,440.788l-39.685,79.371h-17.501l39.685-79.371H370.879z
		 M426.617,361.417c0,15.051-11.271,27.393-25.786,29.357c6.875-11.955,11.697-25.2,14.068-39.279h6.756
		c1.697,0,3.314-0.317,4.961-0.506v10.428H426.617z M421.657,331.653h-4.961v-49.607h4.961c13.682,0,24.803,11.132,24.803,24.803
		S435.338,331.653,421.657,331.653z M297.64,143.148c67.921,0,123.62,52.811,128.501,119.512c-1.498-0.159-2.947-0.456-4.484-0.456
		H414.9c-9.485-56.214-58.387-99.213-117.26-99.213s-107.775,42.999-117.26,99.213h-6.756c-1.538,0-2.986,0.298-4.484,0.456
		C174.02,195.959,229.719,143.148,297.64,143.148z M396.843,281.798c-71.602-2.52-119.046-31.798-119.046-59.28
		c0-5.477-4.435-9.921-9.921-9.921c-5.487,0-9.921,4.445-9.921,9.921c0,24.793-25.637,45.34-58.953,48.982
		c5.288-49.765,47.503-88.667,98.638-88.667C352.257,182.833,396.705,227.211,396.843,281.798z M173.623,331.653
		c-13.682,0-24.803-11.132-24.803-24.803s11.122-24.803,24.803-24.803h4.961v49.607L173.623,331.653L173.623,331.653z
		 M198.427,331.653v-40.241c30.984-2.689,57.276-17.63,70.402-38.554c20.755,27.502,69.261,46.858,128.025,48.833v29.962
		c0,22.353-7.52,42.92-20.031,59.528H297.64v19.843h59.27c-5.695,4.266-11.836,7.937-18.384,10.913
		c-26.034,11.826-55.748,11.826-81.791,0C222.407,406.321,198.427,371.775,198.427,331.653z M281.587,520.158h-17.501
		l-39.685-79.371h17.501L281.587,520.158z M79.371,569.765c0-69.102,54.667-125.515,122.995-128.67l39.537,79.063h-83.161
		c-27.353,0-49.607,22.254-49.607,49.607v128.977H79.371V569.765z M128.977,698.742V569.765c0-16.41,13.354-29.764,29.764-29.764
		h99.213h39.685h39.685h99.213c16.41,0,29.764,13.354,29.764,29.764v128.977H128.977z M486.145,698.742V569.765
		c0-27.353-22.254-49.607-49.607-49.607h-83.161l39.537-79.063c68.328,3.155,122.995,59.568,122.995,128.67v128.977H486.145z"/>
	<rect x="426.617" y="609.45" fill="#2B2D42" width="19.843" height="69.449"/>
	<rect x="426.617" y="569.765" fill="#2B2D42" width="19.843" height="19.843"/>
	<rect x="515.909" y="212.597" fill="#2B2D42" width="19.843" height="19.843"/>
	<rect x="515.909" y="252.282" fill="#2B2D42" width="19.843" height="19.843"/>
	<rect x="515.909" y="291.968" fill="#2B2D42" width="19.843" height="19.843"/>
	<rect x="59.528" y="331.653" fill="#2B2D42" width="19.843" height="19.843"/>
	<rect x="59.528" y="371.338" fill="#2B2D42" width="19.843" height="19.843"/>
	<rect x="59.528" y="411.024" fill="#2B2D42" width="19.843" height="19.843"/>
</g>
</svg>
