<?xml version="1.0" encoding="iso-8859-1"?>
<!-- Generator: Adobe Illustrator 19.0.0, SVG Export Plug-In . SVG Version: 6.00 Build 0)  -->
<svg version="1.1" id="Layer_1" xmlns="http://www.w3.org/2000/svg" xmlns:xlink="http://www.w3.org/1999/xlink" x="0px" y="0px"
	 viewBox="0 0 496 496" style="enable-background:new 0 0 496 496;" xml:space="preserve">
<g>
	<rect x="320" y="184" style="fill:#FFA64D;" width="112" height="112"/>
	<rect x="64" y="232" style="fill:#FFA64D;" width="112" height="112"/>
</g>
<g>
	<path style="fill:#333333;" d="M432,368H0v16h432c26.472,0,48,21.528,48,48s-21.528,48-48,48H0v16h432c35.288,0,64-28.712,64-64
		S467.288,368,432,368z"/>
	<path style="fill:#333333;" d="M464,432c0-17.648-14.352-32-32-32s-32,14.352-32,32s14.352,32,32,32S464,449.648,464,432z M416,432
		c0-8.824,7.176-16,16-16s16,7.176,16,16s-7.176,16-16,16S416,440.824,416,432z"/>
	<path style="fill:#333333;" d="M384,432c0-17.648-14.352-32-32-32s-32,14.352-32,32s14.352,32,32,32S384,449.648,384,432z M336,432
		c0-8.824,7.176-16,16-16s16,7.176,16,16s-7.176,16-16,16S336,440.824,336,432z"/>
	<path style="fill:#333333;" d="M304,432c0-17.648-14.352-32-32-32s-32,14.352-32,32s14.352,32,32,32S304,449.648,304,432z M256,432
		c0-8.824,7.176-16,16-16s16,7.176,16,16s-7.176,16-16,16S256,440.824,256,432z"/>
	<path style="fill:#333333;" d="M224,432c0-17.648-14.352-32-32-32s-32,14.352-32,32s14.352,32,32,32S224,449.648,224,432z M176,432
		c0-8.824,7.176-16,16-16s16,7.176,16,16s-7.176,16-16,16S176,440.824,176,432z"/>
	<path style="fill:#333333;" d="M144,432c0-17.648-14.352-32-32-32s-32,14.352-32,32s14.352,32,32,32S144,449.648,144,432z M96,432
		c0-8.824,7.176-16,16-16s16,7.176,16,16s-7.176,16-16,16S96,440.824,96,432z"/>
	<path style="fill:#333333;" d="M64,432c0-17.648-14.352-32-32-32S0,414.352,0,432s14.352,32,32,32S64,449.648,64,432z M16,432
		c0-8.824,7.176-16,16-16s16,7.176,16,16s-7.176,16-16,16S16,440.824,16,432z"/>
	<path style="fill:#333333;" d="M403.712,51.272c-1.152-1.12-2.432-2.096-3.712-3.064V0h-16v40.808C381.416,40.28,378.736,40,376,40
		s-5.416,0.28-8,0.808V0h-16v48.208c-1.28,0.968-2.56,1.952-3.712,3.064L256,99.144v102.752L283.056,256H320V141.272l50.856-21.792
		c1.704,0.224,3.384,0.52,5.144,0.52s3.44-0.296,5.144-0.52L432,141.272V256h36.944L496,201.888V99.144L403.712,51.272z
		 M304,130.728V160h-16v16h16v16h-16v16h16v32h-11.056L272,198.112v-89.256l64.464-33.432C336.288,76.944,336,78.432,336,80
		c0,12.408,5.8,23.376,14.688,30.712L304,130.728z M352,80c0-13.232,10.768-24,24-24s24,10.768,24,24s-10.768,24-24,24
		S352,93.232,352,80z M480,198.112L459.056,240H448v-32h16v-16h-16v-16h16v-16h-16v-29.272l-46.688-20.008
		C410.2,103.376,416,92.408,416,80c0-1.568-0.288-3.056-0.464-4.576L480,108.856V198.112z"/>
	<path style="fill:#333333;" d="M64,304V189.272l50.856-21.792c1.704,0.224,3.384,0.52,5.144,0.52c1.76,0,3.44-0.296,5.144-0.52
		L176,189.272V304h36.944L240,249.888V147.144l-92.288-47.872c-1.152-1.12-2.432-2.096-3.712-3.064V0h-16v88.808
		C125.416,88.28,122.736,88,120,88s-5.416,0.28-8,0.808V0H96v96.208c-1.28,0.968-2.56,1.952-3.712,3.064L0,147.144v102.752
		L27.056,304H64z M224,246.112L203.056,288H192v-32h16v-16h-16v-16h16v-16h-16v-29.272l-46.688-20.008
		C154.2,151.376,160,140.408,160,128c0-1.568-0.288-3.056-0.464-4.576L224,156.856V246.112z M144,128c0,13.232-10.768,24-24,24
		s-24-10.768-24-24s10.768-24,24-24S144,114.768,144,128z M16,156.856l64.464-33.432C80.288,124.944,80,126.432,80,128
		c0,12.408,5.8,23.376,14.688,30.712L48,178.728V208H32v16h16v16H32v16h16v32H36.944L16,246.112V156.856z"/>
	<rect x="400" y="256" style="fill:#333333;" width="16" height="16"/>
	<rect x="144" y="304" style="fill:#333333;" width="16" height="16"/>
</g>
<g>
</g>
<g>
</g>
<g>
</g>
<g>
</g>
<g>
</g>
<g>
</g>
<g>
</g>
<g>
</g>
<g>
</g>
<g>
</g>
<g>
</g>
<g>
</g>
<g>
</g>
<g>
</g>
<g>
</g>
</svg>
