<?xml version="1.0" encoding="utf-8"?>
<!-- Generator: Adobe Illustrator 17.0.0, SVG Export Plug-In . SVG Version: 6.00 Build 0)  -->
<!DOCTYPE svg PUBLIC "-//W3C//DTD SVG 1.1//EN" "http://www.w3.org/Graphics/SVG/1.1/DTD/svg11.dtd">
<svg version="1.1" id="Layer_1" xmlns="http://www.w3.org/2000/svg" xmlns:xlink="http://www.w3.org/1999/xlink" x="0px" y="0px"
	 width="791.987px" height="663.688px" viewBox="-175.86 216.305 791.987 663.688"
	 enable-background="new -175.86 216.305 791.987 663.688" xml:space="preserve">
<path fill="#ADF2E0" d="M616.127,554.606c0-111.123-45.771-211.555-119.489-283.472c-71.367-69.623-151.062,29.401-258.64,29.401
	c-123.019,0-250.801-85.826-323.432,2.182c-56.491,68.451-90.426,156.207-90.426,251.889c0,218.701,222.808,99.743,379.122,256.056
	C389.235,996.635,616.127,773.307,616.127,554.606z"/>
<path fill="#FCEADE" d="M84.584,424.653H203.64h119.056c32.879,0,59.528-26.649,59.528-59.528s-26.649-59.528-59.528-59.528
	c-3.403,0-6.717,0.347-9.971,0.903c0.01-0.308,0.05-0.595,0.05-0.903c0-43.832-35.538-79.371-79.371-79.371
	c-31.222,0-58.159,18.077-71.116,44.289c-5.467-2.847-11.588-4.604-18.176-4.604c-21.916,0-39.685,17.769-39.685,39.685
	c0,1.23,0.248,2.391,0.357,3.592c-6.31-2.282-13.096-3.592-20.2-3.592c-32.879,0-59.528,26.649-59.528,59.528
	S51.705,424.653,84.584,424.653z"/>
<path fill="#FF8A5B" d="M372.303,583.394v-59.528c0-10.963-8.88-19.843-19.843-19.843H203.64H54.82
	c-10.963,0-19.843,8.88-19.843,19.843v59.528c0,10.963,8.88,19.843,19.843,19.843h297.64
	C363.423,603.237,372.303,594.357,372.303,583.394z"/>
<path fill="#38D3B1" d="M34.977,623.08v59.528c0,10.963,8.88,19.843,19.843,19.843c-10.963,0-19.843,8.88-19.843,19.843v59.528
	c0,10.963,8.88,19.843,19.843,19.843h297.64c10.963,0,19.843-8.88,19.843-19.843v-59.528c0-10.963-8.88-19.843-19.843-19.843
	c10.963,0,19.843-8.88,19.843-19.843V623.08c0-10.963-8.88-19.843-19.843-19.843H54.82C43.857,603.237,34.977,612.117,34.977,623.08
	z"/>
<g>
	<rect x="-54.315" y="662.765" fill="#2B2D42" width="19.843" height="19.843"/>
	<rect x="-14.629" y="662.765" fill="#2B2D42" width="19.843" height="19.843"/>
	<rect x="-94" y="662.765" fill="#2B2D42" width="19.843" height="19.843"/>
	<rect x="-94" y="623.08" fill="#2B2D42" width="19.843" height="19.843"/>
	<rect x="-94" y="583.394" fill="#2B2D42" width="19.843" height="19.843"/>
	<rect x="-94" y="543.709" fill="#2B2D42" width="19.843" height="19.843"/>
	<rect x="-94" y="504.024" fill="#2B2D42" width="19.843" height="19.843"/>
	<rect x="-94" y="464.338" fill="#2B2D42" width="19.843" height="19.843"/>
	<rect x="-94" y="424.653" fill="#2B2D42" width="19.843" height="19.843"/>
	<rect x="-94" y="384.968" fill="#2B2D42" width="19.843" height="19.843"/>
	<rect x="-94" y="345.282" fill="#2B2D42" width="19.843" height="19.843"/>
	<rect x="-94" y="305.597" fill="#2B2D42" width="19.843" height="19.843"/>
	<rect x="-94" y="265.912" fill="#2B2D42" width="19.843" height="19.843"/>
	<rect x="-54.315" y="265.912" fill="#2B2D42" width="19.843" height="19.843"/>
	<rect x="-14.629" y="265.912" fill="#2B2D42" width="19.843" height="19.843"/>
	<rect x="25.056" y="265.912" fill="#2B2D42" width="19.843" height="19.843"/>
	<rect x="64.741" y="265.912" fill="#2B2D42" width="19.843" height="19.843"/>
	<path fill="#2B2D42" d="M84.584,434.574h109.135v59.528H54.82c-16.41,0-29.764,13.354-29.764,29.764v59.528
		c0,7.649,2.986,14.565,7.739,19.843c-4.762,5.278-7.739,12.193-7.739,19.843v59.528c0,7.649,2.986,14.564,7.739,19.843
		c-4.762,5.278-7.739,12.193-7.739,19.843v59.528c0,16.41,13.354,29.764,29.764,29.764h297.64c16.41,0,29.764-13.354,29.764-29.764
		v-59.528c0-7.649-2.986-14.565-7.739-19.843c4.762-5.278,7.739-12.193,7.739-19.843V623.08c0-7.649-2.986-14.565-7.739-19.843
		c4.762-5.278,7.739-12.193,7.739-19.843v-59.528c0-16.41-13.354-29.764-29.764-29.764H213.561v-59.528h109.135
		c38.296,0,69.449-31.153,69.449-69.449s-31.153-69.449-69.449-69.449c-0.189,0-0.367,0-0.546,0
		c-4.951-44.586-42.86-79.371-88.746-79.371c-31.054,0-59.22,15.775-75.501,41.739c-4.514-1.369-9.128-2.054-13.791-2.054
		c-24.258,0-44.507,17.501-48.783,40.539c-3.552-0.566-7.143-0.853-10.745-0.853c-38.296,0-69.449,31.153-69.449,69.449
		S46.288,434.574,84.584,434.574z M362.381,623.08v59.528c0,5.467-4.455,9.921-9.921,9.921H54.82c-5.467,0-9.921-4.455-9.921-9.921
		V623.08c0-5.467,4.455-9.921,9.921-9.921h297.64C357.927,613.158,362.381,617.613,362.381,623.08z M362.381,781.821
		c0,5.467-4.455,9.921-9.921,9.921H54.82c-5.467,0-9.921-4.455-9.921-9.921v-59.528c0-5.467,4.455-9.921,9.921-9.921h297.64
		c5.467,0,9.921,4.455,9.921,9.921V781.821z M362.381,523.866v59.528c0,5.467-4.455,9.921-9.921,9.921H54.82
		c-5.467,0-9.921-4.455-9.921-9.921v-59.528c0-5.467,4.455-9.921,9.921-9.921h297.64C357.927,513.945,362.381,518.4,362.381,523.866
		z M84.584,315.518c5.665,0,11.33,1.012,16.827,3.006c3.195,1.161,6.756,0.605,9.445-1.478c2.689-2.074,4.127-5.377,3.81-8.761
		l-0.317-2.689c0-16.41,13.354-29.764,29.764-29.764c4.574,0,9.157,1.171,13.602,3.482c2.371,1.23,5.139,1.458,7.659,0.625
		c2.53-0.833,4.623-2.649,5.804-5.03c11.826-23.91,35.667-38.763,62.227-38.763c38.296,0,69.449,31.153,69.449,69.181
		c-0.02,0.238-0.05,0.933-0.05,1.171c0,2.917,1.29,5.695,3.522,7.58c2.232,1.875,5.159,2.689,8.066,2.203
		c3.006-0.516,5.725-0.764,8.304-0.764c27.353,0,49.607,22.254,49.607,49.607s-22.254,49.607-49.607,49.607H84.584
		c-27.353,0-49.607-22.254-49.607-49.607S57.231,315.518,84.584,315.518z"/>
	<rect x="322.696" y="543.709" fill="#2B2D42" width="19.843" height="19.843"/>
	<rect x="64.741" y="543.709" fill="#2B2D42" width="138.899" height="19.843"/>
	<rect x="322.696" y="642.922" fill="#2B2D42" width="19.843" height="19.843"/>
	<rect x="64.741" y="642.922" fill="#2B2D42" width="138.899" height="19.843"/>
	<rect x="322.696" y="742.136" fill="#2B2D42" width="19.843" height="19.843"/>
	<rect x="64.741" y="742.136" fill="#2B2D42" width="138.899" height="19.843"/>
	<rect x="402.067" y="662.765" fill="#2B2D42" width="19.843" height="19.843"/>
	<rect x="441.752" y="662.765" fill="#2B2D42" width="19.843" height="19.843"/>
	<rect x="481.437" y="662.765" fill="#2B2D42" width="19.843" height="19.843"/>
	<rect x="481.437" y="623.08" fill="#2B2D42" width="19.843" height="19.843"/>
	<rect x="481.437" y="583.394" fill="#2B2D42" width="19.843" height="19.843"/>
	<rect x="481.437" y="543.709" fill="#2B2D42" width="19.843" height="19.843"/>
	<rect x="481.437" y="504.024" fill="#2B2D42" width="19.843" height="19.843"/>
	<rect x="481.437" y="464.338" fill="#2B2D42" width="19.843" height="19.843"/>
	<rect x="481.437" y="424.653" fill="#2B2D42" width="19.843" height="19.843"/>
	<rect x="481.437" y="384.968" fill="#2B2D42" width="19.843" height="19.843"/>
	<rect x="481.437" y="345.282" fill="#2B2D42" width="19.843" height="19.843"/>
	<rect x="481.437" y="305.597" fill="#2B2D42" width="19.843" height="19.843"/>
	<rect x="481.437" y="265.912" fill="#2B2D42" width="19.843" height="19.843"/>
	<rect x="441.752" y="265.912" fill="#2B2D42" width="19.843" height="19.843"/>
	<rect x="402.067" y="265.912" fill="#2B2D42" width="19.843" height="19.843"/>
	<rect x="362.381" y="265.912" fill="#2B2D42" width="19.843" height="19.843"/>
	<rect x="312.775" y="335.361" fill="#2B2D42" width="19.843" height="19.843"/>
	<rect x="312.775" y="375.046" fill="#2B2D42" width="19.843" height="19.843"/>
	<rect x="273.089" y="375.046" fill="#2B2D42" width="19.843" height="19.843"/>
</g>
</svg>
