<?xml version="1.0" encoding="utf-8"?>
<!-- Generator: Adobe Illustrator 17.0.0, SVG Export Plug-In . SVG Version: 6.00 Build 0)  -->
<!DOCTYPE svg PUBLIC "-//W3C//DTD SVG 1.1//EN" "http://www.w3.org/Graphics/SVG/1.1/DTD/svg11.dtd">
<svg version="1.1" id="Layer_1" xmlns="http://www.w3.org/2000/svg" xmlns:xlink="http://www.w3.org/1999/xlink" x="0px" y="0px"
	 width="595.28px" height="595.28px" viewBox="0 123.305 595.28 595.28" enable-background="new 0 123.305 595.28 595.28"
	 xml:space="preserve">
<path fill="#FCEADE" d="M178.584,331.653H297.64h119.056c32.879,0,59.528-26.649,59.528-59.528s-26.649-59.528-59.528-59.528
	c-3.403,0-6.717,0.347-9.971,0.903c0.01-0.308,0.05-0.595,0.05-0.903c0-43.832-35.538-79.371-79.371-79.371
	c-31.222,0-58.159,18.077-71.116,44.289c-5.467-2.847-11.588-4.604-18.176-4.604c-21.916,0-39.685,17.769-39.685,39.685
	c0,1.23,0.248,2.391,0.357,3.592c-6.31-2.282-13.096-3.592-20.2-3.592c-32.879,0-59.528,26.649-59.528,59.528
	S145.705,331.653,178.584,331.653z"/>
<path fill="#FF8A5B" d="M466.303,490.394v-59.528c0-10.963-8.88-19.843-19.843-19.843H297.64H148.82
	c-10.963,0-19.843,8.88-19.843,19.843v59.528c0,10.963,8.88,19.843,19.843,19.843h297.64
	C457.423,510.237,466.303,501.357,466.303,490.394z"/>
<path fill="#38D3B1" d="M128.977,530.08v59.528c0,10.963,8.88,19.843,19.843,19.843c-10.963,0-19.843,8.88-19.843,19.843v59.528
	c0,10.963,8.88,19.843,19.843,19.843h297.64c10.963,0,19.843-8.88,19.843-19.843v-59.528c0-10.963-8.88-19.843-19.843-19.843
	c10.963,0,19.843-8.88,19.843-19.843V530.08c0-10.963-8.88-19.843-19.843-19.843H148.82
	C137.857,510.237,128.977,519.117,128.977,530.08z"/>
<g>
	<rect x="39.685" y="569.765" fill="#2B2D42" width="19.843" height="19.843"/>
	<rect x="79.371" y="569.765" fill="#2B2D42" width="19.843" height="19.843"/>
	<rect x="0" y="569.765" fill="#2B2D42" width="19.843" height="19.843"/>
	<rect x="0" y="530.08" fill="#2B2D42" width="19.843" height="19.843"/>
	<rect x="0" y="490.394" fill="#2B2D42" width="19.843" height="19.843"/>
	<rect x="0" y="450.709" fill="#2B2D42" width="19.843" height="19.843"/>
	<rect x="0" y="411.024" fill="#2B2D42" width="19.843" height="19.843"/>
	<rect x="0" y="371.338" fill="#2B2D42" width="19.843" height="19.843"/>
	<rect x="0" y="331.653" fill="#2B2D42" width="19.843" height="19.843"/>
	<rect x="0" y="291.968" fill="#2B2D42" width="19.843" height="19.843"/>
	<rect x="0" y="252.282" fill="#2B2D42" width="19.843" height="19.843"/>
	<rect x="0" y="212.597" fill="#2B2D42" width="19.843" height="19.843"/>
	<rect x="0" y="172.912" fill="#2B2D42" width="19.843" height="19.843"/>
	<rect x="39.685" y="172.912" fill="#2B2D42" width="19.843" height="19.843"/>
	<rect x="79.371" y="172.912" fill="#2B2D42" width="19.843" height="19.843"/>
	<rect x="119.056" y="172.912" fill="#2B2D42" width="19.843" height="19.843"/>
	<rect x="158.741" y="172.912" fill="#2B2D42" width="19.843" height="19.843"/>
	<path fill="#2B2D42" d="M178.584,341.574h109.135v59.528H148.82c-16.41,0-29.764,13.354-29.764,29.764v59.528
		c0,7.649,2.986,14.565,7.739,19.843c-4.762,5.278-7.739,12.193-7.739,19.843v59.528c0,7.649,2.986,14.564,7.739,19.843
		c-4.762,5.278-7.739,12.193-7.739,19.843v59.528c0,16.41,13.354,29.764,29.764,29.764h297.64c16.41,0,29.764-13.354,29.764-29.764
		v-59.528c0-7.649-2.986-14.565-7.739-19.843c4.762-5.278,7.739-12.193,7.739-19.843V530.08c0-7.649-2.986-14.565-7.739-19.843
		c4.762-5.278,7.739-12.193,7.739-19.843v-59.528c0-16.41-13.354-29.764-29.764-29.764H307.561v-59.528h109.135
		c38.296,0,69.449-31.153,69.449-69.449s-31.153-69.449-69.449-69.449c-0.189,0-0.367,0-0.546,0
		c-4.951-44.586-42.86-79.371-88.746-79.371c-31.054,0-59.22,15.775-75.501,41.739c-4.514-1.369-9.128-2.054-13.791-2.054
		c-24.258,0-44.507,17.501-48.783,40.539c-3.552-0.566-7.143-0.853-10.745-0.853c-38.296,0-69.449,31.153-69.449,69.449
		S140.288,341.574,178.584,341.574z M456.381,530.08v59.528c0,5.467-4.455,9.921-9.921,9.921H148.82
		c-5.467,0-9.921-4.455-9.921-9.921V530.08c0-5.467,4.455-9.921,9.921-9.921h297.64C451.927,520.158,456.381,524.613,456.381,530.08
		z M456.381,688.821c0,5.467-4.455,9.921-9.921,9.921H148.82c-5.467,0-9.921-4.455-9.921-9.921v-59.528
		c0-5.467,4.455-9.921,9.921-9.921h297.64c5.467,0,9.921,4.455,9.921,9.921V688.821z M456.381,430.866v59.528
		c0,5.467-4.455,9.921-9.921,9.921H148.82c-5.467,0-9.921-4.455-9.921-9.921v-59.528c0-5.467,4.455-9.921,9.921-9.921h297.64
		C451.927,420.945,456.381,425.4,456.381,430.866z M178.584,222.518c5.665,0,11.33,1.012,16.827,3.006
		c3.195,1.161,6.756,0.605,9.445-1.478c2.689-2.074,4.127-5.377,3.81-8.761l-0.317-2.689c0-16.41,13.354-29.764,29.764-29.764
		c4.574,0,9.157,1.171,13.602,3.482c2.371,1.23,5.139,1.458,7.659,0.625c2.53-0.833,4.623-2.649,5.804-5.03
		c11.826-23.91,35.667-38.763,62.227-38.763c38.296,0,69.449,31.153,69.449,69.181c-0.02,0.238-0.05,0.933-0.05,1.171
		c0,2.917,1.29,5.695,3.522,7.58c2.232,1.875,5.159,2.689,8.066,2.203c3.006-0.516,5.725-0.764,8.304-0.764
		c27.353,0,49.607,22.254,49.607,49.607s-22.254,49.607-49.607,49.607H178.584c-27.353,0-49.607-22.254-49.607-49.607
		S151.231,222.518,178.584,222.518z"/>
	<rect x="416.696" y="450.709" fill="#2B2D42" width="19.843" height="19.843"/>
	<rect x="158.741" y="450.709" fill="#2B2D42" width="138.899" height="19.843"/>
	<rect x="416.696" y="549.922" fill="#2B2D42" width="19.843" height="19.843"/>
	<rect x="158.741" y="549.922" fill="#2B2D42" width="138.899" height="19.843"/>
	<rect x="416.696" y="649.136" fill="#2B2D42" width="19.843" height="19.843"/>
	<rect x="158.741" y="649.136" fill="#2B2D42" width="138.899" height="19.843"/>
	<rect x="496.067" y="569.765" fill="#2B2D42" width="19.843" height="19.843"/>
	<rect x="535.752" y="569.765" fill="#2B2D42" width="19.843" height="19.843"/>
	<rect x="575.437" y="569.765" fill="#2B2D42" width="19.843" height="19.843"/>
	<rect x="575.437" y="530.08" fill="#2B2D42" width="19.843" height="19.843"/>
	<rect x="575.437" y="490.394" fill="#2B2D42" width="19.843" height="19.843"/>
	<rect x="575.437" y="450.709" fill="#2B2D42" width="19.843" height="19.843"/>
	<rect x="575.437" y="411.024" fill="#2B2D42" width="19.843" height="19.843"/>
	<rect x="575.437" y="371.338" fill="#2B2D42" width="19.843" height="19.843"/>
	<rect x="575.437" y="331.653" fill="#2B2D42" width="19.843" height="19.843"/>
	<rect x="575.437" y="291.968" fill="#2B2D42" width="19.843" height="19.843"/>
	<rect x="575.437" y="252.282" fill="#2B2D42" width="19.843" height="19.843"/>
	<rect x="575.437" y="212.597" fill="#2B2D42" width="19.843" height="19.843"/>
	<rect x="575.437" y="172.912" fill="#2B2D42" width="19.843" height="19.843"/>
	<rect x="535.752" y="172.912" fill="#2B2D42" width="19.843" height="19.843"/>
	<rect x="496.067" y="172.912" fill="#2B2D42" width="19.843" height="19.843"/>
	<rect x="456.381" y="172.912" fill="#2B2D42" width="19.843" height="19.843"/>
	<rect x="406.775" y="242.361" fill="#2B2D42" width="19.843" height="19.843"/>
	<rect x="406.775" y="282.046" fill="#2B2D42" width="19.843" height="19.843"/>
	<rect x="367.089" y="282.046" fill="#2B2D42" width="19.843" height="19.843"/>
</g>
</svg>
