<?xml version="1.0" encoding="iso-8859-1"?>
<!-- Generator: Adobe Illustrator 19.0.0, SVG Export Plug-In . SVG Version: 6.00 Build 0)  -->
<svg version="1.1" id="Layer_1" xmlns="http://www.w3.org/2000/svg" xmlns:xlink="http://www.w3.org/1999/xlink" x="0px" y="0px"
	 viewBox="0 0 480 480" style="enable-background:new 0 0 480 480;" xml:space="preserve">
<path style="fill:#FCEADE;" d="M144,168h96h96c26.512,0,48-21.488,48-48s-21.488-48-48-48c-2.744,0-5.416,0.28-8.04,0.728
	C327.968,72.48,328,72.248,328,72c0-35.344-28.656-64-64-64c-25.176,0-46.896,14.576-57.344,35.712
	C202.248,41.416,197.312,40,192,40c-17.672,0-32,14.328-32,32c0,0.992,0.2,1.928,0.288,2.896C155.2,73.056,149.728,72,144,72
	c-26.512,0-48,21.488-48,48S117.488,168,144,168z"/>
<path style="fill:#FF8A5B;" d="M376,296v-48c0-8.84-7.16-16-16-16H240H120c-8.84,0-16,7.16-16,16v48c0,8.84,7.16,16,16,16h240
	C368.84,312,376,304.84,376,296z"/>
<path style="fill:#21BABD;" d="M104,328v48c0,8.84,7.16,16,16,16c-8.84,0-16,7.16-16,16v48c0,8.84,7.16,16,16,16h240
	c8.84,0,16-7.16,16-16v-48c0-8.84-7.16-16-16-16c8.84,0,16-7.16,16-16v-48c0-8.84-7.16-16-16-16H120C111.16,312,104,319.16,104,328z
	"/>
<g>
	<rect x="32" y="360" style="fill:#2B2D42;" width="16" height="16"/>
	<rect x="64" y="360" style="fill:#2B2D42;" width="16" height="16"/>
	<rect y="360" style="fill:#2B2D42;" width="16" height="16"/>
	<rect y="328" style="fill:#2B2D42;" width="16" height="16"/>
	<rect y="296" style="fill:#2B2D42;" width="16" height="16"/>
	<rect y="264" style="fill:#2B2D42;" width="16" height="16"/>
	<rect y="232" style="fill:#2B2D42;" width="16" height="16"/>
	<rect y="200" style="fill:#2B2D42;" width="16" height="16"/>
	<rect y="168" style="fill:#2B2D42;" width="16" height="16"/>
	<rect y="136" style="fill:#2B2D42;" width="16" height="16"/>
	<rect y="104" style="fill:#2B2D42;" width="16" height="16"/>
	<rect y="72" style="fill:#2B2D42;" width="16" height="16"/>
	<rect y="40" style="fill:#2B2D42;" width="16" height="16"/>
	<rect x="32" y="40" style="fill:#2B2D42;" width="16" height="16"/>
	<rect x="64" y="40" style="fill:#2B2D42;" width="16" height="16"/>
	<rect x="96" y="40" style="fill:#2B2D42;" width="16" height="16"/>
	<rect x="128" y="40" style="fill:#2B2D42;" width="16" height="16"/>
	<path style="fill:#2B2D42;" d="M144,176h88v48H120c-13.232,0-24,10.768-24,24v48c0,6.168,2.408,11.744,6.24,16
		c-3.84,4.256-6.24,9.832-6.24,16v48c0,6.168,2.408,11.744,6.24,16c-3.84,4.256-6.24,9.832-6.24,16v48c0,13.232,10.768,24,24,24h240
		c13.232,0,24-10.768,24-24v-48c0-6.168-2.408-11.744-6.24-16c3.84-4.256,6.24-9.832,6.24-16v-48c0-6.168-2.408-11.744-6.24-16
		c3.84-4.256,6.24-9.832,6.24-16v-48c0-13.232-10.768-24-24-24H248v-48h88c30.88,0,56-25.12,56-56s-25.12-56-56-56
		c-0.152,0-0.296,0-0.44,0C331.568,28.048,301,0,264,0c-25.04,0-47.752,12.72-60.88,33.656C199.48,32.552,195.76,32,192,32
		c-19.56,0-35.888,14.112-39.336,32.688C149.8,64.232,146.904,64,144,64c-30.88,0-56,25.12-56,56S113.12,176,144,176z M368,328v48
		c0,4.408-3.592,8-8,8H120c-4.408,0-8-3.592-8-8v-48c0-4.408,3.592-8,8-8h240C364.408,320,368,323.592,368,328z M368,456
		c0,4.408-3.592,8-8,8H120c-4.408,0-8-3.592-8-8v-48c0-4.408,3.592-8,8-8h240c4.408,0,8,3.592,8,8V456z M368,248v48
		c0,4.408-3.592,8-8,8H120c-4.408,0-8-3.592-8-8v-48c0-4.408,3.592-8,8-8h240C364.408,240,368,243.592,368,248z M144,80
		c4.568,0,9.136,0.816,13.568,2.424c2.576,0.936,5.448,0.488,7.616-1.192c2.168-1.672,3.328-4.336,3.072-7.064L168,72
		c0-13.232,10.768-24,24-24c3.688,0,7.384,0.944,10.968,2.808c1.912,0.992,4.144,1.176,6.176,0.504
		c2.04-0.672,3.728-2.136,4.68-4.056C223.36,27.976,242.584,16,264,16c30.88,0,56,25.12,56,55.784
		c-0.016,0.192-0.04,0.752-0.04,0.944c0,2.352,1.04,4.592,2.84,6.112c1.8,1.512,4.16,2.168,6.504,1.776
		C331.728,80.2,333.92,80,336,80c22.056,0,40,17.944,40,40s-17.944,40-40,40H144c-22.056,0-40-17.944-40-40S121.944,80,144,80z"/>
	<rect x="336" y="264" style="fill:#2B2D42;" width="16" height="16"/>
	<rect x="128" y="264" style="fill:#2B2D42;" width="112" height="16"/>
	<rect x="336" y="344" style="fill:#2B2D42;" width="16" height="16"/>
	<rect x="128" y="344" style="fill:#2B2D42;" width="112" height="16"/>
	<rect x="336" y="424" style="fill:#2B2D42;" width="16" height="16"/>
	<rect x="128" y="424" style="fill:#2B2D42;" width="112" height="16"/>
	<rect x="400" y="360" style="fill:#2B2D42;" width="16" height="16"/>
	<rect x="432" y="360" style="fill:#2B2D42;" width="16" height="16"/>
	<rect x="464" y="360" style="fill:#2B2D42;" width="16" height="16"/>
	<rect x="464" y="328" style="fill:#2B2D42;" width="16" height="16"/>
	<rect x="464" y="296" style="fill:#2B2D42;" width="16" height="16"/>
	<rect x="464" y="264" style="fill:#2B2D42;" width="16" height="16"/>
	<rect x="464" y="232" style="fill:#2B2D42;" width="16" height="16"/>
	<rect x="464" y="200" style="fill:#2B2D42;" width="16" height="16"/>
	<rect x="464" y="168" style="fill:#2B2D42;" width="16" height="16"/>
	<rect x="464" y="136" style="fill:#2B2D42;" width="16" height="16"/>
	<rect x="464" y="104" style="fill:#2B2D42;" width="16" height="16"/>
	<rect x="464" y="72" style="fill:#2B2D42;" width="16" height="16"/>
	<rect x="464" y="40" style="fill:#2B2D42;" width="16" height="16"/>
	<rect x="432" y="40" style="fill:#2B2D42;" width="16" height="16"/>
	<rect x="400" y="40" style="fill:#2B2D42;" width="16" height="16"/>
	<rect x="368" y="40" style="fill:#2B2D42;" width="16" height="16"/>
	<rect x="328" y="96" style="fill:#2B2D42;" width="16" height="16"/>
	<rect x="328" y="128" style="fill:#2B2D42;" width="16" height="16"/>
	<rect x="296" y="128" style="fill:#2B2D42;" width="16" height="16"/>
</g>
<g>
</g>
<g>
</g>
<g>
</g>
<g>
</g>
<g>
</g>
<g>
</g>
<g>
</g>
<g>
</g>
<g>
</g>
<g>
</g>
<g>
</g>
<g>
</g>
<g>
</g>
<g>
</g>
<g>
</g>
</svg>
