<?xml version="1.0" encoding="utf-8"?>
<!-- Generator: Adobe Illustrator 17.0.0, SVG Export Plug-In . SVG Version: 6.00 Build 0)  -->
<!DOCTYPE svg PUBLIC "-//W3C//DTD SVG 1.1//EN" "http://www.w3.org/Graphics/SVG/1.1/DTD/svg11.dtd">
<svg version="1.1" id="Layer_1" xmlns="http://www.w3.org/2000/svg" xmlns:xlink="http://www.w3.org/1999/xlink" x="0px" y="0px"
	 width="367.508px" height="347px" viewBox="89.14 220.445 367.508 347" enable-background="new 89.14 220.445 367.508 347"
	 xml:space="preserve">
<circle fill="#99CC33" cx="262.64" cy="393.945" r="173.5"/>
<g>
	<g>
		<path fill="#FFFFFF" d="M316.546,484.277c0-0.736-0.368-1.84-0.368-2.944h-12.143v-6.992h11.407c0-0.368,0-0.736,0-1.104
			c0-3.312,0.368-6.623,0.736-9.567h-54.091v-6.992h48.203c-4.048-4.784-4.784-11.775-1.472-17.295l6.623-11.775h-33.117v-6.992
			h37.533c2.944-3.312,6.992-5.519,11.407-5.519c1.472,0,3.312,0.368,4.784,0.736l5.888,1.84c5.152-4.048,10.671-7.359,16.926-9.935
			v-5.152h3.312l0.368-1.84c1.472-6.992,7.727-11.775,14.719-11.775h19.502c4.784,0,9.199,2.575,12.143,6.255v-101.19H162.368
			v199.438c0,3.312,2.575,5.888,5.888,5.888h138.723c0-4.048,1.84-8.095,5.152-11.039L316.546,484.277z M286.005,438.282v6.992
			h-23.918v-6.992H286.005z M299.62,391.55h-62.554v-6.992h62.554V391.55z M327.953,409.581h-23.918v-6.992h23.918V409.581z
			 M311.394,373.52v-6.992h23.918v6.992H311.394L311.394,373.52z M358.862,391.55h-23.918v-6.992h23.918L358.862,391.55
			L358.862,391.55z M328.689,308.39h7.359v43.052h-7.359V308.39z M286.373,308.39h14.719c6.623,0,11.407,1.104,14.351,3.68
			c2.944,2.575,4.415,6.255,4.415,11.775c0,5.152-1.472,9.199-4.415,11.407c-2.944,2.575-7.727,3.68-13.982,3.68h-7.727v12.511
			h-7.359L286.373,308.39L286.373,308.39z M286.005,373.52h-23.918v-6.992h23.918V373.52z M253.624,308.39h7.727l19.134,43.052
			h-7.727l-4.415-9.935h-21.71l-4.415,9.935h-7.727L253.624,308.39z M213.147,366.528h23.918v6.992h-23.918V366.528z
			 M213.147,402.589h69.546v6.992h-69.546V402.589z M259.879,420.619v6.992h-23.918v-6.992H259.879z M213.147,438.282h23.918v6.992
			h-23.918V438.282z M213.147,456.312h23.918v6.992h-23.918V456.312z M199.9,481.702h-23.918v-6.992H199.9V481.702z M199.9,463.672
			h-23.918v-6.992H199.9V463.672z M199.9,445.641h-23.918v-6.992H199.9V445.641z M199.9,427.611h-23.918v-6.992H199.9V427.611z
			 M199.9,409.581h-23.918v-6.992H199.9V409.581z M199.9,391.55h-23.918v-6.992H199.9V391.55z M199.9,373.52h-23.918v-6.992H199.9
			V373.52z M282.325,481.702h-69.178v-6.992h69.546v6.992H282.325z"/>
		<polygon fill="#FFFFFF" points="257.671,317.221 249.576,334.883 265.399,334.883 		"/>
		<path fill="#FFFFFF" d="M310.29,330.099c1.472-1.472,2.208-3.68,2.208-6.623c0-2.943-1.104-5.152-2.944-6.255
			c-1.84-1.104-4.784-1.84-8.831-1.84h-7.359v17.295h8.463C306.243,332.308,308.819,331.572,310.29,330.099z"/>
	</g>
	<path fill="#64798A" d="M408.537,258.714c0-3.312-2.575-5.888-5.888-5.888H167.888c-3.312,0-5.888,2.576-5.888,5.888v34.957
		h246.537V258.714z M177.086,280.056c-3.68,0-6.623-2.944-6.623-6.623c0-3.679,2.944-6.623,6.623-6.623
		c3.679,0,6.623,2.944,6.623,6.623C183.71,277.113,180.766,280.056,177.086,280.056z M201.004,280.056
		c-3.68,0-6.623-2.944-6.623-6.623c0-3.679,2.944-6.623,6.623-6.623c3.679,0,6.623,2.944,6.623,6.623
		C207.996,277.113,205.052,280.056,201.004,280.056z M225.29,280.056c-3.68,0-6.623-2.944-6.623-6.623
		c0-3.679,2.944-6.623,6.623-6.623s6.623,2.944,6.623,6.623C231.914,277.113,228.97,280.056,225.29,280.056z M398.97,280.056
		H244.792v-13.615h154.546v13.615H398.97z"/>
	<rect x="244.792" y="266.441" fill="#EBF0F3" width="154.546" height="13.615"/>
	<circle fill="#FCD462" cx="225.29" cy="273.433" r="6.623"/>
	<circle fill="#44C4A1" cx="201.004" cy="273.433" r="6.623"/>
	<circle fill="#E56353" cx="177.086" cy="273.433" r="6.623"/>
	<g>
		<rect x="175.982" y="366.528" fill="#64798A" width="23.918" height="6.992"/>
		<rect x="175.982" y="384.559" fill="#64798A" width="23.918" height="6.992"/>
		<rect x="334.944" y="384.559" fill="#64798A" width="23.918" height="6.992"/>
		<rect x="175.982" y="402.589" fill="#64798A" width="23.918" height="6.992"/>
	</g>
	<rect x="304.035" y="402.589" fill="#E56353" width="23.918" height="6.992"/>
	<path fill="#27A2DB" d="M358.862,407.741c0.736-0.368,1.472-0.736,2.208-1.104l0.736-4.415h-2.944V407.741z"/>
	<g>
		<rect x="175.982" y="420.619" fill="#64798A" width="23.918" height="6.992"/>
		<rect x="175.982" y="438.282" fill="#64798A" width="23.918" height="6.992"/>
		<rect x="175.982" y="456.312" fill="#64798A" width="23.918" height="6.992"/>
		<rect x="175.982" y="474.343" fill="#64798A" width="23.918" height="6.992"/>
	</g>
	<g>
		<path fill="#E56353" d="M304.035,481.702h12.143c-0.368-2.208-0.368-4.784-0.368-6.992h-11.407v6.992H304.035z"/>
		<rect x="213.147" y="366.528" fill="#E56353" width="23.918" height="6.992"/>
	</g>
	<rect x="262.087" y="366.528" fill="#64798A" width="23.918" height="6.992"/>
	<g>
		<rect x="311.394" y="366.528" fill="#44C4A1" width="23.918" height="6.992"/>
		<rect x="237.065" y="384.559" fill="#44C4A1" width="62.554" height="6.992"/>
	</g>
	<rect x="213.147" y="402.589" fill="#64798A" width="69.546" height="6.992"/>
	<rect x="235.961" y="420.619" fill="#44C4A1" width="23.918" height="6.992"/>
	<path fill="#DC8744" d="M282.325,427.611h33.117l2.944-5.152c0.368-0.736,1.104-1.472,1.472-2.208h-37.533V427.611z"/>
	<rect x="213.147" y="438.282" fill="#E56353" width="23.918" height="6.992"/>
	<g>
		<rect x="262.087" y="438.282" fill="#64798A" width="23.918" height="6.992"/>
		<rect x="213.147" y="456.312" fill="#64798A" width="23.918" height="6.992"/>
	</g>
	<path fill="#27A2DB" d="M262.087,463.672h54.091c0-0.368,0-1.104,0-1.472l-4.784-4.048c-0.368-0.368-1.104-1.104-1.472-1.472
		h-47.836V463.672z"/>
	<rect x="213.147" y="474.343" fill="#DC8744" width="69.546" height="6.992"/>
	<g>
		<path fill="#E56353" d="M246.632,341.875h21.71l4.415,9.935h7.727l-19.134-43.052h-7.727L234.49,351.81h7.727L246.632,341.875z
			 M257.671,317.221l7.727,17.662h-15.822L257.671,317.221z"/>
		<path fill="#E56353" d="M293.732,338.931h7.727c6.255,0,11.039-1.104,13.982-3.68c2.943-2.576,4.415-6.255,4.415-11.407
			s-1.472-9.199-4.415-11.775c-2.944-2.576-7.727-3.68-14.351-3.68h-14.719v43.052h7.359L293.732,338.931L293.732,338.931z
			 M293.732,315.013h7.359c4.048,0,6.992,0.736,8.831,1.84c1.84,1.104,2.944,3.312,2.944,6.255s-0.736,5.152-2.208,6.623
			s-4.048,2.208-8.095,2.208H294.1v-16.926C294.1,315.013,293.732,315.013,293.732,315.013z"/>
		<rect x="328.689" y="308.39" fill="#E56353" width="7.359" height="43.052"/>
	</g>
	<path fill="#EBF0F3" d="M408.537,493.477v-98.615c-2.575-3.68-6.992-6.255-12.143-6.255H377.26
		c-6.992,0-13.247,5.152-14.719,11.775l-0.368,1.84h20.606v6.992h-23.918v-1.84c-5.888,2.575-11.775,5.888-16.926,9.935l-5.888-1.84
		c-1.472-0.368-2.944-0.736-4.784-0.736c-4.415,0-8.463,2.208-11.407,5.519h34.221v7.359h-38.636l-6.623,11.775
		c-3.312,5.519-2.576,12.511,1.472,17.295h31.277v6.992h-25.022c-0.368,3.312-0.736,6.255-0.736,9.567c0,0.368,0,0.736,0,1.104
		h12.143v6.992h-11.775c0,1.104,0,1.84,0.368,2.944l-4.784,4.048c-3.312,2.944-4.784,6.992-5.152,11.039h95.671
		C405.962,499.364,408.537,496.788,408.537,493.477z M311.394,445.641v-6.992h71.754v6.992H311.394z M386.828,481.702H362.91v-6.992
		h23.918L386.828,481.702L386.828,481.702z M394.923,463.672h-23.918v-6.992h23.918V463.672z"/>
	<path fill="#3EA69B" d="M358.862,407.741v1.84h23.918v-6.992h-20.606l-0.736,4.415
		C360.702,407.004,359.598,407.373,358.862,407.741z"/>
	<path fill="#D15241" d="M327.953,481.702v-6.992H315.81c0,2.575,0.368,4.784,0.368,6.992H327.953z"/>
	<rect x="362.91" y="474.343" fill="#CE412D" width="23.918" height="6.992"/>
	<path fill="#C9773F" d="M315.442,427.611h39.004v-6.992h-34.221c-0.736,0.736-1.104,1.472-1.472,2.208L315.442,427.611z"/>
	<rect x="311.394" y="438.282" fill="#3EA69B" width="71.754" height="6.992"/>
	<rect x="371.005" y="456.312" fill="#CE412D" width="23.918" height="6.992"/>
	<path fill="#2D93BA" d="M316.546,462.199c0,0.368,0,1.104,0,1.472h25.022v-6.992H310.29c0.368,0.368,0.736,1.104,1.472,1.472
		L316.546,462.199z"/>
	<path fill="#E56353" d="M445.702,488.325c1.104-4.784,1.84-9.935,1.84-15.086s-0.736-10.303-1.84-15.086l9.199-8.095
		c1.472-1.472,1.84-3.68,0.736-5.152l-9.567-16.926c-1.104-1.84-2.944-2.575-5.152-1.84l-11.775,4.048
		c-6.992-6.992-16.191-12.143-26.126-15.086l-2.575-12.143c-0.368-1.84-2.208-3.312-4.048-3.312h-19.134
		c-1.84,0-3.68,1.472-4.048,3.312l-2.576,12.143c-9.935,2.944-18.766,8.095-26.126,15.086l-11.775-4.048
		c-1.84-0.736-4.048,0-5.152,1.84l-9.567,16.926c-1.104,1.84-0.736,4.048,0.736,5.152l9.199,8.095
		c-1.104,4.784-1.84,9.935-1.84,15.086c0,5.152,0.736,10.303,1.84,15.086l-9.199,8.095c-1.472,1.472-1.84,3.68-0.736,5.152
		l9.567,16.926c1.104,1.84,2.944,2.576,5.152,1.84l11.775-4.048c6.992,6.992,18.615-69.05,28.549-66.107l2.575,12.143
		c0.368,1.84,2.208,3.312,4.048,3.312h19.502c1.84,0,3.68-1.472,4.048-3.312l2.575-12.143c9.935-2.944,16.343,73.098,23.702,66.107
		l11.775,4.048c1.84,0.736,4.048,0,5.152-1.84l9.567-16.926c1.104-1.84,0.736-4.048-0.736-5.152L445.702,488.325z M386.828,518.867
		c-25.022,0-45.628-20.606-45.628-45.628s20.606-45.628,45.628-45.628c25.389,0,45.628,20.606,45.628,45.628
		C432.456,498.26,412.217,518.867,386.828,518.867z"/>
	<path fill="#D15241" d="M386.828,427.611c-25.022,0-45.628,20.606-45.628,45.628c0,25.022,20.606,45.628,45.628,45.628
		c25.022,0,45.628-20.606,45.628-45.628C432.456,448.217,412.217,427.611,386.828,427.611z M386.828,510.771
		c-20.606,0-37.533-16.926-37.533-37.533c0-20.606,16.926-37.533,37.533-37.533c20.606,0,37.533,16.926,37.533,37.533
		C424.36,493.845,407.434,510.771,386.828,510.771z"/>
	<circle fill="#CE412D" cx="386.828" cy="473.239" r="21.71"/>
</g>
</svg>
