<?xml version="1.0" encoding="utf-8"?>
<!-- Generator: Adobe Illustrator 17.0.0, SVG Export Plug-In . SVG Version: 6.00 Build 0)  -->
<!DOCTYPE svg PUBLIC "-//W3C//DTD SVG 1.1//EN" "http://www.w3.org/Graphics/SVG/1.1/DTD/svg11.dtd">
<svg version="1.1" id="Layer_1" xmlns="http://www.w3.org/2000/svg" xmlns:xlink="http://www.w3.org/1999/xlink" x="0px" y="0px"
	 width="595.282px" height="471.294px" viewBox="65.14 733.141 595.282 471.294"
	 enable-background="new 65.14 733.141 595.282 471.294" xml:space="preserve">
<g>
	<path fill="#38D3B1" d="M608.585,1070.103c0-150.068-121.654-271.722-271.722-271.722S65.14,920.035,65.14,1070.103
		c0,53.457,15.447,103.3,42.106,145.332h459.232C593.138,1173.403,608.585,1123.559,608.585,1070.103z"/>
</g>
<g>
	<rect x="328.059" y="1072.471" fill="#463836" width="15.726" height="52.828"/>
	
		<rect x="299.082" y="1056.922" transform="matrix(0.967 0.2549 -0.2549 0.967 288.4012 -42.1789)" fill="#463836" width="15.726" height="69.533"/>
	
		<rect x="336.198" y="1088.433" transform="matrix(0.2531 0.9674 -0.9674 0.2531 1334.0846 464.5665)" fill="#463836" width="59.941" height="15.724"/>
</g>
<polygon fill="#8B7E7F" points="287.586,1126.004 262.53,1215.435 409.302,1215.435 384.247,1126.004 "/>
<path fill="#605353" d="M315.188,1024.444c-12.241,13.987-11.693,35.268,1.642,48.603c13.335,13.335,34.616,13.883,48.603,1.641
	L315.188,1024.444z"/>
<path fill="#C2B8B9" d="M338.328,770.101c-77.789,77.789-77.789,203.909,0,281.699c77.789,77.789,203.909,77.789,281.698,0
	L338.328,770.101z"/>
<ellipse transform="matrix(-0.7071 -0.7071 0.7071 -0.7071 173.8587 1893.9216)" fill="#ECE7EA" cx="479.173" cy="910.953" rx="199.186" ry="99.593"/>
<path fill="#D6CED1" d="M473.616,905.391c-3.07,3.07-3.07,8.049,0,11.12c3.07,3.07,8.048,3.07,11.12,0l100.076-100.077l-11.12-11.12
	L473.616,905.391z"/>
<path fill="#605353" d="M400.29,1130.855c-1.423,1.423-3.388,2.303-5.56,2.303H277.102c-4.343,0-7.863-3.52-7.863-7.863
	s3.52-7.863,7.863-7.863h117.629c4.343,0,7.863,3.52,7.863,7.863C402.594,1127.466,401.715,1129.432,400.29,1130.855z"/>
<circle fill="#FFD24D" cx="582.96" cy="807.17" r="15.726"/>
</svg>
