<?xml version="1.0" encoding="utf-8"?>
<!-- Generator: Adobe Illustrator 17.0.0, SVG Export Plug-In . SVG Version: 6.00 Build 0)  -->
<!DOCTYPE svg PUBLIC "-//W3C//DTD SVG 1.1//EN" "http://www.w3.org/Graphics/SVG/1.1/DTD/svg11.dtd">
<svg version="1.1" id="Layer_1" xmlns="http://www.w3.org/2000/svg" xmlns:xlink="http://www.w3.org/1999/xlink" x="0px" y="0px"
	 width="595.282px" height="471.294px" viewBox="-621.859 626.141 595.282 471.294"
	 enable-background="new -621.859 626.141 595.282 471.294" xml:space="preserve">
<g>
	<path fill="#333399" d="M-151.872,978.663c0-122.642-99.421-222.064-222.064-222.064S-596,856.02-596,978.663
		c0,43.687,12.624,84.422,34.411,118.772h375.306C-164.497,1063.085-151.872,1022.35-151.872,978.663z"/>
</g>
<g>
	<path fill="#FFEA8C" d="M-367.292,1000.451v96.848h-158.432c-13.289,0-24.095-10.806-24.095-24.095v-72.754
		c0-19.089,15.523-34.613,34.613-34.613h113.301C-382.825,965.838-367.292,981.361-367.292,1000.451z"/>
	<path fill="#FFCF7C" d="M-367.292,1000.451v96.848h-91.259V965.838h56.646C-382.825,965.838-367.292,981.361-367.292,1000.451z"/>
	<path fill="#EEEFFF" d="M-367.292,1000.451v43.261H-549.82v-43.261c0-19.089,15.523-34.613,34.613-34.613h113.301
		C-382.825,965.838-367.292,981.361-367.292,1000.451z"/>
	<path fill="#CFCFED" d="M-367.292,1000.451v43.261h-91.259v-77.874h56.646C-382.825,965.838-367.292,981.361-367.292,1000.451z"/>
	<path fill="#FFEA8C" d="M-213.53,924.591v172.843h-182.527V924.37c0-18.966,15.417-34.383,34.383-34.383h113.531
		C-229.062,889.987-213.53,905.51-213.53,924.591z"/>
	<path fill="#FFCF7C" d="M-213.53,924.591v172.843h-91.258V889.987h56.646C-229.062,889.987-213.53,905.51-213.53,924.591z"/>
	<path fill="#EEEFFF" d="M-213.53,924.591v44.843h-182.527V924.37c0-18.966,15.417-34.383,34.383-34.383h113.531
		C-229.062,889.987-213.53,905.51-213.53,924.591z"/>
	<path fill="#CFCFED" d="M-213.53,924.591v44.843h-91.258v-79.446h56.646C-229.062,889.987-213.53,905.51-213.53,924.591z"/>
	<path fill="#FFEA8C" d="M-58.827,848.606v224.734c0,13.28-10.815,24.095-24.105,24.095h-158.423V848.606
		c0-19.08,15.523-34.613,34.613-34.613H-93.44C-74.35,813.993-58.827,829.525-58.827,848.606z"/>
	<path fill="#FFCF7C" d="M-58.827,848.606v224.734c0,13.28-10.815,24.095-24.105,24.095h-67.164V813.993h56.656
		C-74.35,813.993-58.827,829.525-58.827,848.606z"/>
	<path fill="#EEEFFF" d="M-58.827,848.606v45.611h-182.527v-45.611c0-19.08,15.523-34.613,34.613-34.613H-93.44
		C-74.35,813.993-58.827,829.525-58.827,848.606z"/>
	<path fill="#CFCFED" d="M-58.827,848.606v45.611h-91.268v-80.223h56.656C-74.35,813.993-58.827,829.525-58.827,848.606z"/>
	<path fill="#69F4DB" d="M-115.291,727.969c0,0.23,0,0.47-0.01,0.7c-0.01,0.23-0.038,0.46-0.058,0.681
		c-0.019,0.249-0.048,0.499-0.086,0.738c-0.029,0.221-0.067,0.432-0.115,0.643c-0.048,0.259-0.105,0.518-0.163,0.777
		c-0.029,0.096-0.038,0.192-0.067,0.288c-0.038,0.134-0.086,0.268-0.134,0.403c-0.048,0.173-0.096,0.345-0.153,0.508
		c-0.096,0.268-0.201,0.537-0.307,0.796c-0.096,0.307-0.192,0.604-0.307,0.911l-20.01,50.922c-2.234,5.667-7.652,9.128-13.395,9.128
		c-1.745,0-3.528-0.316-5.254-0.997c-5.772-2.273-9.252-7.863-9.118-13.73c0.029-1.64,0.355-3.298,0.988-4.919l6.165-15.676
		l0.556-1.419l-0.077,0.038l-97.817,49.204l-37.968,60.443c-0.019,0.029-0.038,0.048-0.058,0.077
		c-0.058,0.096-0.125,0.182-0.182,0.278c-0.173,0.259-0.355,0.508-0.537,0.748c-0.077,0.105-0.153,0.201-0.23,0.297
		c-0.249,0.307-0.508,0.604-0.777,0.892c-0.058,0.058-0.115,0.115-0.173,0.173c-0.249,0.249-0.508,0.489-0.767,0.719
		c-0.077,0.058-0.144,0.125-0.211,0.182c-0.326,0.268-0.652,0.527-0.988,0.758c-0.058,0.048-0.125,0.077-0.182,0.125
		c-0.326,0.221-0.662,0.432-1.017,0.623c-0.01,0.01-0.019,0.01-0.029,0.019c-0.029,0.019-0.058,0.038-0.096,0.058
		c-0.384,0.211-0.786,0.403-1.189,0.575c-0.038,0.019-0.067,0.038-0.105,0.058c-0.038,0.01-0.077,0.019-0.105,0.038
		c-0.403,0.163-0.815,0.316-1.227,0.451c-0.067,0.019-0.144,0.038-0.221,0.057c-0.336,0.106-0.681,0.192-1.036,0.269
		c-0.105,0.019-0.211,0.048-0.316,0.067c-0.374,0.077-0.758,0.134-1.141,0.173c-0.134,0.019-0.259,0.029-0.393,0.038
		c-0.355,0.029-0.7,0.048-1.055,0.048c-0.048,0-0.096,0.01-0.134,0.01c-0.173,0-0.336-0.01-0.499-0.019
		c-0.173,0-0.345,0-0.527-0.019c-0.086,0-0.182-0.019-0.268-0.029c-0.259-0.019-0.508-0.048-0.758-0.077
		c-0.067-0.01-0.125-0.029-0.192-0.038c-0.278-0.038-0.556-0.086-0.834-0.153c-0.048-0.01-0.105-0.029-0.153-0.038
		c-0.038-0.01-0.067-0.019-0.105-0.019c-0.24-0.058-0.489-0.125-0.729-0.192c-0.067-0.019-0.134-0.048-0.192-0.067
		c-0.259-0.077-0.518-0.163-0.767-0.259c-0.096-0.029-0.192-0.077-0.288-0.115c-0.211-0.086-0.432-0.163-0.642-0.268
		c-0.134-0.058-0.278-0.134-0.412-0.201c-0.163-0.077-0.326-0.153-0.479-0.24c-0.182-0.096-0.364-0.211-0.547-0.316
		c-0.086-0.048-0.182-0.096-0.268-0.153c-0.019-0.01-0.029-0.029-0.048-0.038c-0.384-0.24-0.748-0.499-1.103-0.777
		c-0.058-0.038-0.115-0.086-0.173-0.134c-0.288-0.23-0.566-0.47-0.834-0.719c-0.077-0.077-0.163-0.153-0.24-0.23
		c-0.278-0.268-0.547-0.556-0.806-0.853c-0.029-0.029-0.058-0.058-0.086-0.086c-0.269-0.316-0.527-0.652-0.767-0.997
		c-0.086-0.115-0.153-0.221-0.23-0.336c-0.163-0.24-0.307-0.479-0.46-0.729c-0.077-0.134-0.153-0.278-0.23-0.412
		c-0.134-0.249-0.259-0.499-0.384-0.758c-0.058-0.134-0.125-0.259-0.182-0.384c-0.01-0.029-0.019-0.058-0.038-0.086l-14.257-33.453
		l-163.012,116.447c-2.541,1.813-5.456,2.676-8.351,2.676c-4.487,0-8.907-2.091-11.717-6.021
		c-4.612-6.463-3.116-15.446,3.346-20.058l177.589-126.85c0.019-0.019,0.038-0.029,0.058-0.038c0.249-0.173,0.499-0.336,0.758-0.489
		c0.173-0.106,0.336-0.221,0.508-0.316c0.163-0.086,0.345-0.173,0.518-0.259c0.269-0.144,0.547-0.278,0.815-0.403
		c0.029-0.01,0.048-0.019,0.067-0.029c0.105-0.048,0.211-0.077,0.316-0.115c0.326-0.134,0.652-0.259,0.988-0.364
		c0.144-0.048,0.288-0.077,0.441-0.115c0.307-0.086,0.614-0.173,0.921-0.24c0.192-0.038,0.384-0.067,0.575-0.096
		c0.259-0.048,0.527-0.096,0.796-0.125c0.221-0.029,0.451-0.038,0.681-0.048c0.23-0.019,0.46-0.038,0.69-0.038
		c0.249-0.01,0.489,0.01,0.738,0.019c0.211,0,0.432,0.01,0.652,0.029c0.24,0.019,0.479,0.048,0.719,0.077
		c0.221,0.038,0.441,0.058,0.662,0.096c0.221,0.048,0.441,0.096,0.652,0.144c0.24,0.058,0.479,0.105,0.71,0.173
		c0.192,0.058,0.384,0.125,0.575,0.182c0.249,0.086,0.508,0.173,0.748,0.268c0.173,0.067,0.336,0.134,0.508,0.211
		c0.259,0.115,0.518,0.23,0.767,0.355c0.153,0.077,0.307,0.163,0.46,0.249c0.249,0.144,0.499,0.278,0.738,0.432
		c0.163,0.105,0.326,0.221,0.479,0.326c0.221,0.153,0.441,0.297,0.643,0.46c0.192,0.144,0.364,0.307,0.547,0.46
		c0.173,0.144,0.345,0.288,0.508,0.441c0.211,0.201,0.412,0.412,0.614,0.633c0.115,0.125,0.24,0.249,0.355,0.384
		c0.221,0.249,0.432,0.518,0.633,0.796c0.077,0.096,0.153,0.182,0.221,0.278c0.019,0.019,0.029,0.038,0.038,0.057
		c0.173,0.249,0.336,0.508,0.489,0.767c0.105,0.163,0.221,0.326,0.316,0.499c0.086,0.173,0.173,0.345,0.259,0.518
		c0.144,0.278,0.278,0.547,0.403,0.825c0.01,0.019,0.019,0.038,0.029,0.058l10.499,24.622l25.465-40.548
		c0.048-0.077,0.105-0.144,0.163-0.221c0.153-0.249,0.326-0.489,0.499-0.719c0.115-0.153,0.23-0.307,0.355-0.46
		c0.173-0.211,0.345-0.412,0.527-0.614c0.144-0.163,0.297-0.316,0.441-0.47c0.173-0.173,0.345-0.336,0.527-0.499
		c0.182-0.163,0.364-0.326,0.556-0.479c0.153-0.134,0.326-0.259,0.489-0.384c0.23-0.163,0.451-0.326,0.681-0.479
		c0.153-0.105,0.316-0.201,0.479-0.297c0.249-0.153,0.508-0.307,0.767-0.441c0.077-0.048,0.153-0.096,0.23-0.134l101.581-51.094
		l-2.589-0.71l-0.364-0.096l-11.793-3.231c-7.661-2.1-12.177-10.01-10.077-17.671c2.1-7.661,10.01-12.177,17.671-10.077
		l50.865,13.931c0.115,0.029,0.221,0.077,0.336,0.106c0.249,0.077,0.489,0.153,0.729,0.24c0.221,0.077,0.432,0.163,0.643,0.249
		c0.221,0.086,0.432,0.182,0.633,0.278c0.23,0.105,0.451,0.221,0.662,0.336c0.192,0.096,0.384,0.211,0.566,0.326
		c0.221,0.125,0.432,0.249,0.633,0.393c0.182,0.125,0.364,0.249,0.547,0.384c0.192,0.144,0.384,0.288,0.566,0.441
		c0.182,0.144,0.355,0.297,0.527,0.46c0.173,0.153,0.336,0.307,0.499,0.46c0.173,0.173,0.336,0.355,0.508,0.537
		c0.144,0.163,0.297,0.326,0.432,0.499c0.153,0.182,0.307,0.384,0.451,0.575c0.134,0.182,0.278,0.374,0.403,0.575
		c0.125,0.182,0.249,0.374,0.364,0.575c0.134,0.221,0.269,0.441,0.384,0.671c0.058,0.105,0.125,0.201,0.173,0.307
		c0.048,0.086,0.077,0.173,0.125,0.269c0.019,0.048,0.048,0.105,0.067,0.153c0.086,0.182,0.163,0.374,0.249,0.566
		c0.086,0.201,0.163,0.403,0.24,0.604c0.086,0.23,0.153,0.47,0.23,0.71c0.067,0.221,0.134,0.432,0.182,0.652
		c0.058,0.23,0.105,0.46,0.153,0.69c0.048,0.23,0.096,0.46,0.125,0.69c0.038,0.23,0.058,0.46,0.086,0.7
		c0.019,0.23,0.038,0.46,0.058,0.7C-115.291,727.499-115.291,727.73-115.291,727.969z"/>
	<path fill="#6DDBC9" d="M-149.711,737.231l-7.124,20.528l-97.817,49.206l-37.968,60.443c-0.019,0.029-0.038,0.048-0.058,0.077
		c-0.058,0.096-0.125,0.182-0.182,0.278c-0.173,0.259-0.355,0.508-0.537,0.748c-0.077,0.105-0.153,0.201-0.23,0.297
		c-0.249,0.307-0.508,0.604-0.777,0.892c-0.058,0.058-0.115,0.115-0.173,0.173c-0.249,0.249-0.508,0.489-0.767,0.719
		c-0.077,0.058-0.144,0.125-0.211,0.182c-0.326,0.268-0.652,0.527-0.988,0.758c-0.058,0.048-0.125,0.077-0.182,0.125
		c-0.326,0.221-0.662,0.432-1.017,0.623c-0.01,0.01-0.019,0.01-0.029,0.019c-0.029,0.019-0.058,0.038-0.096,0.058
		c-0.384,0.211-0.786,0.403-1.189,0.575c-0.038,0.019-0.067,0.038-0.105,0.058c-0.038,0.01-0.077,0.019-0.105,0.038
		c-0.403,0.163-0.815,0.316-1.227,0.451c-0.067,0.019-0.144,0.038-0.221,0.057c-0.336,0.106-0.681,0.192-1.036,0.269
		c-0.105,0.019-0.211,0.048-0.316,0.067c-0.374,0.077-0.758,0.134-1.141,0.173c-0.134,0.019-0.259,0.029-0.393,0.038
		c-0.355,0.029-0.7,0.048-1.055,0.048c-0.048,0-0.096,0.01-0.134,0.01c-0.173,0-0.336-0.01-0.499-0.019
		c-0.173,0-0.345,0-0.527-0.019c-0.086,0-0.182-0.019-0.268-0.029c-0.259-0.019-0.508-0.048-0.758-0.077
		c-0.067-0.01-0.125-0.029-0.192-0.038c-0.278-0.038-0.556-0.086-0.834-0.153c-0.048-0.01-0.105-0.029-0.153-0.038
		c-0.038-0.01-0.067-0.019-0.105-0.019c-0.24-0.058-0.489-0.125-0.729-0.192c-0.067-0.019-0.134-0.048-0.192-0.067
		c-0.259-0.077-0.518-0.163-0.767-0.259c-0.096-0.029-0.192-0.077-0.288-0.115c-0.211-0.086-0.432-0.163-0.642-0.268
		c-0.134-0.058-0.278-0.134-0.412-0.201c-0.163-0.077-0.326-0.153-0.479-0.24c-0.182-0.096-0.364-0.211-0.547-0.316
		c-0.086-0.048-0.182-0.096-0.268-0.153c-0.019-0.01-0.029-0.029-0.048-0.038c-0.384-0.24-0.748-0.499-1.103-0.777
		c-0.058-0.038-0.115-0.086-0.173-0.134c-0.288-0.23-0.566-0.47-0.834-0.719c-0.077-0.077-0.163-0.153-0.24-0.23
		c-0.278-0.268-0.547-0.556-0.806-0.853c-0.029-0.029-0.058-0.058-0.086-0.086c-0.269-0.316-0.527-0.652-0.767-0.997
		c-0.086-0.115-0.153-0.221-0.23-0.336c-0.163-0.24-0.307-0.479-0.46-0.729c-0.077-0.134-0.153-0.278-0.23-0.412
		c-0.134-0.249-0.259-0.499-0.384-0.758c-0.058-0.134-0.125-0.259-0.182-0.384c-0.01-0.029-0.019-0.058-0.038-0.086l-14.257-33.453
		l-163.012,116.447c-2.541,1.813-5.456,2.676-8.351,2.676c-4.487,0-8.907-2.091-11.717-6.021
		c-4.612-6.463-3.116-15.446,3.346-20.058l177.589-126.85c0.019-0.019,0.038-0.029,0.058-0.038c0.249-0.173,0.499-0.336,0.758-0.489
		c0.173-0.106,0.336-0.221,0.508-0.316c0.163-0.086,0.345-0.173,0.518-0.259c0.269-0.144,0.547-0.278,0.815-0.403
		c0.029-0.01,0.048-0.019,0.067-0.029c0.105-0.048,0.211-0.077,0.316-0.115c0.326-0.134,0.652-0.259,0.988-0.364
		c0.144-0.048,0.288-0.077,0.441-0.115c0.307-0.086,0.614-0.173,0.921-0.24c0.192-0.038,0.384-0.067,0.575-0.096
		c0.259-0.048,0.527-0.096,0.796-0.125c0.221-0.029,0.451-0.038,0.681-0.048c0.23-0.019,0.46-0.038,0.69-0.038
		c0.249-0.01,0.489,0.01,0.738,0.019c0.211,0,0.432,0.01,0.652,0.029c0.24,0.019,0.479,0.048,0.719,0.077
		c0.221,0.038,0.441,0.058,0.662,0.096c0.221,0.048,0.441,0.096,0.652,0.144c0.24,0.058,0.479,0.105,0.71,0.173
		c0.192,0.058,0.384,0.125,0.575,0.182c0.249,0.086,0.508,0.173,0.748,0.268c0.173,0.067,0.336,0.134,0.508,0.211
		c0.259,0.115,0.518,0.23,0.767,0.355c0.153,0.077,0.307,0.163,0.46,0.249c0.249,0.144,0.499,0.278,0.738,0.432
		c0.163,0.105,0.326,0.221,0.479,0.326c0.221,0.153,0.441,0.297,0.643,0.46c0.192,0.144,0.364,0.307,0.547,0.46
		c0.173,0.144,0.345,0.288,0.508,0.441c0.211,0.201,0.412,0.412,0.614,0.633c0.115,0.125,0.24,0.249,0.355,0.384
		c0.221,0.249,0.432,0.518,0.633,0.796c0.077,0.096,0.153,0.182,0.221,0.278c0.019,0.019,0.029,0.038,0.038,0.057
		c0.173,0.249,0.336,0.508,0.489,0.767c0.105,0.163,0.221,0.326,0.316,0.499c0.086,0.173,0.173,0.345,0.259,0.518
		c0.144,0.278,0.278,0.547,0.403,0.825c0.01,0.019,0.019,0.038,0.029,0.058l10.499,24.622l25.465-40.548
		c0.048-0.077,0.105-0.144,0.163-0.221c0.153-0.249,0.326-0.489,0.499-0.719c0.115-0.153,0.23-0.307,0.355-0.46
		c0.173-0.211,0.345-0.412,0.527-0.614c0.144-0.163,0.297-0.316,0.441-0.47c0.173-0.173,0.345-0.336,0.527-0.499
		c0.182-0.163,0.364-0.326,0.556-0.479c0.153-0.134,0.326-0.259,0.489-0.384c0.23-0.163,0.451-0.326,0.681-0.479
		c0.153-0.105,0.316-0.201,0.479-0.297c0.249-0.153,0.508-0.307,0.767-0.441c0.077-0.048,0.153-0.096,0.23-0.134l101.581-51.094
		l-2.589-0.71L-149.711,737.231z"/>
</g>
</svg>
