<?xml version="1.0" encoding="utf-8"?>
<!-- Generator: Adobe Illustrator 17.0.0, SVG Export Plug-In . SVG Version: 6.00 Build 0)  -->
<!DOCTYPE svg PUBLIC "-//W3C//DTD SVG 1.1//EN" "http://www.w3.org/Graphics/SVG/1.1/DTD/svg11.dtd">
<svg version="1.1" id="Layer_1" xmlns="http://www.w3.org/2000/svg" xmlns:xlink="http://www.w3.org/1999/xlink" x="0px" y="0px"
	 width="595.282px" height="471.294px" viewBox="-1331.172 114.539 595.282 471.294"
	 enable-background="new -1331.172 114.539 595.282 471.294" xml:space="preserve">
<g>
	<path fill="#333399" d="M-743.861,429.935c0-158.592-128.564-287.156-287.156-287.156s-287.156,128.564-287.156,287.156
		c0,56.493,16.325,109.168,44.498,153.587h485.318C-760.186,539.103-743.861,486.428-743.861,429.935z"/>
</g>
<g>
	<g>
		<g>
			<g>
				<path fill="#FC70B0" d="M-802.901,536.851c0,7.229-5.862,13.099-13.095,13.099h-81.86c-7.233,0-13.099-5.87-13.099-13.099
					v-5.693c0-7.229,5.862-13.095,13.099-13.095h81.856c7.233,0,13.095,5.862,13.095,13.095v5.693H-802.901z"/>
			</g>
			<g>
				<path fill="#FFA9D4" d="M-897.856,518.063c-5.412,0-10.058,3.279-12.053,7.972c1.995,4.685,6.641,7.972,12.053,7.972h81.856
					c5.412,0,10.058-3.287,12.053-7.972c-1.995-4.693-6.641-7.972-12.053-7.972H-897.856z"/>
			</g>
			<g>
				<path fill="#33363A" d="M-816.001,555.88h-81.856c-10.488,0-19.021-8.537-19.021-19.025v-5.693
					c0-10.488,8.533-19.017,19.021-19.017h81.856c10.488,0,19.021,8.533,19.021,19.017v5.693
					C-796.976,547.344-805.512,555.88-816.001,555.88z M-897.856,523.989c-3.954,0-7.17,3.216-7.17,7.166v5.693
					c0,3.954,3.216,7.174,7.17,7.174h81.856c3.954,0,7.17-3.22,7.17-7.174v-5.693c0-3.95-3.216-7.166-7.17-7.166H-897.856z"/>
			</g>
		</g>
		<g>
			<g>
				<path fill="#FC70B0" d="M-819.271,568.735c0,7.237-5.866,13.099-13.099,13.099h-81.852c-7.237,0-13.099-5.862-13.099-13.099
					v-5.685c0-7.237,5.862-13.092,13.099-13.092h81.856c7.229,0,13.099,5.854,13.099,13.092v5.685H-819.271z"/>
			</g>
			<g>
				<path fill="#FFA9D4" d="M-914.223,549.955c-5.416,0-10.062,3.279-12.06,7.964c1.999,4.685,6.645,7.972,12.06,7.972h81.856
					c5.416,0,10.058-3.287,12.053-7.972c-1.995-4.685-6.637-7.964-12.053-7.964H-914.223z"/>
			</g>
			<g>
				<path fill="#33363A" d="M-832.367,587.76h-81.856c-10.492,0-19.025-8.537-19.025-19.025v-5.685
					c0-10.488,8.533-19.017,19.025-19.017h81.856c10.488,0,19.021,8.533,19.021,19.017v5.685
					C-813.346,579.223-821.879,587.76-832.367,587.76z M-914.223,555.88c-3.958,0-7.174,3.216-7.174,7.166v5.685
					c0,3.954,3.216,7.174,7.174,7.174h81.856c3.954,0,7.17-3.22,7.17-7.174v-5.685c0-3.95-3.216-7.166-7.17-7.166H-914.223z"/>
			</g>
		</g>
		<g>
			<g>
				<path fill="#FC70B0" d="M-835.65,600.622c0,7.229-5.862,13.092-13.092,13.092h-81.859c-7.233,0-13.096-5.862-13.096-13.092
					v-5.696c0-7.229,5.862-13.096,13.096-13.096h81.86c7.229,0,13.091,5.862,13.091,13.096V600.622L-835.65,600.622z"/>
			</g>
			<g>
				<path fill="#FFA9D4" d="M-930.601,581.834c-5.412,0-10.058,3.283-12.049,7.972c1.991,4.693,6.637,7.972,12.049,7.972h81.86
					c5.412,0,10.062-3.279,12.053-7.972c-1.991-4.689-6.641-7.972-12.053-7.972H-930.601z"/>
			</g>
			<g>
				<path fill="#33363A" d="M-848.741,619.639h-81.86c-10.488,0-19.021-8.533-19.021-19.017v-5.696
					c0-10.488,8.533-19.017,19.021-19.017h81.86c10.484,0,19.017,8.533,19.017,19.017v5.693
					C-829.72,611.11-838.257,619.639-848.741,619.639z M-930.601,587.76c-3.954,0-7.17,3.216-7.17,7.166v5.693
					c0,3.95,3.216,7.166,7.17,7.166h81.86c3.954,0,7.166-3.216,7.166-7.166v-5.693c0-3.95-3.212-7.166-7.166-7.166H-930.601z"/>
			</g>
		</g>
	</g>
	<g>
		<g>
			<path fill="#FC70B0" d="M-793.294,459.957c-2.54-5.886-8.335-9.706-14.751-9.706h-317.136c-8.869,0-16.058,7.19-16.058,16.054
				v131.35c0,8.865,7.186,16.054,16.058,16.054h192.928c4.413,0,8.635-1.817,11.665-5.029l124.211-131.342
				C-791.97,472.689-790.758,465.851-793.294,459.957z"/>
		</g>
		<g>
			<path fill="#E2378D" d="M-1125.18,613.714h192.928c4.413,0,8.635-1.817,11.665-5.029L-799.5,480.649
				c-2.512-1.584-5.451-2.485-8.545-2.485h-317.136c-8.869,0-16.058,7.182-16.058,16.05v103.444
				C-1141.239,606.524-1134.053,613.714-1125.18,613.714z"/>
		</g>
		<g>
			<path fill="#33363A" d="M-932.256,619.639h-192.924c-12.12,0-21.98-9.86-21.98-21.98V466.31c0-12.12,9.86-21.98,21.98-21.98
				h317.136c8.79,0,16.71,5.214,20.19,13.285c0.004,0,0.004,0,0.004,0.004c3.476,8.078,1.817,17.421-4.223,23.797l-124.208,131.342
				C-920.413,617.131-926.232,619.639-932.256,619.639z M-1125.18,456.177c-5.586,0-10.129,4.543-10.129,10.129v131.35
				c0,5.586,4.543,10.129,10.129,10.129h192.928c2.773,0,5.455-1.154,7.356-3.172l124.215-131.35
				c2.785-2.939,3.544-7.241,1.948-10.966l0,0c-1.604-3.721-5.262-6.127-9.311-6.127h-317.136V456.177z"/>
		</g>
	</g>
	<g>
		<g>
			<path fill="#7815CE" d="M-877.836,487.618c-1.564-3.638-5.135-5.989-9.09-5.989h-195.389c-5.463,0-9.896,4.44-9.896,9.9v80.919
				c0,5.459,4.432,9.888,9.896,9.888h118.859c2.722,0,5.325-1.118,7.186-3.097l76.527-80.915
				C-877.022,495.455-876.279,491.24-877.836,487.618z"/>
		</g>
		<g>
			<path fill="#A02FF2" d="M-1082.315,582.34h118.859c2.722,0,5.325-1.118,7.186-3.097l74.607-78.885
				c-1.545-0.972-3.362-1.537-5.262-1.537h-195.389c-5.463,0-9.896,4.428-9.896,9.9v63.731
				C-1092.21,577.911-1087.778,582.34-1082.315,582.34z"/>
		</g>
		<g>
			<path fill="#33363A" d="M-963.456,588.265h-118.859c-8.722,0-15.821-7.095-15.821-15.813v-80.919
				c0-8.726,7.099-15.825,15.821-15.825h195.389c6.325,0,12.029,3.757,14.533,9.568l0,0c2.501,5.811,1.304,12.531-3.046,17.121
				l-76.527,80.915C-954.923,586.456-959.115,588.265-963.456,588.265z M-1082.315,487.559c-2.188,0-3.97,1.782-3.97,3.974v80.919
				c0,2.185,1.782,3.962,3.97,3.962h118.859c1.086,0,2.133-0.45,2.876-1.236l76.534-80.927c1.09-1.154,1.394-2.836,0.766-4.29l0,0
				c-0.628-1.462-2.058-2.406-3.646-2.406h-195.389V487.559z"/>
		</g>
	</g>
	<g>
		<path fill="#7815CE" d="M-1020.642,548.141c0,5.843-4.736,10.579-10.575,10.579h-24.69c-5.839,0-10.575-4.737-10.575-10.579
			V523.46c0-5.843,4.736-10.583,10.575-10.583h24.69c5.835,0,10.575,4.736,10.575,10.583V548.141z"/>
	</g>
	<g>
		
			<path fill="none" stroke="#33363A" stroke-width="2.5315" stroke-linecap="round" stroke-linejoin="round" stroke-miterlimit="10" d="
			M-1020.642,521.275"/>
	</g>
	<path fill="#33363A" d="M-943.696,497.679h-43.237c-3.271,0-5.926,2.651-5.926,5.926c0,3.275,2.655,5.926,5.926,5.926h11.713
		l-27.72,27.712h-11.776V523.46c0-9.102-7.403-16.509-16.501-16.509h-24.69c-9.098,0-16.501,7.407-16.501,16.509v24.682
		c0,9.102,7.403,16.505,16.501,16.505h24.69c8.77,0,15.9-6.901,16.402-15.553h14.32c1.568,0,3.077-0.624,4.191-1.734l37.236-37.22
		c0.178-0.178,0.253-0.411,0.403-0.608h14.964c3.271,0,5.926-2.651,5.926-5.926C-937.775,500.33-940.425,497.679-943.696,497.679z
		 M-1026.567,548.141c0,2.564-2.086,4.654-4.65,4.654h-24.69c-2.56,0-4.65-2.086-4.65-4.654V523.46c0-2.568,2.086-4.657,4.65-4.657
		h24.69c2.56,0,4.65,2.09,4.65,4.657V548.141z"/>
	<g>
		
			<path fill="none" stroke="#33363A" stroke-width="2.5315" stroke-linecap="round" stroke-linejoin="round" stroke-miterlimit="10" d="
			M-927.049,521.872"/>
	</g>
	<g>
		<path fill="#33363A" d="M-953.24,546.506h-15.284c-3.271,0-5.926-2.651-5.926-5.926c0-3.275,2.655-5.926,5.926-5.926h15.284
			c3.271,0,5.926,2.651,5.926,5.926C-947.315,543.855-949.969,546.506-953.24,546.506z"/>
	</g>
	<g>
		<g>
			<g>
				<path fill="#FC70B0" d="M-802.901,373.349c0,7.237-5.862,13.103-13.095,13.103h-81.86c-7.233,0-13.099-5.866-13.099-13.103
					v-5.689c0-7.229,5.862-13.099,13.099-13.099h81.856c7.233,0,13.095,5.87,13.095,13.099v5.689H-802.901z"/>
			</g>
			<g>
				<path fill="#FFA9D4" d="M-897.856,354.558c-5.412,0-10.058,3.287-12.053,7.976c1.995,4.689,6.641,7.976,12.053,7.976h81.856
					c5.412,0,10.058-3.287,12.053-7.976c-1.995-4.689-6.641-7.976-12.053-7.976H-897.856z"/>
			</g>
			<g>
				<path fill="#33363A" d="M-816.001,392.378h-81.856c-10.488,0-19.021-8.537-19.021-19.029v-5.689
					c0-10.492,8.533-19.025,19.021-19.025h81.856c10.488,0,19.021,8.537,19.021,19.025v5.689
					C-796.976,383.842-805.512,392.378-816.001,392.378z M-897.856,360.483c-3.954,0-7.17,3.22-7.17,7.174v5.689
					c0,3.958,3.216,7.178,7.17,7.178h81.856c3.954,0,7.17-3.22,7.17-7.178v-5.689c0-3.954-3.216-7.174-7.17-7.174L-897.856,360.483
					L-897.856,360.483z"/>
			</g>
		</g>
		<g>
			<g>
				<path fill="#FC70B0" d="M-819.271,405.233c0,7.229-5.866,13.095-13.099,13.095h-81.852c-7.237,0-13.099-5.862-13.099-13.095
					v-5.685c0-7.237,5.862-13.092,13.099-13.092h81.856c7.229,0,13.099,5.858,13.099,13.092v5.685H-819.271z"/>
			</g>
			<g>
				<path fill="#FFA9D4" d="M-914.223,386.453c-5.416,0-10.062,3.279-12.06,7.964c1.999,4.685,6.645,7.972,12.06,7.972h81.856
					c5.416,0,10.058-3.287,12.053-7.972c-1.995-4.685-6.637-7.964-12.053-7.964H-914.223z"/>
			</g>
			<g>
				<path fill="#33363A" d="M-832.367,424.25h-81.856c-10.492,0-19.025-8.533-19.025-19.017v-5.685
					c0-10.488,8.533-19.017,19.025-19.017h81.856c10.488,0,19.021,8.533,19.021,19.017v5.685
					C-813.346,415.721-821.879,424.25-832.367,424.25z M-914.223,392.378c-3.958,0-7.174,3.216-7.174,7.166v5.685
					c0,3.95,3.216,7.166,7.174,7.166h81.856c3.954,0,7.17-3.216,7.17-7.166v-5.685c0-3.95-3.216-7.166-7.17-7.166H-914.223z"/>
			</g>
		</g>
		<g>
			<g>
				<path fill="#FC70B0" d="M-835.65,437.12c0,7.229-5.862,13.092-13.092,13.092h-81.859c-7.233,0-13.096-5.862-13.096-13.092
					v-5.689c0-7.233,5.862-13.103,13.096-13.103h81.86c7.229,0,13.091,5.87,13.091,13.103V437.12L-835.65,437.12z"/>
			</g>
			<g>
				<path fill="#FFA9D4" d="M-930.601,418.324c-5.412,0-10.058,3.287-12.049,7.98c1.991,4.685,6.637,7.972,12.049,7.972h81.86
					c5.412,0,10.062-3.287,12.053-7.972c-1.991-4.693-6.641-7.98-12.053-7.98H-930.601z"/>
			</g>
			<g>
				<path fill="#33363A" d="M-848.741,456.141h-81.86c-10.488,0-19.021-8.533-19.021-19.017v-5.689
					c0-10.492,8.533-19.029,19.021-19.029h81.86c10.484,0,19.017,8.537,19.017,19.029v5.689
					C-829.72,447.609-838.257,456.141-848.741,456.141z M-930.601,424.25c-3.954,0-7.17,3.22-7.17,7.178v5.689
					c0,3.95,3.216,7.166,7.17,7.166h81.86c3.954,0,7.166-3.216,7.166-7.166v-5.689c0-3.958-3.212-7.178-7.166-7.178H-930.601z"/>
			</g>
		</g>
	</g>
	<g>
		<g>
			<path fill="#FC70B0" d="M-793.294,296.459c-2.54-5.894-8.335-9.706-14.751-9.706h-317.136c-8.869,0-16.058,7.19-16.058,16.054
				v131.35c0,8.865,7.186,16.054,16.058,16.054h192.928c4.413,0,8.635-1.813,11.665-5.025l124.211-131.354
				C-791.97,309.188-790.758,302.349-793.294,296.459z"/>
		</g>
		<g>
			<path fill="#E2378D" d="M-1125.18,450.216h192.928c4.413,0,8.635-1.813,11.665-5.025L-799.5,317.148
				c-2.512-1.572-5.451-2.481-8.545-2.481h-317.136c-8.869,0-16.058,7.186-16.058,16.05v103.444
				C-1141.239,443.022-1134.053,450.216-1125.18,450.216z"/>
		</g>
		<g>
			<path fill="#33363A" d="M-932.256,456.141h-192.924c-12.12,0-21.98-9.86-21.98-21.98v-131.35c0-12.12,9.86-21.98,21.98-21.98
				h317.136c8.794,0,16.718,5.214,20.194,13.289l0,0c3.476,8.082,1.817,17.421-4.227,23.793l-124.204,131.35
				C-920.409,453.629-926.232,456.141-932.256,456.141z M-1125.18,292.679c-5.586,0-10.129,4.543-10.129,10.129v131.35
				c0,5.586,4.543,10.129,10.129,10.129h192.928c2.773,0,5.455-1.154,7.356-3.168l124.215-131.358
				c2.785-2.935,3.544-7.237,1.944-10.958l0,0c-1.6-3.721-5.254-6.123-9.307-6.123L-1125.18,292.679L-1125.18,292.679z"/>
		</g>
	</g>
	<g>
		<g>
			<path fill="#7815CE" d="M-877.836,324.12c-1.564-3.638-5.135-5.989-9.09-5.989h-195.389c-5.463,0-9.896,4.436-9.896,9.9v80.919
				c0,5.463,4.432,9.884,9.896,9.884h118.859c2.722,0,5.325-1.11,7.186-3.093l76.527-80.919
				C-877.022,331.95-876.279,327.735-877.836,324.12z"/>
		</g>
		<g>
			<path fill="#A02FF2" d="M-1082.315,418.834h118.859c2.722,0,5.325-1.11,7.186-3.093l74.607-78.889
				c-1.545-0.968-3.362-1.525-5.262-1.525h-195.389c-5.463,0-9.896,4.42-9.896,9.884v63.739
				C-1092.21,414.414-1087.778,418.834-1082.315,418.834z"/>
		</g>
		<g>
			<path fill="#33363A" d="M-963.456,424.76h-118.859c-8.722,0-15.821-7.091-15.821-15.809v-80.919
				c0-8.726,7.099-15.825,15.821-15.825h195.389c6.325,0,12.029,3.757,14.529,9.568l0,0c0.004,0,0.004,0,0.004,0l0,0
				c2.501,5.807,1.304,12.527-3.046,17.121l-76.527,80.919C-954.915,422.95-959.107,424.76-963.456,424.76z M-1082.315,324.057
				c-2.188,0-3.97,1.782-3.97,3.974v80.919c0,2.181,1.782,3.958,3.97,3.958h118.859c1.09,0,2.137-0.446,2.872-1.229l76.538-80.935
				c1.094-1.154,1.398-2.832,0.77-4.282c-0.004,0-0.004,0-0.004,0c-0.628-1.462-2.058-2.406-3.646-2.406H-1082.315z"/>
		</g>
	</g>
	<g>
		<path fill="#7815CE" d="M-1020.642,384.64c0,5.835-4.736,10.579-10.575,10.579h-24.69c-5.839,0-10.575-4.744-10.575-10.579
			v-24.682c0-5.843,4.736-10.579,10.575-10.579h24.69c5.835,0,10.575,4.737,10.575,10.579V384.64z"/>
	</g>
	<g>
		
			<path fill="none" stroke="#33363A" stroke-width="2.5315" stroke-linecap="round" stroke-linejoin="round" stroke-miterlimit="10" d="
			M-1020.642,357.765"/>
	</g>
	<path fill="#33363A" d="M-943.696,334.17h-43.237c-3.271,0-5.926,2.651-5.926,5.926s2.655,5.926,5.926,5.926h11.721l-27.728,27.72
		h-11.776v-13.783c0-9.102-7.403-16.505-16.501-16.505h-24.69c-9.098,0-16.501,7.403-16.501,16.505v24.682
		c0,9.102,7.403,16.505,16.501,16.505h24.69c8.77,0,15.9-6.901,16.402-15.557h14.32c1.568,0,3.077-0.624,4.191-1.734l37.236-37.22
		c0.182-0.182,0.257-0.419,0.411-0.616h14.96c3.271,0,5.926-2.651,5.926-5.926S-940.425,334.17-943.696,334.17z M-1026.567,384.64
		c0,2.564-2.086,4.654-4.65,4.654h-24.69c-2.56,0-4.65-2.086-4.65-4.654v-24.682c0-2.564,2.086-4.654,4.65-4.654h24.69
		c2.56,0,4.65,2.086,4.65,4.654V384.64z"/>
	<g>
		
			<path fill="none" stroke="#33363A" stroke-width="2.5315" stroke-linecap="round" stroke-linejoin="round" stroke-miterlimit="10" d="
			M-927.049,358.378"/>
	</g>
	<g>
		<path fill="#33363A" d="M-953.24,383.004h-15.284c-3.271,0-5.926-2.651-5.926-5.926c0-3.275,2.655-5.926,5.926-5.926h15.284
			c3.271,0,5.926,2.651,5.926,5.926C-947.315,380.353-949.969,383.004-953.24,383.004z"/>
	</g>
	<g>
		<g>
			<g>
				<path fill="#FC70B0" d="M-802.901,209.844c0,7.237-5.862,13.099-13.095,13.099h-81.86c-7.233,0-13.099-5.862-13.099-13.099
					v-5.689c0-7.233,5.862-13.103,13.099-13.103h81.856c7.233,0,13.095,5.87,13.095,13.103v5.689H-802.901z"/>
			</g>
			<g>
				<path fill="#FFA9D4" d="M-897.856,191.052c-5.412,0-10.058,3.291-12.053,7.98c1.995,4.689,6.641,7.968,12.053,7.968h81.856
					c5.412,0,10.058-3.279,12.053-7.968c-1.995-4.689-6.641-7.98-12.053-7.98H-897.856z"/>
			</g>
			<g>
				<path fill="#33363A" d="M-816.001,228.869h-81.856c-10.488,0-19.021-8.537-19.021-19.025v-5.689
					c0-10.492,8.533-19.029,19.021-19.029h81.856c10.488,0,19.021,8.537,19.021,19.029v5.685
					C-796.976,220.336-805.512,228.869-816.001,228.869z M-897.856,196.977c-3.954,0-7.17,3.22-7.17,7.178v5.685
					c0,3.954,3.216,7.174,7.17,7.174h81.856c3.954,0,7.17-3.22,7.17-7.174v-5.685c0-3.958-3.216-7.178-7.17-7.178H-897.856z"/>
			</g>
		</g>
		<g>
			<g>
				<path fill="#FC70B0" d="M-819.271,241.727c0,7.229-5.866,13.103-13.099,13.103h-81.852c-7.237,0-13.099-5.874-13.099-13.103
					v-5.681c0-7.237,5.862-13.099,13.099-13.099h81.856c7.229,0,13.099,5.862,13.099,13.099v5.681H-819.271z"/>
			</g>
			<g>
				<path fill="#FFA9D4" d="M-914.223,222.943c-5.416,0-10.062,3.287-12.06,7.968c1.999,4.685,6.645,7.976,12.06,7.976h81.856
					c5.416,0,10.058-3.295,12.053-7.976c-1.995-4.681-6.637-7.968-12.053-7.968C-832.367,222.943-914.223,222.943-914.223,222.943z"
					/>
			</g>
			<g>
				<path fill="#33363A" d="M-832.367,260.76h-81.856c-10.492,0-19.025-8.537-19.025-19.029v-5.681
					c0-10.492,8.533-19.025,19.025-19.025h81.856c10.488,0,19.021,8.537,19.021,19.025v5.681
					C-813.346,252.219-821.879,260.76-832.367,260.76z M-914.223,228.869c-3.958,0-7.174,3.22-7.174,7.174v5.681
					c0,3.958,3.216,7.178,7.174,7.178h81.856c3.954,0,7.17-3.22,7.17-7.178v-5.681c0-3.954-3.216-7.174-7.17-7.174H-914.223z"/>
			</g>
		</g>
		<g>
			<g>
				<path fill="#FC70B0" d="M-835.65,273.618c0,7.229-5.862,13.092-13.092,13.092h-81.859c-7.233,0-13.096-5.862-13.096-13.092
					v-5.692c0-7.237,5.862-13.092,13.096-13.092h81.86c7.229,0,13.091,5.854,13.091,13.092V273.618L-835.65,273.618z"/>
			</g>
			<g>
				<path fill="#FFA9D4" d="M-930.601,254.834c-5.412,0-10.058,3.279-12.049,7.972c1.991,4.685,6.637,7.972,12.049,7.972h81.86
					c5.412,0,10.062-3.287,12.053-7.972c-1.991-4.693-6.641-7.972-12.053-7.972H-930.601z"/>
			</g>
			<g>
				<path fill="#33363A" d="M-848.741,292.639h-81.86c-10.488,0-19.021-8.533-19.021-19.017v-5.692
					c0-10.488,8.533-19.017,19.021-19.017h81.86c10.484,0,19.017,8.533,19.017,19.017v5.692
					C-829.72,284.107-838.257,292.639-848.741,292.639z M-930.601,260.76c-3.954,0-7.17,3.216-7.17,7.166v5.692
					c0,3.95,3.216,7.166,7.17,7.166h81.86c3.954,0,7.166-3.216,7.166-7.166v-5.693c0-3.95-3.212-7.166-7.166-7.166H-930.601
					L-930.601,260.76z"/>
			</g>
		</g>
	</g>
	<g>
		<g>
			<path fill="#FC70B0" d="M-793.294,132.958c-2.54-5.894-8.335-9.706-14.751-9.706h-317.136c-8.869,0-16.058,7.19-16.058,16.054
				v131.346c0,8.869,7.186,16.058,16.058,16.058h192.928c4.413,0,8.635-1.821,11.665-5.029l124.211-131.35
				C-791.97,145.69-790.758,138.844-793.294,132.958z"/>
		</g>
		<g>
			<path fill="#E2378D" d="M-1125.18,286.714h192.928c4.413,0,8.635-1.821,11.665-5.029L-799.5,153.642
				c-2.512-1.58-5.452-2.485-8.545-2.485h-317.136c-8.869,0-16.058,7.182-16.058,16.05v103.444
				C-1141.239,279.524-1134.053,286.714-1125.18,286.714z"/>
		</g>
		<g>
			<path fill="#33363A" d="M-932.256,292.639h-192.924c-12.12,0-21.98-9.864-21.98-21.984v-131.35
				c-0.004-12.12,9.856-21.98,21.98-21.98h317.136c8.794,0,16.718,5.214,20.194,13.289l0,0c3.48,8.082,1.821,17.421-4.227,23.797
				l-124.208,131.342C-920.413,290.131-926.236,292.639-932.256,292.639z M-1125.18,129.177c-5.586,0-10.129,4.543-10.129,10.129
				v131.346c0,5.59,4.543,10.133,10.129,10.133h192.928c2.769,0,5.452-1.157,7.356-3.176l124.215-131.35
				c2.785-2.939,3.547-7.237,1.944-10.958l0,0c-1.6-3.721-5.254-6.123-9.307-6.123H-1125.18L-1125.18,129.177z"/>
		</g>
	</g>
	<g>
		<g>
			<path fill="#7815CE" d="M-877.836,160.618c-1.564-3.642-5.135-5.997-9.09-5.997h-195.389c-5.463,0-9.896,4.436-9.896,9.9v80.927
				c0,5.455,4.432,9.876,9.896,9.876h118.859c2.722,0,5.325-1.11,7.186-3.085l76.527-80.919
				C-877.022,168.456-876.279,164.237-877.836,160.618z"/>
		</g>
		<g>
			<path fill="#A02FF2" d="M-1082.315,255.328h118.859c2.722,0,5.325-1.11,7.186-3.085l74.607-78.893
				c-1.545-0.972-3.362-1.529-5.262-1.529h-195.389c-5.463,0-9.896,4.428-9.896,9.896v63.735
				C-1092.21,250.904-1087.778,255.328-1082.315,255.328z"/>
		</g>
		<g>
			<path fill="#33363A" d="M-963.456,261.254h-118.859c-8.722,0-15.821-7.087-15.821-15.801v-80.931
				c0-8.726,7.099-15.825,15.821-15.825h195.389c6.325,0,12.029,3.761,14.533,9.576l0,0l0,0c2.505,5.815,1.304,12.538-3.05,17.125
				l-76.519,80.911C-954.923,259.448-959.115,261.254-963.456,261.254z M-1082.315,160.547c-2.188,0-3.97,1.782-3.97,3.974v80.927
				c0,2.177,1.782,3.95,3.97,3.95h118.859c1.09,0,2.141-0.446,2.88-1.229l76.531-80.927c1.094-1.154,1.398-2.832,0.766-4.286l0,0
				c-0.628-1.466-2.058-2.41-3.646-2.41C-886.926,160.547-1082.315,160.547-1082.315,160.547z"/>
		</g>
	</g>
	<g>
		<path fill="#7815CE" d="M-1020.642,221.134c0,5.839-4.736,10.583-10.575,10.583h-24.69c-5.839,0-10.575-4.744-10.575-10.583
			v-24.678c0-5.847,4.736-10.587,10.575-10.587h24.69c5.835,0,10.575,4.736,10.575,10.587V221.134z"/>
	</g>
	<g>
		
			<path fill="none" stroke="#33363A" stroke-width="2.5315" stroke-linecap="round" stroke-linejoin="round" stroke-miterlimit="10" d="
			M-1020.642,194.271"/>
	</g>
	<path fill="#33363A" d="M-943.696,170.672h-43.237c-3.271,0-5.926,2.651-5.926,5.926s2.655,5.926,5.926,5.926h11.717
		l-27.728,27.716h-11.772V196.46c0-9.106-7.403-16.513-16.501-16.513h-24.69c-9.098,0-16.501,7.407-16.501,16.513v24.678
		c0,9.102,7.403,16.509,16.501,16.509h24.69c8.77,0,15.9-6.901,16.402-15.557h14.32c1.568,0,3.077-0.624,4.191-1.734l37.236-37.22
		c0.182-0.182,0.253-0.415,0.407-0.612h14.964c3.271,0,5.926-2.651,5.926-5.926S-940.425,170.672-943.696,170.672z
		 M-1026.567,221.134c0,2.568-2.086,4.658-4.65,4.658h-24.69c-2.56,0-4.65-2.09-4.65-4.658v-24.678c0-2.568,2.086-4.661,4.65-4.661
		h24.69c2.56,0,4.65,2.09,4.65,4.661V221.134z"/>
	<g>
		
			<path fill="none" stroke="#33363A" stroke-width="2.5315" stroke-linecap="round" stroke-linejoin="round" stroke-miterlimit="10" d="
			M-927.049,194.876"/>
	</g>
	<g>
		<path fill="#33363A" d="M-953.24,219.498h-15.284c-3.271,0-5.926-2.651-5.926-5.926s2.655-5.926,5.926-5.926h15.284
			c3.271,0,5.926,2.651,5.926,5.926S-949.969,219.498-953.24,219.498z"/>
	</g>
</g>
</svg>
