<?xml version="1.0" encoding="utf-8"?>
<!-- Generator: Adobe Illustrator 17.0.0, SVG Export Plug-In . SVG Version: 6.00 Build 0)  -->
<!DOCTYPE svg PUBLIC "-//W3C//DTD SVG 1.1//EN" "http://www.w3.org/Graphics/SVG/1.1/DTD/svg11.dtd">
<svg version="1.1" id="Layer_1" xmlns="http://www.w3.org/2000/svg" xmlns:xlink="http://www.w3.org/1999/xlink" x="0px" y="0px"
	 width="595.282px" height="471.294px" viewBox="0 123.305 595.282 471.294" enable-background="new 0 123.305 595.282 471.294"
	 xml:space="preserve">
<g>
	<path fill="#333399" d="M595.282,420.946c0-164.383-133.258-297.641-297.641-297.641S0,256.563,0,420.946
		C0,479.502,16.921,534.1,46.122,580.141H549.16C578.361,534.1,595.282,479.502,595.282,420.946z"/>
</g>
<g>
	<path fill="#666666" d="M57.388,273.771h430.79c14.153,0,25.733,11.579,25.733,25.733v265.373H31.656V299.504
		C31.656,285.351,43.235,273.771,57.388,273.771z"/>
	<path fill="#FFFFFF" d="M49.129,547.402h447.31V299.504c0-4.507-3.752-8.258-8.258-8.258H57.391c-4.506,0-8.258,3.752-8.258,8.258
		v247.898H49.129L49.129,547.402z"/>
	<path fill="#ECF0F1" d="M58.387,326.61h428.796v99.261H58.387V326.61z"/>
	<path fill="#B6B6B8" d="M8.234,564.877h529.1v14.861c0,8.172-6.689,14.861-14.861,14.861H23.092
		c-8.172,0-14.861-6.689-14.861-14.861v-14.861H8.234z"/>
	<path fill="#919191" d="M219.975,570.308h105.616l-11.314,7.514h-82.991l-11.314-7.514H219.975z"/>
	<path fill="#666666" d="M384.99,367.213h158.231c5.018,0,9.085,4.067,9.085,9.085v209.215c0,5.018-4.067,9.085-9.085,9.085H384.99
		c-5.018,0-9.085-4.067-9.085-9.085V376.298C375.905,371.28,379.973,367.213,384.99,367.213z"/>
	<path fill="#FFFFFF" d="M386.951,383.305h154.313c0.583,0,1.055,0.472,1.055,1.055v187.896c0,0.583-0.472,1.055-1.055,1.055
		H386.951c-0.583,0-1.055-0.472-1.055-1.055V384.361C385.896,383.778,386.368,383.305,386.951,383.305z"/>
	<circle fill="#B6B6B8" cx="464.11" cy="583.574" r="5.925"/>
	<path fill="#ECF0F1" d="M394.13,406.841h139.958v82.491H394.13V406.841z"/>
	<path fill="#666666" d="M509.13,448.599h73.307c2.547,0,4.611,2.065,4.611,4.611v136.778c0,2.547-2.065,4.611-4.611,4.611H509.13
		c-2.547,0-4.611-2.065-4.611-4.611V453.21C504.519,450.664,506.583,448.599,509.13,448.599z"/>
	<path fill="#FFFFFF" d="M512.564,462.265h66.44c0.251,0,0.455,0.203,0.455,0.455v117.757c0,0.251-0.203,0.455-0.455,0.455h-66.44
		c-0.251,0-0.455-0.203-0.455-0.455V462.719C512.109,462.469,512.314,462.265,512.564,462.265z"/>
	<g>
		<circle fill="#B6B6B8" cx="545.789" cy="587.148" r="4.169"/>
		<path fill="#B6B6B8" d="M534.631,456.124h22.305c0.563,0,1.019,0.456,1.019,1.018v0.003c0,0.563-0.456,1.019-1.019,1.019h-22.305
			c-0.563,0-1.018-0.456-1.018-1.019v-0.003C533.612,456.58,534.068,456.124,534.631,456.124z"/>
	</g>
	<path fill="#21D0C3" d="M496.441,318.885H49.129v-19.382c0-4.507,3.752-8.258,8.258-8.258h430.79c4.506,0,8.258,3.752,8.258,8.258
		v19.38h0.005v0.002H496.441z"/>
	<path fill="#FFFFFF" d="M240.021,299.156h229.136c1.689,0,3.065,1.379,3.065,3.065v5.687c0,1.689-1.379,3.065-3.065,3.065H240.021
		c-1.689,0-3.065-1.379-3.065-3.065v-5.687C236.957,300.535,238.334,299.156,240.021,299.156z"/>
	<g>
		<path fill="#ECF0F1" d="M68.16,298.946c3.827,0,6.932,3.102,6.932,6.932c0,3.83-3.104,6.932-6.932,6.932
			c-3.831,0-6.938-3.102-6.938-6.932C61.222,302.048,64.327,298.946,68.16,298.946z"/>
		<path fill="#ECF0F1" d="M95.524,298.946c3.831,0,6.932,3.102,6.932,6.932c0,3.83-3.102,6.932-6.932,6.932
			c-3.827,0-6.932-3.102-6.932-6.932C88.593,302.048,91.697,298.946,95.524,298.946z"/>
		<path fill="#ECF0F1" d="M122.896,298.946c3.827,0,6.932,3.102,6.932,6.932c0,3.83-3.104,6.932-6.932,6.932
			c-3.834,0-6.938-3.102-6.938-6.932C115.958,302.048,119.061,298.946,122.896,298.946z"/>
	</g>
	<path fill="#FF5B62" d="M105.976,449.819c11.049,0,20.002,8.954,20.002,20.002c0,11.045-8.954,20.002-20.002,20.002
		c-11.045,0-19.999-8.957-19.999-20.002C85.977,458.772,94.93,449.819,105.976,449.819z"/>
	<path fill="#21D0C3" d="M209.313,449.819c11.045,0,19.999,8.954,19.999,20.002c0,11.045-8.954,20.002-19.999,20.002
		s-19.999-8.957-19.999-20.002C189.314,458.772,198.268,449.819,209.313,449.819z"/>
	<g>
		<path fill="#DCE3DB" d="M77.279,498.399h57.401v3.114H77.279V498.399z M77.279,517.967h38.554v3.114H77.279V517.967z
			 M77.279,508.184h57.401v3.111H77.279C77.279,511.296,77.279,508.184,77.279,508.184z"/>
		<path fill="#DCE3DB" d="M180.617,498.399h57.397v3.114h-57.397V498.399z M180.617,517.967h38.557v3.114h-38.557V517.967z
			 M180.617,508.184h57.397v3.111h-57.397V508.184z"/>
	</g>
	<path fill="#FAD24D" d="M319.005,449.819c11.045,0,19.999,8.954,19.999,20.002c0,11.045-8.954,20.002-19.999,20.002
		s-19.999-8.957-19.999-20.002C299.004,458.772,307.958,449.819,319.005,449.819z"/>
	<path fill="#DCE3DB" d="M290.308,498.399h57.397v3.114h-57.397V498.399L290.308,498.399z M290.308,517.967h38.557v3.114h-38.557
		V517.967L290.308,517.967z M290.308,508.184h57.397v3.111h-57.397V508.184L290.308,508.184z"/>
	<path fill="#FF5B62" d="M422.004,501.215c6.855,0,12.415,5.56,12.415,12.415c0,6.855-5.556,12.415-12.415,12.415
		c-6.855,0-12.415-5.56-12.415-12.415C409.589,506.774,415.146,501.215,422.004,501.215z"/>
	<path fill="#DCE3DB" d="M404.191,531.37h35.626v2.52h-35.626V531.37z M404.191,547.201h23.931v2.519h-23.931V547.201z
		 M404.191,539.283h35.626v2.52h-35.626V539.283z"/>
	<path fill="#21D0C3" d="M470.46,501.215c6.855,0,12.415,5.56,12.415,12.415c0,6.855-5.56,12.415-12.415,12.415
		s-12.415-5.56-12.415-12.415C458.045,506.774,463.605,501.215,470.46,501.215z"/>
	<path fill="#DCE3DB" d="M452.647,531.37h35.626v2.52h-35.626V531.37z M452.647,547.201h23.931v2.519h-23.931V547.201z
		 M452.647,539.283h35.626v2.52h-35.626V539.283z"/>
	<path fill="#21D0C3" d="M542.32,401.379H385.893v-17.017c0-0.582,0.472-1.055,1.055-1.055H541.26c0.583,0,1.055,0.472,1.055,1.055
		v17.017H542.32z"/>
	<g>
		<path fill="#ECF0F1" d="M397.488,388.448c2.251,0,4.072,1.821,4.072,4.068c0,2.247-1.821,4.068-4.072,4.068
			c-2.247,0-4.068-1.821-4.068-4.068C393.42,390.268,395.243,388.448,397.488,388.448z"/>
		<path fill="#ECF0F1" d="M408.942,388.448c2.247,0,4.068,1.821,4.068,4.068c0,2.247-1.821,4.068-4.068,4.068
			c-2.247,0-4.068-1.821-4.068-4.068C404.874,390.268,406.695,388.448,408.942,388.448z"/>
		<path fill="#ECF0F1" d="M420.397,388.448c2.247,0,4.068,1.821,4.068,4.068c0,2.247-1.821,4.068-4.068,4.068
			c-2.247,0-4.068-1.821-4.068-4.068C416.329,390.268,418.152,388.448,420.397,388.448z"/>
	</g>
	<path fill="#FFFFFF" d="M443.229,389.357h93.023c0.686,0,1.244,0.738,1.244,1.641v3.044c0,0.902-0.558,1.641-1.244,1.641h-93.023
		c-0.686,0-1.244-0.738-1.244-1.641v-3.044C441.985,390.095,442.543,389.357,443.229,389.357z"/>
	<path fill="#21D0C3" d="M579.458,470.161h-67.35v-7.441c0-0.253,0.205-0.455,0.455-0.455h66.44c0.251,0,0.455,0.201,0.455,0.455
		L579.458,470.161L579.458,470.161z"/>
	<path fill="#FFFFFF" d="M516.867,463.601c1.287,0,2.326,1.039,2.326,2.327c0,1.284-1.039,2.327-2.326,2.327
		c-1.284,0-2.326-1.043-2.326-2.327C514.54,464.64,515.583,463.601,516.867,463.601z"/>
	<g>
		<path fill="#ECF0F1" d="M523.415,463.601c1.287,0,2.326,1.039,2.326,2.327c0,1.284-1.039,2.327-2.326,2.327
			s-2.327-1.043-2.327-2.327C521.088,464.64,522.13,463.601,523.415,463.601z"/>
		<path fill="#ECF0F1" d="M529.962,463.601c1.287,0,2.326,1.039,2.326,2.327c0,1.284-1.039,2.327-2.326,2.327
			c-1.284,0-2.327-1.043-2.327-2.327C527.635,464.64,528.678,463.601,529.962,463.601z"/>
	</g>
	<path fill="#FFFFFF" d="M539.419,463.902h37.447c0.502,0,0.908,0.407,0.908,0.908v2.433c0,0.502-0.407,0.908-0.908,0.908h-37.447
		c-0.502,0-0.908-0.407-0.908-0.908v-2.433C538.511,464.31,538.918,463.902,539.419,463.902z"/>
	<path fill="#ECF0F1" d="M515.376,472.71h60.817v35.846h-60.817V472.71L515.376,472.71z"/>
	<path fill="#FAD24D" d="M547.57,515.906c6.234,0,11.287,5.053,11.287,11.289c0,6.234-5.053,11.289-11.287,11.289
		s-11.287-5.053-11.287-11.289C536.284,520.961,541.337,515.906,547.57,515.906z"/>
	<path fill="#DCE3DB" d="M527.979,546.705h39.182v2.768h-39.182V546.705z M527.979,564.118h26.323v2.768h-26.323V564.118z
		 M527.979,555.411h39.182v2.768h-39.182V555.411z"/>
	<path fill="#B6B6B8" d="M444.324,373.677h39.569c0.563,0,1.018,0.456,1.018,1.018v0.004c0,0.563-0.456,1.018-1.018,1.018h-39.569
		c-0.563,0-1.018-0.456-1.018-1.018v-0.004C443.306,374.134,443.762,373.677,444.324,373.677z"/>
</g>
</svg>
