<?xml version="1.0" encoding="utf-8"?>
<!-- Generator: Adobe Illustrator 17.0.0, SVG Export Plug-In . SVG Version: 6.00 Build 0)  -->
<!DOCTYPE svg PUBLIC "-//W3C//DTD SVG 1.1//EN" "http://www.w3.org/Graphics/SVG/1.1/DTD/svg11.dtd">
<svg version="1.1" id="Layer_1" xmlns="http://www.w3.org/2000/svg" xmlns:xlink="http://www.w3.org/1999/xlink" x="0px" y="0px"
	 width="595.282px" height="471.294px" viewBox="-621.859 128.141 595.282 471.294"
	 enable-background="new -621.859 128.141 595.282 471.294" xml:space="preserve">
<g>
	<path fill="#21D0C3" d="M-36.901,452.056c0-152.182-123.368-275.55-275.55-275.55S-588,299.874-588,452.056
		c0,54.21,15.665,104.756,42.699,147.379H-79.6C-52.565,556.811-36.901,506.265-36.901,452.056z"/>
</g>
<g>
	<g>
		<path fill="#333E48" d="M-273.979,255.172c-4.27,0-7.732-3.462-7.732-7.732v-60.927c0-4.272,3.462-7.734,7.732-7.734
			c4.272,0,7.734,3.462,7.734,7.734v60.927C-266.246,251.71-269.708,255.172-273.979,255.172z"/>
		<path fill="#333E48" d="M-313.816,255.172c-4.27,0-7.734-3.462-7.734-7.732v-60.927c0-4.272,3.464-7.734,7.734-7.734
			s7.732,3.462,7.732,7.734v60.927C-306.084,251.71-309.546,255.172-313.816,255.172z"/>
		<path fill="#333E48" d="M-353.652,255.172c-4.272,0-7.734-3.462-7.734-7.732v-60.927c0-4.272,3.462-7.734,7.734-7.734
			c4.27,0,7.732,3.462,7.732,7.734v60.927C-345.919,251.71-349.381,255.172-353.652,255.172z"/>
		<path fill="#333E48" d="M-393.489,255.172c-4.27,0-7.732-3.462-7.732-7.732v-60.927c0-4.272,3.462-7.734,7.732-7.734
			c4.272,0,7.734,3.462,7.734,7.734v60.927C-385.755,251.71-389.217,255.172-393.489,255.172z"/>
		<path fill="#333E48" d="M-234.141,255.172c-4.272,0-7.734-3.462-7.734-7.732v-60.927c0-4.272,3.462-7.734,7.734-7.734
			c4.27,0,7.732,3.462,7.732,7.734v60.927C-226.409,251.71-229.873,255.172-234.141,255.172z"/>
		<path fill="#333E48" d="M-194.306,255.172c-4.27,0-7.734-3.462-7.734-7.732v-60.927c0-4.272,3.464-7.734,7.734-7.734
			c4.27,0,7.734,3.462,7.734,7.734v60.927C-186.572,251.71-190.037,255.172-194.306,255.172z"/>
		<path fill="#333E48" d="M-154.47,255.172c-4.27,0-7.732-3.462-7.732-7.732v-60.927c0-4.272,3.462-7.734,7.732-7.734
			c4.272,0,7.734,3.462,7.734,7.734v60.927C-146.736,251.71-150.198,255.172-154.47,255.172z"/>
	</g>
	<g>
		<path fill="#333E48" d="M-281.711,595.19c0-4.272,3.462-7.732,7.732-7.732c4.272,0,7.734,3.462,7.734,7.732"/>
		<path fill="#333E48" d="M-241.875,595.19c0-4.272,3.462-7.732,7.734-7.732c4.27,0,7.732,3.462,7.732,7.732"/>
		<path fill="#333E48" d="M-202.039,595.19c0-4.272,3.464-7.732,7.734-7.732c4.27,0,7.734,3.462,7.734,7.732"/>
		<path fill="#333E48" d="M-162.202,595.19c0-4.272,3.462-7.732,7.732-7.732c4.272,0,7.734,3.462,7.734,7.732"/>
		<path fill="#333E48" d="M-321.55,595.19c0-4.272,3.464-7.732,7.734-7.732s7.732,3.462,7.732,7.732"/>
		<path fill="#333E48" d="M-361.385,595.19c0-4.272,3.462-7.732,7.734-7.732c4.27,0,7.732,3.462,7.732,7.732"/>
		<path fill="#333E48" d="M-401.221,595.19c0-4.272,3.462-7.732,7.732-7.732c4.272,0,7.734,3.462,7.734,7.732"/>
	</g>
	<g>
		<path fill="#333E48" d="M-37.77,429.048h-60.928c-4.27,0-7.732-3.462-7.732-7.732c0-4.272,3.462-7.732,7.732-7.732h60.928
			c4.272,0,7.734,3.462,7.734,7.732C-30.036,425.588-33.498,429.048-37.77,429.048z"/>
		<path fill="#333E48" d="M-37.77,389.212h-60.928c-4.27,0-7.732-3.462-7.732-7.732c0-4.27,3.462-7.732,7.732-7.732h60.928
			c4.272,0,7.734,3.462,7.734,7.732S-33.498,389.212-37.77,389.212z"/>
		<path fill="#333E48" d="M-37.77,349.377h-60.928c-4.27,0-7.732-3.462-7.732-7.734c0-4.27,3.462-7.732,7.732-7.732h60.928
			c4.272,0,7.734,3.462,7.734,7.732C-30.036,345.913-33.498,349.377-37.77,349.377z"/>
		<path fill="#333E48" d="M-37.77,309.539h-60.928c-4.27,0-7.732-3.462-7.732-7.732c0-4.272,3.462-7.732,7.732-7.732h60.928
			c4.272,0,7.734,3.462,7.734,7.732S-33.498,309.539-37.77,309.539z"/>
		<path fill="#333E48" d="M-37.77,468.885h-60.928c-4.27,0-7.732-3.462-7.732-7.732c0-4.272,3.462-7.732,7.732-7.732h60.928
			c4.272,0,7.734,3.462,7.734,7.732C-30.036,465.423-33.498,468.885-37.77,468.885z"/>
		<path fill="#333E48" d="M-37.77,508.723h-60.928c-4.27,0-7.732-3.464-7.732-7.734c0-4.272,3.462-7.734,7.732-7.734h60.928
			c4.272,0,7.734,3.462,7.734,7.734C-30.036,505.259-33.498,508.723-37.77,508.723z"/>
		<path fill="#333E48" d="M-37.77,548.558h-60.928c-4.27,0-7.732-3.462-7.732-7.732c0-4.272,3.462-7.732,7.732-7.732h60.928
			c4.272,0,7.734,3.462,7.734,7.732C-30.036,545.096-33.498,548.558-37.77,548.558z"/>
	</g>
	<path fill="#212172" d="M-104.642,252.051c0-11.599-9.49-21.09-21.09-21.09h-338.527c-11.599,0-21.088,9.49-21.088,21.09v338.527
		c0,11.599,9.489,21.09,21.088,21.09h338.527c11.601,0,21.09-9.49,21.09-21.09V252.051z"/>
	<g>
		<path fill="#333E48" d="M-477.381,429.048h-60.927c-4.272,0-7.734-3.462-7.734-7.732c0-4.272,3.462-7.732,7.734-7.732h60.929
			c4.27,0,7.732,3.462,7.732,7.732C-469.649,425.588-473.111,429.048-477.381,429.048z"/>
		<path fill="#333E48" d="M-477.381,468.885h-60.927c-4.272,0-7.734-3.462-7.734-7.732c0-4.272,3.462-7.732,7.734-7.732h60.929
			c4.27,0,7.732,3.462,7.732,7.732C-469.649,465.423-473.111,468.885-477.381,468.885z"/>
		<path fill="#333E48" d="M-477.381,508.723h-60.927c-4.272,0-7.734-3.464-7.734-7.734c0-4.272,3.462-7.734,7.734-7.734h60.929
			c4.27,0,7.732,3.462,7.732,7.734C-469.649,505.259-473.111,508.723-477.381,508.723z"/>
		<path fill="#333E48" d="M-477.381,548.558h-60.927c-4.272,0-7.734-3.462-7.734-7.732c0-4.272,3.462-7.732,7.734-7.732h60.929
			c4.27,0,7.732,3.462,7.732,7.732C-469.649,545.096-473.111,548.558-477.381,548.558z"/>
		<path fill="#333E48" d="M-477.381,389.212h-60.927c-4.272,0-7.734-3.462-7.734-7.732c0-4.27,3.462-7.732,7.734-7.732h60.929
			c4.27,0,7.732,3.462,7.732,7.732C-469.649,385.75-473.111,389.212-477.381,389.212z"/>
		<path fill="#333E48" d="M-477.381,349.377h-60.927c-4.272,0-7.734-3.462-7.734-7.734c0-4.27,3.462-7.732,7.734-7.732h60.929
			c4.27,0,7.732,3.462,7.732,7.732C-469.649,345.913-473.111,349.377-477.381,349.377z"/>
		<path fill="#333E48" d="M-477.381,309.539h-60.927c-4.272,0-7.734-3.462-7.734-7.732c0-4.272,3.462-7.732,7.734-7.732h60.929
			c4.27,0,7.732,3.462,7.732,7.732C-469.649,306.077-473.111,309.539-477.381,309.539z"/>
	</g>
	<path fill="#333399" d="M-78.001,252.051c0-11.599-9.492-21.09-21.09-21.09h-338.527c-11.599,0-21.09,9.49-21.09,21.09v338.527
		c0,11.599,9.492,21.09,21.09,21.09h338.527c11.599,0,21.09-9.49,21.09-21.09L-78.001,252.051L-78.001,252.051z"/>
	<path fill="#C3C6C8" d="M-135.719,303.13c0-15.466-12.654-28.121-28.121-28.121h-222.703c-15.466,0-28.119,12.653-28.119,28.121
		v210.792c0,15.466,12.653,28.121,28.119,28.121h222.702c15.466,0,28.121-12.654,28.121-28.121V303.13H-135.719z"/>
	<rect x="-106.429" y="275.009" fill="#FFC843" width="28.428" height="180.521"/>
	<rect x="-378.12" y="342.029" fill="#333E48" width="205.856" height="30.27"/>
	<rect x="-358.152" y="388.235" fill="#333E48" width="165.92" height="15.134"/>
</g>
</svg>
