<!-- Generator: Adobe Illustrator 17.0.0, SVG Export Plug-In  -->
<svg version="1.1"
	 xmlns="http://www.w3.org/2000/svg" xmlns:xlink="http://www.w3.org/1999/xlink" xmlns:a="http://ns.adobe.com/AdobeSVGViewerExtensions/3.0/"
	 x="0px" y="0px" width="1200.021px" height="1031.476px" viewBox="0 0 1200.021 1031.476"
	 enable-background="new 0 0 1200.021 1031.476" xml:space="preserve">
<defs>
</defs>
<g opacity="0.1">
	<path fill="#FBD490" d="M1199.832,421.015h-1.621c0-232.515-268.594-420.994-599.916-420.994S0,188.5,0,421.015
		c0,0,0.337,198.625,0.337,198.667c0,232.515,266.636,411.795,597.979,411.795s601.705-187.826,601.705-420.341
		C1200,611.093,1199.832,421.015,1199.832,421.015z M610.441,526.263c-95.229,0-175.596-37.974-201.593-90.029
		c56.245-25.302,125.877-40.479,201.593-40.479s145.348,15.177,201.593,40.479C786.037,488.289,705.669,526.263,610.441,526.263z"/>
	<path fill="#D85C81" d="M0,421.015c0,0,0.126,80.557,0.232,139.096c1.2,16.292,14.756,29.301,31.343,29.301
		c16.208,0,29.512-12.419,31.238-28.186c0.105,0.126,0.232,0.253,0.337,0.358v101.48c0,17.366,14.209,31.575,31.575,31.575
		s31.575-14.208,31.575-31.575v84.199c0,17.366,14.209,31.575,31.575,31.575s31.575-14.209,31.575-31.575v-42.099
		c0,17.366,14.209,31.575,31.575,31.575s31.575-14.209,31.575-31.575v105.248c0,17.366,14.209,31.575,31.574,31.575
		c17.366,0,31.575-14.208,31.575-31.575v-42.099c0,17.366,14.209,31.574,31.575,31.574s31.575-14.208,31.575-31.574v73.674
		c0,23.155,18.945,42.099,42.099,42.099c23.155,0,42.099-18.945,42.099-42.099v-31.575c0,17.366,14.209,31.575,31.575,31.575
		c17.366,0,31.575-14.208,31.575-31.575v73.674c0,23.155,18.945,42.099,42.099,42.099c23.155,0,42.099-18.945,42.099-42.099v-84.199
		c0,23.155,18.945,42.099,42.099,42.099c23.155,0,42.099-18.945,42.099-42.099v31.575c0,17.366,14.208,31.575,31.575,31.575
		c17.366,0,31.575-14.208,31.575-31.575v-73.674c0,23.155,18.945,42.099,42.099,42.099c23.155,0,42.099-18.945,42.099-42.099v73.674
		c0,17.366,14.209,31.575,31.575,31.575c17.366,0,31.575-14.208,31.575-31.575V726.214c0,17.366,14.208,31.575,31.575,31.575
		c17.366,0,31.575-14.209,31.575-31.575v21.05c0,17.366,14.208,31.575,31.575,31.575c17.366,0,31.575-14.209,31.575-31.575v-84.199
		c0,17.366,14.208,31.575,31.574,31.575s31.575-14.208,31.575-31.575v-63.149c0,17.366,14.229,32.248,31.574,31.575
		c61.612-2.421,72.916-81.82,73.737-143.58c0-6.694-0.021-13.156-0.021-19.282c-0.379-21.681-1.663-39.342-1.663-47.635
		C1198.211,188.479,929.617,0,598.295,0S0,188.5,0,421.015z M610.441,395.755c75.716,0,145.348,15.177,201.593,40.479
		c-25.996,52.056-106.364,90.029-201.593,90.029s-175.596-37.974-201.593-90.029C465.093,410.932,534.725,395.755,610.441,395.755z"
		/>
	<g>
		<path fill="#FBD490" d="M612.293,273.667c-116.257,0-210.497,56.539-210.497,126.298c0,12.609,3.389,24.691,9.157,36.163
			c56.203-25.239,125.73-40.373,201.34-40.373s145.116,15.135,201.34,40.373c5.768-11.472,9.157-23.555,9.157-36.163
			C822.79,330.206,728.55,273.667,612.293,273.667z"/>
	</g>
	<path fill="#A4E869" d="M262.616,517.506c-9.283,0-17.766-6.168-20.313-15.556c-3.031-11.198,3.599-22.776,14.819-25.807
		l90.871-24.586c11.177-3.157,22.797,3.578,25.828,14.819c3.031,11.198-3.599,22.776-14.819,25.807l-90.871,24.586
		C266.278,517.275,264.426,517.506,262.616,517.506z"/>
	<path fill="#FFFFFF" d="M595.727,675.105c-2.189,0-4.442-0.358-6.652-1.095l-63.149-21.05
		c-11.03-3.663-16.987-15.577-13.303-26.628c3.684-11.009,15.577-17.029,26.628-13.303l63.149,21.05
		c11.03,3.663,16.987,15.577,13.303,26.628C612.756,669.527,604.547,675.105,595.727,675.105z"/>
	<path fill="#A4E869" d="M1002.701,524.158c-11.619,0-21.05-9.409-21.05-21.05V418.91c0-11.64,9.43-21.05,21.05-21.05
		c11.619,0,21.05,9.409,21.05,21.05v84.199C1023.751,514.749,1014.321,524.158,1002.701,524.158z"/>
	<path fill="#48A0DC" d="M506.076,179.154c-5.768,0-11.514-2.358-15.661-6.988l-44.499-49.53c-7.767-8.63-7.052-21.955,1.579-29.722
		c8.651-7.725,21.976-7.031,29.722,1.6l44.499,49.53c7.767,8.63,7.052,21.955-1.579,29.722
		C516.117,177.365,511.086,179.154,506.076,179.154z"/>
	<path fill="#48A0DC" d="M1049.705,305.241c-2.189,0-4.442-0.358-6.652-1.095l-63.149-21.05
		c-11.03-3.663-16.987-15.577-13.303-26.628c3.663-11.009,15.577-17.029,26.628-13.303l63.149,21.05
		c11.03,3.663,16.987,15.577,13.303,26.628C1066.734,299.663,1058.525,305.241,1049.705,305.241z"/>
	<path fill="#A4E869" d="M756.252,615.893c-0.421,0-0.842-0.021-1.263-0.042c-11.598-0.674-20.46-10.651-19.766-22.249l1.747-29.701
		c0.674-11.619,10.693-20.271,22.249-19.766c11.598,0.674,20.46,10.651,19.766,22.25l-1.747,29.701
		C776.586,607.262,767.324,615.893,756.252,615.893z"/>
	<path fill="#D75A4A" d="M921.997,664.58c-5.389,0-10.777-2.063-14.882-6.168l-21.05-21.05c-8.23-8.23-8.23-21.534,0-29.764
		c8.23-8.23,21.534-8.23,29.764,0l21.05,21.05c8.23,8.23,8.23,21.534,0,29.764C932.774,662.518,927.386,664.58,921.997,664.58z"/>
	<path fill="#48A0DC" d="M329.112,675.105c-5.389,0-10.777-2.063-14.882-6.168l-21.05-21.05c-8.23-8.23-8.23-21.534,0-29.764
		c8.23-8.23,21.534-8.23,29.764,0l21.05,21.05c8.23,8.23,8.23,21.534,0,29.764C339.868,673.042,334.5,675.105,329.112,675.105z"/>
	<path fill="#A4E869" d="M922.628,200.835c-11.198,0-20.523-8.841-21.008-20.123l-1.305-29.743
		c-0.505-11.619,8.504-21.45,20.124-21.955c11.493-0.484,21.45,8.504,21.934,20.102l1.305,29.743
		c0.505,11.619-8.504,21.45-20.124,21.955C923.26,200.835,922.944,200.835,922.628,200.835z"/>
	<g>
		<line fill="none" x1="251.502" y1="205.361" x2="272.551" y2="289.559"/>
		<path fill="#D75A4A" d="M272.53,310.609c-9.43,0-17.997-6.378-20.397-15.956l-21.05-84.199
			c-2.821-11.262,4.042-22.692,15.324-25.512c11.304-2.842,22.713,3.999,25.533,15.324l21.05,84.199
			c2.821,11.262-4.042,22.692-15.324,25.512C275.94,310.399,274.235,310.609,272.53,310.609z"/>
	</g>
	<path fill="#FBD490" d="M171.239,427.33c-5.389,0-10.777-2.063-14.882-6.168l-21.05-21.05c-8.23-8.23-8.23-21.534,0-29.764
		c8.23-8.23,21.534-8.23,29.764,0l21.05,21.05c8.23,8.23,8.23,21.534,0,29.764C181.995,425.267,176.628,427.33,171.239,427.33z"/>
	<path fill="#D75A4A" d="M778.164,196.478c-5.389,0-10.777-2.063-14.882-6.168l-21.05-21.05c-8.23-8.23-8.23-21.534,0-29.764
		s21.534-8.23,29.764,0l21.05,21.05c8.23,8.23,8.23,21.534,0,29.764C788.921,194.415,783.553,196.478,778.164,196.478z"/>
</g>
</svg>
