<?xml version="1.0" encoding="utf-8"?>
<!-- Generator: Adobe Illustrator 17.0.0, SVG Export Plug-In . SVG Version: 6.00 Build 0)  -->
<!DOCTYPE svg PUBLIC "-//W3C//DTD SVG 1.1//EN" "http://www.w3.org/Graphics/SVG/1.1/DTD/svg11.dtd">
<svg version="1.1" id="Layer_1" xmlns="http://www.w3.org/2000/svg" xmlns:xlink="http://www.w3.org/1999/xlink" x="0px" y="0px"
	 width="561.268px" height="566.178px" viewBox="0 0 561.268 566.178" enable-background="new 0 0 561.268 566.178"
	 xml:space="preserve">
<path fill="#A1C9EB" d="M244.514,310.747v-59.341l-5.167,4.196l-0.006,139.478c1.741-0.494,3.467-0.993,5.165-1.502L244.514,310.747
	z"/>
<path fill="#A1C9EB" d="M244.51,180.205c0-17.173,6.669-32.959,17.774-45.375c-14.113,12.09-22.932,29.106-22.932,47.943
	c0,0.378,0.002,1.364,0.005,2.767c1.721-0.086,3.433-0.174,5.164-0.256C244.514,182.469,244.51,180.549,244.51,180.205z"/>
<path fill="#4859A8" d="M415.501,233.893h-4.799h-0.637v75.734c0,10.249-4.613,19.939-12.564,26.387l-1.261,1.024
	c-1.786,2.241-3.823,4.309-6.1,6.157l-13.114,10.653c-0.305,0.42-0.646,0.824-1.066,1.165l-0.706,0.573
	c0.047,0.311,0.093,0.625,0.14,0.933l1.294,35.572c6.406,1.862,12.911,3.711,19.44,5.566c19.9,5.656,39.448,11.214,56.879,17.262
	c19.338,6.312,36.711,13.116,49.382,20.983c4.817-19.324,7.39-39.537,7.39-60.353c0-68.634-27.802-130.774-72.758-175.775v7.805
	C437.022,222.087,427.368,233.893,415.501,233.893z"/>
<path fill="#A1C9EB" d="M85.259,459.43c1.487-1.178,3.156-2.166,4.97-2.934c1.114-3.987,3.11-7.638,5.841-11.007
	C90.824,449.615,87.073,454.219,85.259,459.43z"/>
<path fill="#2A3890" d="M65.39,466.764c0-38.099,57.21-51.455,112.533-64.375c14.466-3.373,29.372-6.856,42.787-10.689
	l0.008-164.721c0-0.686,0.044-1.367,0.095-2.045l0.071-1.141c0.012-0.226,0.02-0.448,0.036-0.67
	c-0.073-2.884-0.127-14.913-0.161-25.094c-56.106,3.155-100.714,8.066-118.768,12.864c2.521,0.559,5.719,1.189,9.9,1.883
	c3.238,0.539,5.426,3.603,4.891,6.837c-0.484,2.909-3.004,4.974-5.858,4.974c-0.325,0-0.654-0.028-0.983-0.083
	c-16.697-2.77-25.313-5.311-26.7-11.196c-0.166-0.543-0.285-1.11-0.285-1.708c0-0.004,0-0.008,0-0.012v-0.004v-0.004
	c0-6.151,0-14.577,89.883-22.131c14.941-1.253,31.096-2.352,47.887-3.283c-0.005-2.051-0.007-3.32-0.007-3.387
	c0-21.309,9.413-40.646,24.638-54.771C109.545,129.805,0,240.437,0,376.674c0,36.041,7.677,70.286,21.468,101.204H65.39V466.764z
	 M182.401,220.769c8.065,0.717,16.055,1.391,23.688,2.025c3.27,0.27,5.703,3.147,5.434,6.417c-0.258,3.103-2.858,5.453-5.917,5.453
	c-0.162,0-0.329-0.008-0.495-0.02c-7.657-0.634-15.667-1.316-23.756-2.033c-3.27-0.289-5.687-3.178-5.398-6.448
	C176.246,222.897,179.135,220.476,182.401,220.769z M128.599,221.201c0.388-3.262,3.361-5.6,6.607-5.2
	c7.431,0.888,15.385,1.74,23.558,2.556c3.266,0.325,5.648,3.238,5.323,6.504c-0.309,3.068-2.893,5.354-5.909,5.354
	c-0.198,0-0.396-0.008-0.598-0.032c-8.248-0.824-16.277-1.68-23.78-2.576C130.537,227.419,128.211,224.463,128.599,221.201z"/>
<path fill="#A1C9EB" d="M244.514,224.408c0-0.737,0.071-1.462,0.119-2.192V222.2c0.04-0.495,0.04-1.007,0.087-1.502
	c-0.064-0.931-0.122-12.872-0.161-23.556c-1.731,0.083-3.454,0.167-5.167,0.253c0.037,10.951,0.096,24.189,0.158,25.521
	c0.012,0.277,0.008,0.63-0.016,0.904l-0.028,0.491c-0.016,0.325-0.032,0.646-0.06,0.967l-0.008-0.004l-0.028,0.531
	c-0.028,0.388-0.063,0.777-0.063,1.169l-0.001,13.311l5.166-4.195V224.408z"/>
<path fill="#8A9BA3" d="M471.341,500.238c-0.495,0.863-1.008,1.715-1.513,2.572h31.091v-2.572H471.341z"/>
<path fill="#8A9BA3" d="M89.19,500.238v-22.359h-5.169v24.931h385.808c0.505-0.857,1.018-1.709,1.513-2.572H89.19z"/>
<path fill="#8A9BA3" d="M90.229,456.496c-1.814,0.768-3.483,1.757-4.97,2.934c-0.808,2.321-1.238,4.76-1.238,7.334v11.115h5.169
	v-13.69C89.19,461.493,89.548,458.933,90.229,456.496z"/>
<rect x="512.809" y="477.879" fill="#27AAE1" width="5.157" height="22.359"/>
<path fill="#27AAE1" d="M512.809,468.06v9.818h5.157v-12.382c-0.003-11.05-8.083-20.328-21.195-28.469
	c-0.209,0.84-0.415,1.681-0.633,2.517C506.618,447.632,512.804,456.928,512.809,468.06z"/>
<path fill="#27AAE1" d="M364.15,117.469c-5.241-2.719-10.846-4.92-16.742-6.518c6.01,2.371,11.665,5.347,16.873,8.847
	C364.237,119.019,364.194,118.24,364.15,117.469z"/>
<path fill="#27AAE1" d="M382.498,136.376c2.828,0.877,5.553,1.988,8.165,3.292c-4.014-5.339-8.808-10.157-14.215-14.347
	c0.078,1.531,0.154,3.073,0.228,4.62C378.739,131.988,380.681,134.137,382.498,136.376z"/>
<path fill="#27AAE1" d="M494.97,454.508c-0.749-0.834-1.57-1.657-2.445-2.472c-0.267,0.841-0.541,1.68-0.817,2.517
	C492.841,454.524,493.926,454.507,494.97,454.508z"/>
<path fill="#27AAE1" d="M363.502,134.001c-13.196-10.905-30.804-17.581-50.124-17.581c-15.782,0-30.414,4.464-42.441,12.038
	c23.309,1.432,45.746,6.073,66.881,13.489C345.374,137.323,354.13,134.477,363.502,134.001z"/>
<path fill="#27AAE1" d="M496.139,439.544c0.218-0.836,0.424-1.677,0.633-2.517c-12.671-7.867-30.044-14.672-49.382-20.983
	C467.279,422.945,484.404,430.487,496.139,439.544z"/>
<path fill="#27AAE1" d="M244.522,185.284c3.302-0.157,6.622-0.307,9.954-0.45v-9.413c0-14.513,11.803-26.32,26.312-26.32h34.068
	h13.686c2.825-2.698,5.928-5.105,9.277-7.154c-21.135-7.416-43.573-12.057-66.881-13.489c-3.063,1.929-5.954,4.06-8.653,6.372
	c-11.105,12.417-17.774,28.202-17.774,45.375C244.51,180.549,244.514,182.469,244.522,185.284z"/>
<path fill="#27AAE1" d="M365.764,391.664c1.759,0.519,3.53,1.036,5.307,1.552l-1.294-35.572c-0.047-0.308-0.093-0.622-0.14-0.933
	l-4.997,4.056L365.764,391.664z"/>
<path fill="#27AAE1" d="M244.633,222.2v0.016c-0.048,0.729-0.119,1.454-0.119,2.192v11.683l14.908-12.107
	c-3.095-4.312-4.938-9.583-4.938-15.282v-12.013c-3.341,0.144-6.644,0.297-9.925,0.454c0.039,10.684,0.097,22.624,0.161,23.556
	C244.673,221.193,244.673,221.705,244.633,222.2z"/>
<path fill="#27AAE1" d="M399.286,313.315c0,9.159-3.091,17.858-8.663,24.848l1.261-1.024c7.95-6.448,12.564-16.138,12.564-26.387
	v-75.734h-5.161V313.315z"/>
<path fill="#27AAE1" d="M482.694,477.879c-3.419,7.664-7.205,15.128-11.353,22.359h29.578v-22.359H482.694z"/>
<path fill="#27AAE1" d="M482.694,477.879h18.225v-9.815c0-4.801-2.133-9.305-5.949-13.556c-1.044-0.001-2.129,0.016-3.262,0.045
	C489.085,462.513,486.076,470.297,482.694,477.879z"/>
<path fill="#27AAE1" d="M100.426,475.631v22.359h382.151c4.148-7.231,7.935-14.695,11.353-22.359H100.426z"/>
<path fill="#34373B" d="M268.865,128.327c14.404-12.624,34.016-20.419,55.616-20.419c7.967,0,15.66,1.073,22.927,3.043
	c-10.443-4.12-21.948-6.415-34.034-6.415c-23.975,0-45.677,8.999-61.277,23.472c1.118-0.015,2.233-0.042,3.355-0.042
	C259.952,127.964,264.423,128.091,268.865,128.327z"/>
<path fill="#34373B" d="M506.848,502.81h-5.929v0.004c0,3.282,2.659,5.945,5.945,5.945c3.286,0,5.945-2.663,5.945-5.945v-2.576
	h-5.961V502.81z"/>
<path fill="#34373B" d="M78.076,473.68c0-5.684,2.787-10.767,7.183-14.25c1.814-5.212,5.565-9.815,10.81-13.942
	c21.868-26.99,91.473-35.716,143.272-50.408l0.006-139.478l-2.19,1.779c-1.102,0.9-2.429,1.332-3.745,1.332
	c-1.732,0-3.444-0.753-4.621-2.2c-2.069-2.544-1.68-6.294,0.868-8.358l9.69-7.869l0.001-13.311c0-0.392,0.036-0.781,0.063-1.169
	l0.028-0.531l0.008,0.004c0.028-0.321,0.044-0.642,0.06-0.967l0.028-0.491c0.024-0.273,0.028-0.626,0.016-0.904
	c-0.062-1.332-0.121-14.571-0.158-25.521c-4.017,0.202-7.982,0.413-11.892,0.633c0.034,10.181,0.088,22.211,0.161,25.094
	c-0.016,0.222-0.024,0.444-0.036,0.67l-0.071,1.141c-0.052,0.678-0.095,1.359-0.095,2.045L227.451,391.7
	c-13.416,3.832-28.321,7.316-42.787,10.689c-55.323,12.92-112.533,26.276-112.533,64.375v11.115h5.945V473.68z"/>
<path fill="#34373B" d="M369.636,356.711l0.706-0.573c0.42-0.341,0.761-0.745,1.066-1.165l13.114-10.653
	c2.277-1.847,4.314-3.916,6.1-6.157l-21.187,17.214C369.501,355.823,369.569,356.266,369.636,356.711z"/>
<path fill="#34373B" d="M78.076,477.879h-5.945v24.935c0,3.282,2.659,5.945,5.945,5.945c3.286,0,5.945-2.663,5.945-5.945v-0.004
	h-5.945V477.879z"/>
<path fill="#34373B" d="M447.39,416.044c-17.43-6.048-36.979-11.605-56.879-17.262c-6.529-1.856-13.034-3.704-19.44-5.566
	l0.013,0.367C396.023,401.044,423.236,408.16,447.39,416.044z"/>
<path fill="#34373B" d="M227.459,182.777c0,0.067,0.002,1.336,0.007,3.387c3.93-0.218,7.897-0.425,11.891-0.624
	c-0.003-1.403-0.005-2.39-0.005-2.767c0-18.837,8.818-35.853,22.932-47.943c2.046-2.288,4.246-4.457,6.58-6.503
	c-4.442-0.236-8.912-0.363-13.413-0.363c-1.122,0-2.237,0.028-3.355,0.042C236.872,142.131,227.459,161.468,227.459,182.777z"/>
<rect x="500.919" y="500.238" fill="#34373B" width="5.929" height="2.572"/>
<rect x="78.076" y="477.879" fill="#34373B" width="5.945" height="24.931"/>
<path fill="#34373B" d="M85.259,459.43c-4.396,3.483-7.183,8.566-7.183,14.25v4.199h5.945v-11.115
	C84.021,464.19,84.451,461.751,85.259,459.43z"/>
<path fill="#34373B" d="M268.865,128.327c0.693,0.037,1.382,0.089,2.073,0.131c12.027-7.573,26.659-12.038,42.441-12.038
	c19.32,0,36.928,6.676,50.124,17.581c0.495-0.025,0.996-0.026,1.494-0.038c-0.22-4.855-0.459-9.573-0.715-14.166
	c-5.208-3.501-10.863-6.476-16.873-8.847c-7.267-1.97-14.96-3.043-22.927-3.043C302.881,107.908,283.268,115.702,268.865,128.327z"
	/>
<rect x="506.848" y="477.879" fill="#34373B" width="5.961" height="22.359"/>
<path fill="#34373B" d="M496.139,439.544c-1.096,4.209-2.306,8.372-3.614,12.492c0.875,0.815,1.696,1.638,2.445,2.472
	c7.03,0.008,11.878,1.087,11.878,8.59v14.78h5.961v-9.818C512.804,456.928,506.618,447.632,496.139,439.544z"/>
<path fill="#34373B" d="M382.498,136.376c-1.817-2.239-3.759-4.387-5.822-6.435c0.08,1.667,0.157,3.344,0.232,5.029
	C378.807,135.344,380.674,135.81,382.498,136.376z"/>
<path fill="#34373B" d="M399.286,235.017h-3.913c-2.527,1.59-5.187,2.987-7.969,4.153v74.145c0,8.497-3.777,16.432-10.368,21.774
	l-22.448,18.239c-0.424,0.345-0.785,0.745-1.094,1.181l-13.091,10.629c-2.548,2.069-2.937,5.814-0.868,8.362
	c1.173,1.447,2.889,2.2,4.621,2.2c1.316,0,2.643-0.432,3.741-1.328l5.196-4.217l0.955,26.213c0.091,2.548,1.795,4.748,4.237,5.481
	c9.433,2.822,19.19,5.592,28.987,8.374c41.295,11.733,86.853,24.682,105.252,41.812c1.308-4.119,2.517-8.282,3.614-12.492
	c-11.735-9.057-28.859-16.599-48.749-23.5c-24.154-7.884-51.367-15.001-76.305-22.461l-0.013-0.367
	c-1.776-0.516-3.548-1.033-5.307-1.552l-1.126-30.898l4.997-4.056c-0.067-0.445-0.135-0.888-0.201-1.334l21.187-17.214
	c5.572-6.99,8.663-15.689,8.663-24.848V235.017z"/>
<path fill="#34373B" d="M235.1,401.85c2.517-0.753,4.241-3.068,4.241-5.699l0-1.07c-51.799,14.692-121.404,23.418-143.272,50.408
	c18.432-14.502,55.295-23.114,91.297-31.519C203.549,410.193,220.281,406.285,235.1,401.85z"/>
<path fill="#34373B" d="M268.865,128.327c-2.335,2.046-4.534,4.215-6.58,6.503c2.699-2.312,5.59-4.443,8.653-6.372
	C270.246,128.416,269.557,128.364,268.865,128.327z"/>
<path fill="#34373B" d="M494.97,454.508c3.816,4.25,5.949,8.755,5.949,13.556v9.815h5.929v-14.78
	C506.848,455.595,502,454.516,494.97,454.508z"/>
<rect x="500.919" y="477.879" fill="#34373B" width="5.929" height="22.359"/>
<path fill="#34373B" d="M356.669,286.749c-0.535-3.242-3.591-5.434-6.833-4.903c-19.678,3.25-35.42,1.023-40.806-2.85
	c-0.943-0.678-1.248-1.193-1.276-1.371c-0.531-3.238-3.575-5.438-6.829-4.906c-3.238,0.531-5.434,3.591-4.906,6.829
	c0.4,2.453,1.783,6.028,6.076,9.108c6.099,4.383,16.586,6.682,29.265,6.682c6.345,0,13.245-0.579,20.411-1.756
	C355.008,293.047,357.204,289.987,356.669,286.749z"/>
<path fill="#B2C4CC" d="M293.344,195.345c-9.143,0.234-18.14,0.527-26.978,0.86v12.492c0,7.954,6.472,14.422,14.422,14.422h16.095
	c-2.231-4.146-3.539-9.1-3.539-14.422V195.345z"/>
<path fill="#B2C4CC" d="M266.366,175.421v8.929c8.957-0.337,17.969-0.626,26.978-0.864v-8.065c0-5.327,1.312-10.285,3.543-14.43
	h-16.099C272.834,160.991,266.366,167.463,266.366,175.421z"/>
<path fill="#FFFFFF" d="M419.502,175.421c0-3.451-1.221-6.62-3.249-9.106c1.36,3.027,2.454,6.197,3.249,9.485V175.421z"/>
<path fill="#FFFFFF" d="M319.112,160.991h-4.255c-5.216,0-9.623,6.607-9.623,14.43v7.784c1.554-0.033,3.1-0.057,4.651-0.086
	c0.667-0.294,1.351-0.535,2.054-0.709C312.825,174.667,315.331,167.413,319.112,160.991z"/>
<path fill="#D8E2EA" d="M419.502,208.697v-7.163c-1.876,7.758-5.409,14.871-10.202,20.951
	C415.201,220.674,419.502,215.181,419.502,208.697z"/>
<path fill="#D8E2EA" d="M305.234,195.067v13.63c0,7.819,4.407,14.422,9.623,14.422h8.957c-6.402-7.882-10.654-17.57-11.871-28.172
	C309.704,194.986,307.461,195.022,305.234,195.067z"/>
<path fill="#D8E2EA" d="M311.939,182.41c-0.704,0.175-1.388,0.415-2.054,0.709c0.657-0.012,1.313-0.025,1.969-0.037
	C311.877,182.856,311.914,182.635,311.939,182.41z"/>
<path fill="#34373B" d="M330.729,96.43c0.166,0.012,0.329,0.02,0.487,0.02c3.064,0,5.667-2.354,5.921-5.461
	c0.329-4.042,0.674-7.97,1.034-11.779c0.309-3.266-2.089-6.167-5.358-6.476c-3.25-0.329-6.171,2.089-6.476,5.362
	c-0.365,3.856-0.717,7.839-1.05,11.925C325.018,93.295,327.456,96.164,330.729,96.43z"/>
<path fill="#34373B" d="M333.849,63.15c0.254,0.032,0.503,0.048,0.753,0.048c2.953,0,5.513-2.196,5.889-5.204
	c0.983-7.792,2.049-14.846,3.159-20.966c0.587-3.23-1.554-6.325-4.784-6.912c-3.218-0.583-6.325,1.554-6.912,4.784
	c-1.153,6.333-2.251,13.602-3.262,21.608C328.284,59.762,330.591,62.738,333.849,63.15z"/>
<path fill="#34373B" d="M409.452,155.042h0.424c8.608,0,15.576,9.119,15.576,20.375v19.738c2.012,1.886,4.004,3.793,5.953,5.744
	v-4.429c64.082,3.087,104.745,9.492,115.878,15.001c-0.797,0.376-1.76,0.793-3.083,1.268c-3.087,1.11-4.693,4.518-3.583,7.605
	c0.872,2.422,3.159,3.932,5.596,3.932c0.666,0,1.347-0.111,2.013-0.353c3.301-1.189,11.569-4.241,12.805-10.736
	c0.135-0.523,0.238-1.058,0.238-1.621c-0.004-7.17-5.073-15.377-65.525-22.107c-18.817-2.097-40.639-3.729-64.351-4.871v-9.167
	c0-14.513-9.654-26.32-21.52-26.32h-4.799h-0.999C406.006,150.948,407.804,152.933,409.452,155.042z"/>
<path fill="#34373B" d="M371.805,65.517C365.075,5.061,356.863,0,349.698,0c-0.563,0-1.098,0.103-1.617,0.25
	c-6.488,1.244-9.54,9.504-10.729,12.809c-1.11,3.087,0.495,6.496,3.583,7.605c0.666,0.242,1.344,0.353,2.013,0.353
	c2.437,0,4.72-1.51,5.596-3.932c0.476-1.324,0.892-2.283,1.264-3.079c5.143,10.411,11.065,46.559,14.341,103.462
	c4.376,2.27,8.491,4.901,12.299,7.851C375.325,103.359,373.766,83.124,371.805,65.517z"/>
<path fill="#34373B" d="M179.579,189.447c-89.883,7.554-89.883,15.98-89.883,22.131v0.004v0.004c0,0.004,0,0.008,0,0.012
	c0,0.598,0.119,1.165,0.285,1.708c1.387,5.885,10.003,8.426,26.7,11.196c0.329,0.055,0.658,0.083,0.983,0.083
	c2.853,0,5.374-2.065,5.858-4.974c0.535-3.234-1.653-6.298-4.891-6.837c-4.181-0.694-7.38-1.324-9.9-1.883
	c18.055-4.797,62.663-9.709,118.768-12.864c-0.016-4.716-0.027-9.036-0.034-11.864C210.675,187.095,194.52,188.194,179.579,189.447z
	"/>
<path fill="#34373B" d="M425.451,195.155v7.26v6.282v0.004c0,11.256-6.967,20.367-15.576,20.367h-5.428v5.949h0.637h4.799
	c11.866,0,21.52-11.807,21.52-26.312v-7.805C429.455,198.949,427.464,197.041,425.451,195.155z"/>
<path fill="#34373B" d="M244.56,197.142c-0.016-4.479-0.029-8.725-0.038-11.858c-1.731,0.082-3.443,0.171-5.164,0.256
	c0.006,2.724,0.018,7.065,0.035,11.855C241.106,197.309,242.828,197.225,244.56,197.142z"/>
<polygon fill="#34373B" points="244.514,236.091 239.348,240.286 239.347,255.603 244.514,251.406 "/>
<path fill="#34373B" d="M376.676,129.94c-0.074-1.547-0.149-3.09-0.228-4.62c-3.808-2.951-7.923-5.581-12.299-7.851
	c0.044,0.771,0.088,1.55,0.131,2.329C368.764,122.811,372.916,126.208,376.676,129.94z"/>
<path fill="#34373B" d="M358.049,242.78l-12.814,9.239c-2.663,1.918-3.266,5.636-1.347,8.299c1.161,1.613,2.98,2.469,4.827,2.469
	c1.205,0,2.418-0.365,3.468-1.122l17.609-12.694c1.889-1.36,2.763-3.664,2.36-5.884c-1.921,0.205-3.869,0.316-5.844,0.316
	C363.501,243.403,360.743,243.189,358.049,242.78z"/>
<path fill="#34373B" d="M399.286,232.32v2.697h5.161v-5.949h-1.25C401.946,230.212,400.639,231.295,399.286,232.32z"/>
<path fill="#34373B" d="M254.484,208.701c0,5.699,1.843,10.97,4.938,15.282l-14.908,12.107v15.316l23.972-19.469
	c3.678,1.954,7.863,3.076,12.31,3.076h34.068h22.371c-2.782-1.751-5.402-3.737-7.818-5.945h-14.561c-0.02,0-0.04-0.004-0.06-0.004
	h-34.008c-11.256,0-20.367-9.111-20.367-20.367v-33.279c0-11.256,9.112-20.375,20.367-20.375h34.068h8.306
	c1.648-2.11,3.446-4.095,5.379-5.941h-13.686h-34.068c-14.509,0-26.312,11.807-26.312,26.32v9.413
	c-3.333,0.143-6.652,0.293-9.954,0.45c0.009,3.133,0.021,7.379,0.038,11.858c3.281-0.157,6.583-0.31,9.925-0.454V208.701z"/>
<path fill="#34373B" d="M229.659,248.155c-2.548,2.065-2.937,5.814-0.868,8.358c1.177,1.447,2.889,2.2,4.621,2.2
	c1.316,0,2.643-0.432,3.745-1.332l2.19-1.779l0.001-15.317L229.659,248.155z"/>
<path fill="#34373B" d="M239.358,185.541c-3.994,0.199-7.961,0.406-11.891,0.624c0.007,2.828,0.018,7.148,0.034,11.864
	c3.91-0.22,7.876-0.431,11.892-0.633C239.376,192.605,239.364,188.265,239.358,185.541z"/>
<path fill="#34373B" d="M376.908,134.969c-0.075-1.685-0.152-3.362-0.232-5.029c-3.76-3.733-7.912-7.13-12.395-10.143
	c0.256,4.593,0.495,9.311,0.715,14.166c0.437-0.01,0.872-0.033,1.311-0.033C369.934,133.93,373.477,134.293,376.908,134.969z"/>
<path fill="#34373B" d="M399.286,235.017v-2.697c-1.262,0.955-2.569,1.851-3.913,2.697H399.286z"/>
<path fill="#34373B" d="M299.289,208.701v-0.004v-6.282v-26.998c0-11.256,6.967-20.375,15.568-20.375h-34.068
	c-11.256,0-20.367,9.119-20.367,20.375v33.279c0,11.256,9.112,20.367,20.367,20.367h34.008
	C306.224,229.021,299.289,219.93,299.289,208.701z M280.788,223.119c-7.95,0-14.422-6.468-14.422-14.422v-12.492
	c8.838-0.333,17.835-0.626,26.978-0.86v13.352c0,5.323,1.308,10.277,3.539,14.422H280.788z M293.344,175.421v8.065
	c-9.008,0.238-18.021,0.527-26.978,0.864v-8.929c0-7.958,6.468-14.43,14.422-14.43h16.099
	C294.656,165.137,293.344,170.095,293.344,175.421z"/>
<path fill="#34373B" d="M425.447,175.418v19.734c0.001,0.001,0.003,0.002,0.004,0.004v-19.738c0-11.256-6.967-20.375-15.576-20.375
	h-0.424c0.158,0.203,0.321,0.402,0.477,0.607C418.834,157.83,425.447,165.839,425.447,175.418z"/>
<path fill="#34373B" d="M425.447,202.313c0,0.035,0.004,0.068,0.004,0.102v-7.26c-0.001-0.001-0.003-0.002-0.004-0.004V202.313z"/>
<path fill="#34373B" d="M419.502,175.801c0.964,3.986,1.495,8.139,1.53,12.409c1.203,1.617,2.193,3.497,2.935,5.564
	c0.496,0.457,0.988,0.917,1.48,1.378v-19.734c0-9.579-6.613-17.588-15.518-19.769c2.493,3.286,4.616,6.863,6.325,10.667
	c2.028,2.486,3.249,5.655,3.249,9.106V175.801z"/>
<path fill="#34373B" d="M425.447,202.313v-7.161c-0.492-0.461-0.985-0.921-1.48-1.378
	C424.899,196.37,425.436,199.257,425.447,202.313z"/>
<path fill="#34373B" d="M299.289,175.418v26.998c0-8.981,4.438-16.581,10.596-19.296c-1.551,0.03-3.097,0.054-4.651,0.086v-7.784
	c0-7.823,4.407-14.43,9.623-14.43h4.255c1.221-2.075,2.576-4.06,4.051-5.949h-8.306
	C306.256,155.042,299.289,164.162,299.289,175.418z"/>
<path fill="#34373B" d="M409.876,229.064h-4.803h-0.625v0.004h5.428c8.608,0,15.576-9.111,15.576-20.367v-0.004
	C425.451,219.953,418.484,229.064,409.876,229.064z"/>
<rect x="403.821" y="228.441" fill="#34373B" width="0.006" height="1.25"/>
<path fill="#34373B" d="M314.857,229.064h-0.06c0.02,0,0.04,0.004,0.06,0.004h14.561c-0.001-0.001-0.003-0.003-0.004-0.004H314.857z
	"/>
<path fill="#34373B" d="M299.289,208.697v0.004c0,11.229,6.935,20.32,15.508,20.363h0.06
	C306.256,229.064,299.289,219.953,299.289,208.697z"/>
<path fill="#34373B" d="M425.447,208.697c0,11.256-9.119,20.367-20.375,20.367h4.803c8.608,0,15.576-9.111,15.576-20.367v-6.282
	c0-0.035-0.004-0.068-0.004-0.102V208.697z"/>
<path fill="#34373B" d="M420.983,191.07c1.002,0.894,1.997,1.794,2.984,2.704c-0.742-2.067-1.732-3.947-2.935-5.564
	c0.001,0.153,0.012,0.304,0.012,0.457C421.044,189.473,421.018,190.272,420.983,191.07z"/>
<path fill="#34373B" d="M420.983,191.07c-0.156,3.588-0.663,7.085-1.481,10.464v7.163c0,6.484-4.301,11.977-10.202,13.788
	c-1.5,1.902-3.119,3.704-4.853,5.391v1.188h0.625c11.256,0,20.375-9.111,20.375-20.367v-6.384c-0.012-3.056-0.549-5.942-1.48-8.539
	C422.98,192.864,421.985,191.964,420.983,191.07z"/>
<path fill="#34373B" d="M403.201,229.064h1.246v-1.188C404.036,228.276,403.625,228.677,403.201,229.064z"/>
<path fill="#34373B" d="M323.813,223.119h-8.957c-5.216,0-9.623-6.603-9.623-14.422v-13.63c2.227-0.045,4.47-0.081,6.709-0.12
	c-0.237-2.062-0.371-4.156-0.371-6.28c0-1.885,0.096-3.748,0.283-5.584c-0.656,0.012-1.312,0.024-1.969,0.037
	c-6.158,2.715-10.596,10.316-10.596,19.296v6.282c0,11.256,6.967,20.367,15.568,20.367h14.557
	C327.402,227.225,325.533,225.236,323.813,223.119z"/>
<path fill="#34373B" d="M470.276,224.13c-3.274,0.266-5.707,3.139-5.442,6.409c0.254,3.107,2.858,5.461,5.921,5.461
	c0.163,0,0.325-0.008,0.491-0.02c4.09-0.337,8.073-0.682,11.925-1.05c3.27-0.309,5.667-3.214,5.358-6.48
	c-0.309-3.266-3.23-5.675-6.48-5.354C478.242,223.456,474.314,223.801,470.276,224.13z"/>
<path fill="#34373B" d="M524.235,217.614c-6.139,1.118-13.19,2.184-20.962,3.163c-3.258,0.412-5.564,3.385-5.156,6.642
	c0.38,3.004,2.941,5.204,5.889,5.204c0.25,0,0.499-0.016,0.749-0.048c7.986-1.007,15.255-2.104,21.608-3.262
	c3.23-0.587,5.37-3.686,4.784-6.916C530.565,219.168,527.453,217.04,524.235,217.614z"/>
<path fill="#34373B" d="M140.541,227.808c7.502,0.896,15.532,1.752,23.78,2.576c0.202,0.024,0.4,0.032,0.598,0.032
	c3.016,0,5.6-2.287,5.909-5.354c0.325-3.266-2.057-6.179-5.323-6.504c-8.172-0.816-16.126-1.669-23.558-2.556
	c-3.246-0.4-6.218,1.938-6.607,5.2C134.953,224.463,137.279,227.419,140.541,227.808z"/>
<path fill="#34373B" d="M188.096,232.611c8.089,0.717,16.099,1.399,23.756,2.033c0.166,0.012,0.333,0.02,0.495,0.02
	c3.06,0,5.66-2.35,5.917-5.453c0.27-3.27-2.164-6.147-5.434-6.417c-7.633-0.634-15.623-1.308-23.688-2.025
	c-3.266-0.293-6.155,2.128-6.444,5.394C182.409,229.433,184.826,232.322,188.096,232.611z"/>
<path fill="#F58E90" d="M365.606,149.102c-0.039-1.1-0.081-2.174-0.122-3.262c-4.296,0.082-8.438,0.795-12.335,2.058
	c0.921,0.394,1.837,0.799,2.752,1.204H365.606z"/>
<path fill="#F58E90" d="M353.149,147.897c-1.102,0.357-2.184,0.761-3.245,1.204h5.997
	C354.985,148.697,354.07,148.291,353.149,147.897z"/>
<path fill="#F58E90" d="M382.711,149.102c-1.716-0.716-3.486-1.323-5.306-1.812c0.022,0.605,0.046,1.205,0.067,1.812H382.711z"/>
<path fill="#F58E90" d="M355.901,149.102c1.762,0.779,3.513,1.578,5.254,2.397c1.694-0.136,3.412-0.209,5.153-0.209
	c4.5,0.001,8.852,0.478,12.989,1.352c-1.14-1.996-2.388-3.933-3.74-5.806c-2.98-0.66-6.072-1.016-9.249-1.016
	c-0.276,0-0.549,0.014-0.823,0.019c0.041,1.088,0.083,2.162,0.122,3.262H355.901z"/>
<path fill="#F58E90" d="M344.994,155.042c4.974-1.855,10.419-3.081,16.161-3.544c-1.741-0.819-3.492-1.618-5.254-2.397h-5.997
	c-3.642,1.519-7.031,3.524-10.084,5.941H344.994z"/>
<path fill="#F58E90" d="M379.297,152.642c2.89,0.611,5.675,1.413,8.323,2.401h5.175c-3.052-2.417-6.441-4.422-10.084-5.941h-5.239
	c-0.021-0.607-0.045-1.207-0.067-1.812c-0.611-0.164-1.227-0.316-1.849-0.453C376.909,148.709,378.157,150.646,379.297,152.642z"/>
<path fill="#F58E90" d="M398.749,160.764c-1.409-1.641-2.939-3.173-4.577-4.584c0.3,0.753,0.574,1.516,0.849,2.279
	C396.312,159.182,397.557,159.951,398.749,160.764z"/>
<path fill="#F58E90" d="M339.82,155.042c-2.164,1.713-4.158,3.63-5.955,5.723c3.333-2.276,7.072-4.21,11.129-5.723H339.82z"/>
<path fill="#F58E90" d="M394.171,156.181c-0.451-0.389-0.909-0.769-1.376-1.138h-5.175c2.606,0.972,5.079,2.12,7.4,3.417
	C394.745,157.697,394.471,156.933,394.171,156.181z"/>
<path fill="#EE2A28" d="M408.31,180.48c-0.962-4.947-2.773-9.594-5.279-13.78c0.736,3.506,1.191,7.099,1.343,10.762
	C405.698,178.454,407.007,179.463,408.31,180.48z"/>
<path fill="#EE2A28" d="M404.451,180.205c0,0.185-0.001,0.844-0.003,1.835h4.131c-0.082-0.523-0.169-1.044-0.269-1.56
	c-1.303-1.017-2.612-2.026-3.936-3.018C404.412,178.374,404.451,179.286,404.451,180.205z"/>
<path fill="#EE2A28" d="M384.344,163.928c-0.327-0.989-0.681-1.967-1.058-2.937h-3.909
	C381.045,161.952,382.701,162.93,384.344,163.928z"/>
<path fill="#EE2A28" d="M404.374,177.462c-0.152-3.663-0.607-7.256-1.343-10.762c-1.208-2.018-2.581-3.924-4.093-5.709h-3.063
	c1.271,3.984,2.2,8.095,2.762,12.311C400.569,174.665,402.484,176.047,404.374,177.462z"/>
<path fill="#EE2A28" d="M385.285,167.047c-0.286-1.05-0.6-2.089-0.941-3.119c-1.643-0.998-3.299-1.976-4.967-2.937h-1.521
	c0.055,1.991,0.098,4.012,0.146,6.021C380.416,166.626,382.876,166.634,385.285,167.047z"/>
<path fill="#EE2A28" d="M402.546,182.04h1.903c0.002-0.991,0.003-1.649,0.003-1.835c0-0.92-0.039-1.831-0.077-2.743
	c-1.89-1.415-3.806-2.798-5.737-4.16c0.082,0.614,0.172,1.226,0.238,1.844C400.514,177.225,401.752,179.551,402.546,182.04z"/>
<path fill="#EE2A28" d="M365.915,173.158c0.11-0.11,0.231-0.202,0.343-0.31c-0.083-4.018-0.177-7.976-0.284-11.858h-32.298
	c-4.976,5.875-8.399,13.103-9.641,21.049H360.5C361.557,178.726,363.385,175.686,365.915,173.158z"/>
<path fill="#EE2A28" d="M398.637,173.302c-0.562-4.216-1.491-8.328-2.762-12.311h-12.589c0.377,0.969,0.731,1.948,1.058,2.937
	C389.223,166.89,393.986,170.022,398.637,173.302z"/>
<path fill="#EE2A28" d="M397.13,173.158c0.63,0.63,1.202,1.3,1.746,1.988c-0.066-0.618-0.156-1.23-0.238-1.844
	c-4.651-3.281-9.414-6.413-14.293-9.375c0.341,1.03,0.655,2.069,0.941,3.119C389.625,167.792,393.785,169.817,397.13,173.158z"/>
<path fill="#EE2A28" d="M408.691,182.722c-0.032-0.229-0.076-0.454-0.111-0.682h-4.131c0,0.212-0.001,0.439-0.001,0.682H408.691z"/>
<path fill="#EE2A28" d="M402.748,182.722h1.699c0-0.243,0.001-0.47,0.001-0.682h-1.903
	C402.618,182.266,402.683,182.493,402.748,182.722z"/>
<path fill="#EE2A28" d="M349.69,182.722h10.608c0.065-0.228,0.13-0.456,0.202-0.682h-36.464c-0.036,0.228-0.079,0.453-0.111,0.682
	H349.69z"/>
<path fill="#EE2A28" d="M361.155,151.498c2.44,1.147,4.864,2.321,7.26,3.544h12.188c-0.417-0.81-0.854-1.609-1.306-2.401
	c-4.137-0.875-8.49-1.352-12.989-1.352C364.567,151.289,362.849,151.362,361.155,151.498z"/>
<path fill="#EE2A28" d="M361.155,151.498c-5.742,0.462-11.187,1.689-16.161,3.544h23.42
	C366.019,153.819,363.594,152.646,361.155,151.498z"/>
<path fill="#EE2A28" d="M387.62,155.042c-2.648-0.987-5.434-1.79-8.323-2.401c0.452,0.792,0.889,1.591,1.306,2.401H387.62z"/>
<path fill="#EE2A28" d="M395.875,160.991h3.063c-0.064-0.075-0.126-0.152-0.19-0.227c-1.192-0.814-2.436-1.582-3.728-2.304
	C395.322,159.297,395.605,160.142,395.875,160.991z"/>
<path fill="#EE2A28" d="M383.286,160.991c-0.789-2.03-1.685-4.014-2.683-5.949h-12.188c3.709,1.894,7.364,3.877,10.962,5.949
	H383.286z"/>
<path fill="#EE2A28" d="M365.975,160.991c0.107,3.881,0.201,7.84,0.284,11.858c3.348-3.208,7.46-5.15,11.745-5.836
	c-0.048-2.009-0.092-4.031-0.146-6.021h1.521c-3.598-2.072-7.254-4.055-10.962-5.949h-23.42c-4.057,1.513-7.796,3.447-11.129,5.723
	c-0.064,0.074-0.125,0.151-0.189,0.226H365.975z"/>
<path fill="#EE2A28" d="M383.286,160.991h12.589c-0.271-0.849-0.554-1.694-0.855-2.531c-2.321-1.297-4.794-2.446-7.4-3.417h-7.017
	C381.601,156.978,382.496,158.962,383.286,160.991z"/>
<path fill="#FFFFFF" d="M387.224,223.119c0.003-0.107-0.01-0.214-0.003-0.321c0.004-0.079,0.008-0.21,0.011-0.368
	c-0.659,0.24-1.324,0.471-1.998,0.689H387.224z"/>
<path fill="#FFFFFF" d="M333.873,216.573c2.091,2.434,4.447,4.633,7.028,6.546h6.482
	C342.404,221.512,337.85,219.286,333.873,216.573z"/>
<path fill="#FFFFFF" d="M398.738,216.578c-0.459,0.313-0.92,0.625-1.394,0.925c-1.205,0.762-2.458,1.48-3.756,2.151
	c-0.649,0.336-1.309,0.66-1.98,0.972c-1.341,0.624-2.725,1.2-4.147,1.725c-0.075,0.028-0.152,0.051-0.228,0.079
	c-0.004,0.158-0.008,0.289-0.011,0.368c-0.007,0.107,0.005,0.214,0.003,0.321h4.489C394.293,221.207,396.648,219.01,398.738,216.578
	z"/>
<path fill="#FFFFFF" d="M366.307,231.509c4.987,0,9.771-0.867,14.222-2.441h-28.444C356.537,230.643,361.32,231.509,366.307,231.509
	z"/>
<polygon fill="#FFFFFF" points="352.075,229.064 352.086,229.068 380.529,229.068 380.54,229.064 "/>
<path fill="#FFFFFF" d="M387.23,223.821c-0.022-0.231-0.011-0.467-0.005-0.701h-1.99c-5.82,1.878-12.215,2.917-18.927,2.917l0,0h0
	c-1.684,0-3.347-0.065-4.987-0.193c-0.82-0.064-1.634-0.143-2.441-0.238c-4.014-0.47-7.866-1.315-11.495-2.486h-6.482
	c3.378,2.504,7.138,4.516,11.173,5.945h28.466c2.373-0.84,4.65-1.883,6.811-3.11c-0.005-0.067-0.006-0.135-0.01-0.203
	L387.23,223.821z"/>
<path fill="#FFFFFF" d="M387.23,223.821l0.111,1.93c0.005,0.068,0.006,0.135,0.01,0.203c1.513-0.859,2.971-1.803,4.362-2.834h-4.489
	C387.219,223.354,387.208,223.59,387.23,223.821z"/>
<path fill="#FFFFFF" d="M347.384,223.119c-4.982-1.607-9.536-3.834-13.513-6.549c0.001,0.001,0.001,0.002,0.002,0.003
	C337.85,219.286,342.404,221.512,347.384,223.119L347.384,223.119z"/>
<path fill="#FFFFFF" d="M385.234,223.119L385.234,223.119c0.675-0.218,1.34-0.449,1.998-0.689l0,0
	C386.574,222.67,385.909,222.902,385.234,223.119z"/>
<path fill="#FFFFFF" d="M387.233,222.43c0.075-0.027,0.153-0.051,0.228-0.079C387.386,222.379,387.308,222.403,387.233,222.43
	L387.233,222.43z"/>
<path fill="#FFFFFF" d="M397.343,217.503c-1.205,0.762-2.458,1.48-3.756,2.151C394.885,218.983,396.138,218.265,397.343,217.503z"/>
<path fill="#FFFFFF" d="M391.607,220.626c-1.341,0.624-2.725,1.2-4.147,1.725C388.882,221.827,390.266,221.251,391.607,220.626z"/>
<path fill="#FFFFFF" d="M366.308,226.036L366.308,226.036c6.712,0,13.107-1.039,18.927-2.917h0
	C379.414,224.997,373.02,226.036,366.308,226.036z"/>
<path fill="#FFFFFF" d="M347.384,223.119c3.629,1.171,7.482,2.017,11.495,2.486C354.866,225.136,351.014,224.29,347.384,223.119
	L347.384,223.119z"/>
<path fill="#DCE6EA" d="M366.307,226.036L366.307,226.036c-1.684,0-3.347-0.065-4.987-0.193
	C362.96,225.971,364.624,226.036,366.307,226.036z"/>
<path fill="#DCE6EA" d="M404.367,208.211c2.014-3.915,3.441-8.178,4.171-12.674c-1.367-0.045-2.738-0.089-4.123-0.131
	C404.403,199.633,404.387,204.16,404.367,208.211z"/>
<path fill="#DCE6EA" d="M399.178,216.052c2.002-2.406,3.745-5.033,5.189-7.841c0.019-4.051,0.035-8.579,0.048-12.804
	c-0.602-0.018-1.213-0.035-1.819-0.052c-0.731,2.349-1.87,4.548-3.352,6.54C399.228,206.902,399.206,212.02,399.178,216.052z"/>
<path fill="#DCE6EA" d="M354.652,215.906c3.028-1.252,6.508,0.186,7.764,3.226l1.645,3.987h21.174
	c0.675-0.218,1.34-0.449,1.998-0.689c0.035-1.505,0.067-6.454,0.093-12.387c-1.899,0.514-3.85,0.79-5.803,0.79
	c-0.997,0-1.991-0.091-2.981-0.225c0,0.322,0.005,0.637,0.005,0.959c0,3.282-2.659,5.945-5.945,5.945
	c-3.285,0-5.945-2.663-5.945-5.945c0-2.203-0.008-4.369-0.017-6.534c-0.24-0.22-0.492-0.422-0.724-0.655
	c-2.745-2.743-4.66-6.088-5.661-9.734c-3.482-0.021-6.99-0.036-10.565-0.036c-8.621,0-17.207,0.06-25.739,0.162
	c1.186,8.255,4.729,15.757,9.92,21.801c3.977,2.714,8.532,4.941,13.513,6.549h3.875
	C350.379,220.226,351.798,217.087,354.652,215.906z"/>
<path fill="#DCE6EA" d="M397.13,204.381c-2.813,2.813-6.211,4.689-9.804,5.663c-0.026,5.933-0.058,10.881-0.093,12.387
	c0.075-0.027,0.153-0.051,0.228-0.079c1.422-0.525,2.806-1.101,4.147-1.725c0.671-0.312,1.331-0.636,1.98-0.972
	c1.298-0.672,2.551-1.39,3.756-2.151c0.474-0.3,0.935-0.612,1.394-0.925c0.149-0.173,0.294-0.35,0.44-0.526
	c0.028-4.032,0.05-9.15,0.067-14.157C398.599,202.763,397.909,203.603,397.13,204.381z"/>
<path fill="#DCE6EA" d="M408.539,195.538c0.05-0.31,0.108-0.618,0.152-0.93h-4.273c-0.001,0.266-0.002,0.531-0.002,0.799
	C405.801,195.449,407.172,195.493,408.539,195.538z"/>
<path fill="#DCE6EA" d="M349.69,194.608c3.574,0,7.082,0.015,10.565,0.036c-0.003-0.012-0.006-0.024-0.009-0.036H349.69z"/>
<path fill="#DCE6EA" d="M402.597,195.355c0.605,0.018,1.217,0.034,1.819,0.052c0.001-0.268,0.002-0.534,0.002-0.799H402.8
	C402.732,194.857,402.673,195.109,402.597,195.355z"/>
<path fill="#DCE6EA" d="M366.656,211.566c0,3.282,2.659,5.945,5.945,5.945c3.286,0,5.945-2.663,5.945-5.945
	c0-0.322-0.004-0.637-0.005-0.959c-4.317-0.584-8.483-2.443-11.902-5.576C366.648,207.197,366.656,209.363,366.656,211.566z"/>
<path fill="#DCE6EA" d="M364.06,223.119l-1.645-3.987c-1.256-3.04-4.736-4.479-7.764-3.226c-2.854,1.181-4.272,4.32-3.393,7.213
	h-3.875c3.629,1.171,7.481,2.017,11.495,2.486c0.807,0.095,1.621,0.174,2.441,0.238c1.64,0.128,3.304,0.193,4.987,0.193
	c6.712,0,13.107-1.039,18.927-2.917H364.06z"/>
<path fill="#DCE6EA" d="M323.951,194.77c8.532-0.103,17.118-0.162,25.739-0.162h-25.765
	C323.932,194.662,323.943,194.715,323.951,194.77z"/>
<path fill="#34373B" d="M404.073,149.102c-3.955-3.777-8.469-6.968-13.41-9.434c2.25,2.993,4.256,6.145,5.997,9.434H404.073z"/>
<path fill="#34373B" d="M388.82,145.379c2.105,1.097,4.119,2.342,6.029,3.723h1.811c-1.741-3.289-3.748-6.442-5.997-9.434
	c-2.612-1.304-5.337-2.414-8.165-3.292C384.819,139.236,386.937,142.24,388.82,145.379z"/>
<path fill="#34373B" d="M345.196,144.664c6.09-2.927,12.884-4.613,20.056-4.766c-0.063-1.528-0.125-3.062-0.192-4.565
	c-0.513-0.449-1.03-0.895-1.558-1.331c-9.372,0.475-18.128,3.322-25.684,7.946C340.295,142.816,342.756,143.719,345.196,144.664z"/>
<path fill="#34373B" d="M345.196,144.664c-2.44-0.944-4.9-1.847-7.377-2.716c-3.348,2.049-6.452,4.457-9.277,7.154h9.223
	C340.098,147.416,342.578,145.922,345.196,144.664z"/>
<path fill="#34373B" d="M381.541,235.017c-3.697,1.214-7.589,1.995-11.617,2.29l1.888,4.574c0.163,0.395,0.265,0.799,0.339,1.206
	c5.351-0.57,10.473-1.913,15.253-3.917v-4.153H381.541z"/>
<path fill="#34373B" d="M356.732,236.509c-1.934-0.385-3.822-0.89-5.666-1.496h-13.83c6.214,3.912,13.258,6.619,20.813,7.767
	l0.982-0.708L356.732,236.509z"/>
<path fill="#34373B" d="M364.996,133.963c-0.498,0.012-0.999,0.013-1.494,0.038c0.528,0.436,1.044,0.882,1.558,1.331
	C365.04,134.871,365.017,134.423,364.996,133.963z"/>
<path fill="#34373B" d="M377.167,141.099c4.106,0.934,8.013,2.382,11.653,4.279c-1.883-3.138-4.001-6.143-6.322-9.003
	c-1.824-0.566-3.691-1.032-5.59-1.406C376.998,137,377.085,139.043,377.167,141.099z"/>
<path fill="#34373B" d="M387.404,239.17c2.782-1.166,5.442-2.563,7.969-4.153h-7.969V239.17z"/>
<path fill="#34373B" d="M416.429,183.949c1.021,0.039,2.058,0.072,3.073,0.113v-8.261c-0.795-3.287-1.889-6.458-3.249-9.485
	c-2.357-2.889-5.806-4.853-9.713-5.25c4.4,6.403,7.307,13.907,8.231,22.016C415.341,183.328,415.892,183.622,416.429,183.949z"/>
<path fill="#34373B" d="M314.857,182.04h3.119c1.051-7.741,3.912-14.905,8.152-21.049h-7.016c-3.78,6.422-6.287,13.676-7.172,21.418
	C312.885,182.175,313.858,182.04,314.857,182.04z"/>
<path fill="#34373B" d="M416.429,183.949c-0.538-0.327-1.089-0.621-1.657-0.867c0.031,0.27,0.066,0.538,0.092,0.81
	C415.385,183.91,415.909,183.929,416.429,183.949z"/>
<path fill="#34373B" d="M414.585,195.746c-1.286,8.838-4.941,16.903-10.3,23.54c-0.011,0.755-0.024,1.251-0.036,1.412
	c0.044,0.495,0.044,1.007,0.083,1.502v0.016c0.018,0.301,0.041,0.602,0.061,0.903h0.679c1.471,0,2.891-0.224,4.229-0.634
	c4.793-6.081,8.325-13.193,10.202-20.951v-5.598C417.877,195.87,416.238,195.807,414.585,195.746z"/>
<path fill="#34373B" d="M317.975,182.04h-3.119c-0.998,0-1.971,0.135-2.917,0.37c-0.026,0.225-0.063,0.447-0.085,0.673
	c2.003-0.036,4.006-0.074,6.002-0.105C317.893,182.664,317.933,182.352,317.975,182.04z"/>
<path fill="#34373B" d="M404.332,222.2c-0.04-0.495-0.04-1.007-0.083-1.502c0.013-0.161,0.025-0.657,0.036-1.412
	c-1.079,1.336-2.22,2.619-3.431,3.833h3.539c-0.02-0.301-0.043-0.602-0.061-0.903V222.2z"/>
<path fill="#34373B" d="M311.942,194.947c1.217,10.602,5.469,20.291,11.871,28.172h7.951c-7.432-7.45-12.455-17.294-13.844-28.271
	C315.921,194.878,313.933,194.912,311.942,194.947z"/>
<path fill="#34373B" d="M397.827,151.432c1.338,1.134,2.612,2.34,3.82,3.61h3.424h4.38c-1.648-2.11-3.446-4.095-5.379-5.941h-7.412
	C397.067,149.87,397.45,150.649,397.827,151.432z"/>
<path fill="#34373B" d="M396.66,149.102h-1.811c1.023,0.739,2.017,1.516,2.978,2.33C397.45,150.649,397.067,149.87,396.66,149.102z"
	/>
<path fill="#34373B" d="M369.925,140.019c-1.538-1.631-3.161-3.195-4.865-4.686c0.067,1.503,0.129,3.037,0.192,4.565
	c0.352-0.007,0.702-0.027,1.056-0.027C367.526,139.871,368.729,139.931,369.925,140.019z"/>
<path fill="#34373B" d="M369.924,237.307c-1.194,0.087-2.396,0.147-3.613,0.147c-0.001,0-0.001,0-0.002,0s-0.001,0-0.002,0
	c-3.278,0-6.478-0.329-9.575-0.945l2.299,5.562l-0.982,0.708c2.694,0.409,5.452,0.623,8.259,0.623c1.974,0,3.923-0.111,5.844-0.316
	c-0.074-0.407-0.176-0.812-0.339-1.206L369.924,237.307z"/>
<path fill="#34373B" d="M338.953,229.068h-9.535c2.416,2.208,5.036,4.194,7.818,5.945h13.83
	C346.729,233.588,342.657,231.581,338.953,229.068z"/>
<path fill="#34373B" d="M399.286,232.32c1.353-1.025,2.66-2.109,3.911-3.252h-3.911V232.32z"/>
<path fill="#34373B" d="M387.404,235.017v-2.347c-1.889,0.907-3.849,1.685-5.863,2.347H387.404z"/>
<path fill="#34373B" d="M323.163,155.042h7.804c2.077-2.182,4.351-4.172,6.798-5.941h-9.223
	C326.609,150.948,324.811,152.933,323.163,155.042z"/>
<path fill="#34373B" d="M369.925,140.019c2.47,0.181,4.888,0.545,7.243,1.081c-0.083-2.056-0.17-4.099-0.26-6.13
	c-3.431-0.676-6.974-1.039-10.6-1.039c-0.44,0-0.874,0.023-1.311,0.033c0.021,0.46,0.043,0.907,0.064,1.369
	C366.764,136.824,368.387,138.387,369.925,140.019z"/>
<path fill="#34373B" d="M393.666,229.068c-1.988,1.348-4.079,2.554-6.262,3.602v2.347h7.969c1.343-0.845,2.651-1.741,3.913-2.697
	v-3.252H393.666z"/>
<path fill="#34373B" d="M409.452,155.042h-4.38c1.677,0,3.298,0.225,4.857,0.607C409.773,155.444,409.61,155.245,409.452,155.042z"
	/>
<path fill="#34373B" d="M421.032,188.21c-0.035-4.27-0.566-8.423-1.53-12.409v8.261c-1.015-0.041-2.052-0.074-3.073-0.113
	C418.159,185,419.718,186.444,421.032,188.21z"/>
<path fill="#34373B" d="M416.254,166.316c-1.709-3.804-3.832-7.381-6.325-10.667c-1.559-0.382-3.18-0.607-4.857-0.607h-3.424
	c1.783,1.874,3.423,3.885,4.893,6.023C410.447,161.462,413.896,163.427,416.254,166.316z"/>
<path fill="#34373B" d="M326.127,160.991c1.456-2.111,3.077-4.097,4.84-5.949h-7.804c-1.475,1.889-2.83,3.874-4.051,5.949H326.127z"
	/>
<rect x="399.288" y="229.063" fill="#34373B" width="3.911" height="0.006"/>
<polygon fill="#34373B" points="338.947,229.064 329.414,229.064 329.418,229.068 338.953,229.068 "/>
<polygon fill="#34373B" points="393.666,229.068 399.286,229.068 399.286,229.064 393.671,229.064 "/>
<path fill="#34373B" d="M415.017,185.91c2.016,1.689,4.004,3.409,5.966,5.16c0.035-0.798,0.061-1.597,0.061-2.403
	c0-0.153-0.01-0.304-0.012-0.457c-1.314-1.766-2.873-3.209-4.603-4.261c-0.52-0.02-1.044-0.038-1.566-0.057
	C414.929,184.56,414.98,185.233,415.017,185.91z"/>
<path fill="#34373B" d="M415.099,188.663h0.004c0,2.407-0.182,4.77-0.518,7.084c1.653,0.061,3.292,0.124,4.917,0.189v5.598
	c0.817-3.378,1.325-6.875,1.481-10.464c-1.961-1.751-3.949-3.471-5.966-5.16C415.068,186.822,415.099,187.738,415.099,188.663z"/>
<path fill="#34373B" d="M404.393,223.119c0.029,0.427,0.054,0.856,0.054,1.288v3.468c1.734-1.687,3.354-3.489,4.853-5.391
	c-1.338,0.411-2.757,0.634-4.229,0.634H404.393z"/>
<path fill="#34373B" d="M331.764,223.119h-7.951c1.719,2.117,3.589,4.106,5.601,5.945h9.533
	C336.365,227.312,333.96,225.32,331.764,223.119z"/>
<path fill="#34373B" d="M317.516,188.663c0-1.924,0.124-3.819,0.34-5.685c-1.996,0.031-3.999,0.068-6.002,0.105
	c-0.187,1.836-0.283,3.699-0.283,5.584c0,2.125,0.134,4.218,0.371,6.28c1.99-0.035,3.979-0.069,5.978-0.099
	C317.663,192.821,317.516,190.76,317.516,188.663z"/>
<path fill="#34373B" d="M404.447,224.408c0-0.432-0.025-0.861-0.054-1.288h-3.539c-0.549,0.55-1.111,1.087-1.685,1.61
	c0,0.014,0.001,0.028,0.001,0.042l0.02,0.131c0.052,0.686,0.095,1.375,0.095,2.073v2.089h3.916c0.424-0.387,0.835-0.788,1.246-1.188
	V224.408z"/>
<path fill="#34373B" d="M399.286,229.064v-2.089c0-0.698-0.044-1.387-0.095-2.073l-0.02-0.131c0-0.014-0.001-0.028-0.001-0.042
	c-1.724,1.571-3.561,3.02-5.498,4.334H399.286z"/>
<path fill="#34373B" d="M394.85,149.102c-1.911-1.381-3.925-2.626-6.029-3.723c0.733,1.221,1.429,2.463,2.092,3.723H394.85z"/>
<path fill="#34373B" d="M365.484,145.839c-0.074-2-0.152-3.982-0.232-5.941c-7.172,0.153-13.966,1.839-20.056,4.766
	c2.673,1.035,5.325,2.11,7.953,3.234C357.046,146.634,361.188,145.921,365.484,145.839z"/>
<path fill="#34373B" d="M349.904,149.102c1.061-0.443,2.143-0.847,3.245-1.204c-2.628-1.124-5.28-2.199-7.953-3.234
	c-2.617,1.258-5.098,2.752-7.43,4.438H349.904z"/>
<path fill="#34373B" d="M351.073,235.013h-0.008c1.844,0.606,3.733,1.111,5.666,1.496l0-0.001
	C354.801,236.123,352.915,235.618,351.073,235.013z"/>
<path fill="#34373B" d="M377.405,147.289c1.82,0.49,3.591,1.097,5.306,1.812h8.201c-0.662-1.26-1.359-2.501-2.092-3.723
	c-3.64-1.897-7.547-3.346-11.653-4.279C377.25,143.151,377.33,145.214,377.405,147.289z"/>
<path fill="#34373B" d="M414.535,182.968c0.081,0.033,0.157,0.079,0.237,0.113c-0.924-8.109-3.831-15.613-8.231-22.016
	c-0.483-0.049-0.973-0.074-1.469-0.074h-3.51c0.244,0.798,0.472,1.601,0.685,2.41C408.639,168.733,413.039,175.486,414.535,182.968z
	"/>
<path fill="#34373B" d="M402.248,163.401c-0.214-0.809-0.442-1.612-0.685-2.41h-2.472
	C400.191,161.757,401.242,162.563,402.248,163.401z"/>
<path fill="#34373B" d="M318.297,182.04c1.937-8.278,7.424-15.619,15.229-21.049h-7.398c-4.24,6.144-7.101,13.307-8.152,21.049
	H318.297z"/>
<path fill="#34373B" d="M414.864,183.891c-0.026-0.271-0.061-0.54-0.092-0.81c-0.08-0.035-0.156-0.08-0.237-0.113
	c0.061,0.303,0.102,0.611,0.153,0.917C414.746,183.887,414.805,183.889,414.864,183.891z"/>
<path fill="#34373B" d="M318.079,182.975c0.063-0.314,0.145-0.623,0.218-0.934h-0.321c-0.042,0.312-0.083,0.624-0.119,0.937
	C317.931,182.976,318.004,182.976,318.079,182.975z"/>
<path fill="#34373B" d="M317.92,194.848c1.39,10.977,6.413,20.821,13.844,28.271h0.007c-7.433-7.45-12.457-17.294-13.848-28.271
	C317.923,194.848,317.921,194.848,317.92,194.848z"/>
<path fill="#34373B" d="M401.648,155.042c-1.209-1.27-2.482-2.476-3.82-3.61c0.573,1.188,1.117,2.39,1.62,3.61H401.648z"/>
<path fill="#34373B" d="M366.307,145.82c3.177,0,6.269,0.357,9.249,1.016c-1.719-2.381-3.597-4.659-5.632-6.818
	c-1.196-0.088-2.399-0.148-3.617-0.148c-0.354,0-0.703,0.019-1.056,0.027c0.081,1.96,0.158,3.942,0.232,5.941
	C365.759,145.834,366.031,145.82,366.307,145.82z"/>
<path fill="#34373B" d="M393.695,155.042h5.752c-0.503-1.22-1.047-2.422-1.62-3.61c-0.961-0.815-1.955-1.591-2.978-2.33h-3.938
	C391.93,151.038,392.851,153.023,393.695,155.042z"/>
<path fill="#34373B" d="M338.961,229.068h-0.008c3.704,2.513,7.777,4.52,12.113,5.945h0.008
	C346.737,233.588,342.665,231.581,338.961,229.068z"/>
<path fill="#34373B" d="M356.732,236.509c3.097,0.616,6.297,0.945,9.575,0.945c0.001,0,0.001,0,0.002,0
	c-3.279,0-6.48-0.329-9.578-0.946L356.732,236.509z"/>
<path fill="#34373B" d="M349.904,149.102h-12.138c-2.447,1.769-4.722,3.759-6.798,5.941h8.853
	C342.872,152.626,346.261,150.621,349.904,149.102z"/>
<path fill="#34373B" d="M377.405,147.289c-0.075-2.076-0.155-4.139-0.237-6.19c-2.355-0.535-4.773-0.899-7.243-1.081
	c2.035,2.159,3.913,4.437,5.632,6.818C376.178,146.974,376.794,147.125,377.405,147.289z"/>
<path fill="#34373B" d="M393.695,155.042c-0.844-2.02-1.765-4.005-2.783-5.941h-8.201c3.642,1.519,7.031,3.524,10.084,5.941H393.695
	z"/>
<path fill="#34373B" d="M401.562,160.991h3.51c0.496,0,0.986,0.025,1.469,0.074c-1.47-2.139-3.109-4.149-4.893-6.023h-2.201
	C400.248,156.986,400.946,158.973,401.562,160.991z"/>
<path fill="#34373B" d="M398.749,160.764c0.113,0.077,0.23,0.149,0.342,0.227h2.472c-0.616-2.018-1.314-4.005-2.115-5.949h-5.752
	c0.159,0.38,0.324,0.756,0.477,1.138C395.809,157.592,397.34,159.124,398.749,160.764z"/>
<path fill="#34373B" d="M333.526,160.991c0.111-0.077,0.228-0.149,0.34-0.226c1.797-2.093,3.791-4.01,5.955-5.723h-8.853
	c-1.762,1.852-3.383,3.838-4.84,5.949H333.526z"/>
<path fill="#34373B" d="M394.171,156.181c-0.152-0.382-0.318-0.759-0.477-1.138h-0.9
	C393.262,155.412,393.72,155.792,394.171,156.181z"/>
<polygon fill="#34373B" points="338.955,229.064 338.947,229.064 338.953,229.068 338.961,229.068 "/>
<path fill="#34373B" d="M415.017,185.91c-0.038-0.677-0.089-1.35-0.154-2.019c-0.059-0.002-0.117-0.004-0.176-0.006
	c0.109,0.65,0.195,1.306,0.259,1.966C414.971,185.87,414.994,185.89,415.017,185.91z"/>
<path fill="#34373B" d="M415.099,188.663c0-0.924-0.031-1.841-0.082-2.753c-0.023-0.02-0.047-0.04-0.07-0.059
	C415.038,186.78,415.099,187.716,415.099,188.663z"/>
<path fill="#34373B" d="M317.516,188.663c0-1.934,0.192-3.833,0.563-5.688c-0.074,0.001-0.148,0.002-0.222,0.003
	C317.64,184.844,317.516,186.738,317.516,188.663c0,2.097,0.147,4.158,0.404,6.186c0.001,0,0.003,0,0.004,0
	c-0.236-1.865-0.372-3.76-0.392-5.684C317.53,188.996,317.516,188.831,317.516,188.663z"/>
<path fill="#34373B" d="M331.772,223.119h-0.007c2.196,2.201,4.601,4.193,7.183,5.945h0.008
	C336.373,227.312,333.968,225.321,331.772,223.119z"/>
<path fill="#34373B" d="M408.31,180.48c0.673,0.525,1.339,1.057,2.006,1.589c1.465,0.054,2.882,0.352,4.219,0.899
	c-1.496-7.482-5.896-14.235-12.288-19.567c0.288,1.091,0.551,2.19,0.784,3.299C405.537,170.886,407.348,175.533,408.31,180.48z"/>
<path fill="#34373B" d="M409.876,182.04c0.149,0,0.293,0.024,0.441,0.029c-0.667-0.532-1.334-1.064-2.006-1.589
	c0.1,0.516,0.187,1.037,0.269,1.56H409.876z"/>
<path fill="#34373B" d="M403.031,166.7c-0.233-1.109-0.495-2.208-0.784-3.299c-1.005-0.839-2.057-1.645-3.157-2.41h-0.152
	C400.45,162.776,401.823,164.683,403.031,166.7z"/>
<path fill="#34373B" d="M318.297,182.04h5.739c1.242-7.945,4.665-15.174,9.641-21.049h-0.151
	C325.721,166.421,320.234,173.762,318.297,182.04z"/>
<path fill="#34373B" d="M412.47,183.803c0.742,0.026,1.479,0.054,2.218,0.081c-0.051-0.305-0.092-0.613-0.153-0.917
	c-1.336-0.547-2.754-0.845-4.219-0.899C411.037,182.644,411.755,183.221,412.47,183.803z"/>
<path fill="#34373B" d="M408.579,182.04c0.036,0.228,0.079,0.453,0.111,0.682h-4.243c0,0.259-0.001,0.528-0.002,0.819
	c2.692,0.082,5.369,0.168,8.024,0.262c-0.714-0.582-1.432-1.16-2.153-1.734c-0.148-0.005-0.292-0.029-0.441-0.029H408.579z"/>
<path fill="#34373B" d="M349.69,182.722h-25.765c0.032-0.229,0.076-0.454,0.111-0.682h-5.739c-0.073,0.311-0.155,0.62-0.218,0.934
	C328.771,182.81,339.353,182.722,349.69,182.722z"/>
<path fill="#34373B" d="M402.941,183.496c0.503,0.015,1.003,0.03,1.504,0.045c0.001-0.292,0.001-0.561,0.002-0.819h-1.699
	C402.82,182.977,402.878,183.237,402.941,183.496z"/>
<path fill="#34373B" d="M360.298,182.722H349.69c3.558,0,7.071,0.029,10.595,0.05C360.29,182.755,360.293,182.738,360.298,182.722z"
	/>
<path fill="#34373B" d="M399.09,160.991c-0.112-0.078-0.229-0.15-0.342-0.227c0.064,0.075,0.126,0.152,0.19,0.227H399.09z"/>
<path fill="#34373B" d="M333.865,160.766c-0.112,0.076-0.229,0.148-0.34,0.226h0.151C333.74,160.916,333.802,160.84,333.865,160.766
	z"/>
<path fill="#34373B" d="M414.688,183.885c-0.739-0.027-1.476-0.055-2.218-0.081c0.831,0.677,1.656,1.36,2.478,2.047
	C414.883,185.19,414.796,184.535,414.688,183.885z"/>
<path fill="#34373B" d="M404.434,188.663h10.665c0-0.947-0.061-1.883-0.152-2.812c-0.822-0.687-1.647-1.37-2.478-2.047
	c-2.655-0.094-5.332-0.18-8.024-0.262C404.443,184.933,404.439,186.68,404.434,188.663z"/>
<path fill="#34373B" d="M317.533,189.164c-0.002-0.168-0.013-0.333-0.013-0.501h41.933c0.01-2.021,0.301-3.996,0.833-5.891
	c-3.525-0.021-7.038-0.05-10.595-0.05c-10.336,0-20.919,0.089-31.611,0.253c-0.37,1.855-0.563,3.755-0.563,5.688
	C317.516,188.831,317.53,188.996,317.533,189.164z"/>
<path fill="#34373B" d="M403.593,188.663h0.841c0.005-1.983,0.009-3.73,0.012-5.122c-0.501-0.015-1.002-0.031-1.504-0.045
	C403.35,185.169,403.584,186.896,403.593,188.663z"/>
<path fill="#34373B" d="M369.924,237.307L369.924,237.307c4.028-0.295,7.919-1.076,11.617-2.29h-0.003
	C377.841,236.231,373.951,237.011,369.924,237.307z"/>
<path fill="#34373B" d="M404.285,219.282c0,0.001,0,0.003,0,0.005c5.359-6.637,9.014-14.702,10.3-23.54c-0.001,0-0.003,0-0.004,0
	C413.296,204.582,409.642,212.646,404.285,219.282z"/>
<path fill="#34373B" d="M404.285,219.282c-1.08,1.337-2.222,2.622-3.435,3.837h0.004c1.211-1.214,2.352-2.497,3.431-3.833
	C404.285,219.285,404.285,219.283,404.285,219.282z"/>
<path fill="#34373B" d="M381.537,235.017h0.003c2.014-0.661,3.974-1.44,5.863-2.347v-0.002
	C385.514,233.576,383.552,234.355,381.537,235.017z"/>
<path fill="#34373B" d="M366.309,237.454c0.001,0,0.001,0,0.002,0c1.217,0,2.418-0.06,3.613-0.147l0,0
	C368.729,237.394,367.527,237.454,366.309,237.454z"/>
<path fill="#34373B" d="M387.404,232.669v0.002c2.182-1.048,4.274-2.254,6.262-3.602h-0.003
	C391.676,230.416,389.585,231.621,387.404,232.669z"/>
<circle fill="#34373B" cx="393.667" cy="229.066" r="0.002"/>
<path fill="#34373B" d="M414.585,195.746c0.337-2.313,0.518-4.677,0.518-7.084h-0.004c0,2.407-0.182,4.77-0.518,7.084
	C414.582,195.746,414.584,195.746,414.585,195.746z"/>
<path fill="#34373B" d="M399.169,224.726c0,0.001,0,0.002,0,0.003c0.574-0.524,1.136-1.06,1.685-1.61h-0.004
	C400.303,223.668,399.742,224.204,399.169,224.726z"/>
<path fill="#34373B" d="M393.668,229.064h0.003c1.937-1.314,3.774-2.763,5.498-4.334c0-0.001,0-0.002,0-0.003
	C397.444,226.299,395.606,227.749,393.668,229.064z"/>
<path fill="#34373B" d="M356.114,235.013h-5.041c1.841,0.605,3.728,1.11,5.658,1.495L356.114,235.013z"/>
<path fill="#34373B" d="M369.924,237.307c4.027-0.295,7.917-1.076,11.613-2.29h-12.559L369.924,237.307z"/>
<path fill="#34373B" d="M414.216,195.733c-1.525,6.099-4.982,11.668-9.868,16.324c-0.018,3.132-0.039,5.711-0.062,7.225
	c5.357-6.636,9.01-14.7,10.296-23.535C414.46,195.742,414.337,195.738,414.216,195.733z"/>
<path fill="#34373B" d="M399.176,216.283c-0.023,3.196-0.05,5.684-0.081,6.837h1.755c1.213-1.216,2.355-2.5,3.435-3.837
	c0.023-1.514,0.044-4.092,0.062-7.225C402.765,213.565,401.04,214.98,399.176,216.283z"/>
<path fill="#34373B" d="M333.873,216.573c-8.128-5.545-13.813-13.14-15.681-21.728c-0.089,0.001-0.179,0.002-0.268,0.003
	c1.39,10.977,6.415,20.821,13.848,28.271h9.13C338.321,221.206,335.965,219.007,333.873,216.573z"/>
<path fill="#34373B" d="M391.714,223.119h7.382c0.031-1.153,0.058-3.641,0.081-6.837c-0.144,0.1-0.293,0.196-0.439,0.295
	C396.648,219.01,394.293,221.207,391.714,223.119z"/>
<path fill="#34373B" d="M368.979,235.017h12.559c2.015-0.662,3.977-1.441,5.867-2.348v-3.601h-6.874
	c-4.451,1.575-9.235,2.441-14.222,2.441s-9.771-0.867-14.222-2.441h-13.125c3.705,2.513,7.777,4.52,12.113,5.945h5.041l0.618,1.495
	c3.098,0.617,6.299,0.946,9.578,0.946c1.217,0,2.42-0.06,3.615-0.147L368.979,235.017z"/>
<path fill="#34373B" d="M387.404,232.669c2.181-1.048,4.272-2.253,6.258-3.601h-6.258V232.669z"/>
<polygon fill="#34373B" points="338.955,229.064 338.961,229.068 352.086,229.068 352.075,229.064 "/>
<polygon fill="#34373B" points="380.54,229.064 380.529,229.068 387.404,229.068 387.404,229.064 "/>
<polygon fill="#34373B" points="387.404,229.068 393.662,229.068 393.668,229.064 387.404,229.064 "/>
<path fill="#34373B" d="M414.581,195.746c0.337-2.313,0.518-4.677,0.518-7.084c0,2.419-0.311,4.78-0.883,7.071
	C414.337,195.738,414.46,195.742,414.581,195.746z"/>
<path fill="#34373B" d="M387.404,229.064v-2.089c0-0.344-0.029-0.682-0.053-1.022c-2.161,1.227-4.437,2.27-6.811,3.11H387.404z"/>
<path fill="#34373B" d="M340.902,223.119h-9.13c2.196,2.201,4.602,4.193,7.183,5.945h13.12
	C348.039,227.635,344.279,225.623,340.902,223.119z"/>
<path fill="#34373B" d="M399.096,223.127c0.016,0.238,0.028,0.476,0.036,0.713l0.024,0.468c0.011,0.139,0.013,0.279,0.014,0.418
	c0.573-0.522,1.134-1.058,1.681-1.607h-1.755C399.096,223.121,399.096,223.125,399.096,223.127z"/>
<path fill="#34373B" d="M317.924,194.848c0.089-0.001,0.179-0.002,0.268-0.003c-0.402-1.851-0.627-3.748-0.66-5.681
	C317.552,191.088,317.688,192.983,317.924,194.848z"/>
<path fill="#34373B" d="M399.131,223.841c-0.008-0.238-0.02-0.476-0.036-0.713c0-0.002,0-0.006,0-0.008h-7.382
	c-1.391,1.031-2.85,1.975-4.362,2.834c0.024,0.34,0.053,0.678,0.053,1.022v2.089h6.264c1.938-1.315,3.776-2.765,5.501-4.338
	c-0.001-0.139-0.004-0.279-0.014-0.418L399.131,223.841z"/>
<path fill="#34373B" d="M318.196,194.845c-0.001,0-0.003,0-0.004,0c1.867,8.588,7.553,16.183,15.681,21.728
	c-0.001-0.001-0.001-0.002-0.002-0.003C325.746,211.025,320.063,203.432,318.196,194.845z"/>
<path fill="#34373B" d="M317.52,188.663c0,0.168,0.011,0.333,0.013,0.501c0.033,1.933,0.258,3.83,0.66,5.681
	c0.001,0,0.003,0,0.004,0C317.759,192.833,317.52,190.77,317.52,188.663z"/>
<path fill="#34373B" d="M404.347,212.057c4.886-4.656,8.344-10.225,9.868-16.324c-1.874-0.068-3.769-0.133-5.677-0.196
	c-0.73,4.496-2.157,8.758-4.171,12.674C404.361,209.557,404.354,210.848,404.347,212.057z"/>
<path fill="#34373B" d="M399.178,216.052c-0.001,0.079-0.001,0.152-0.002,0.231c1.864-1.302,3.589-2.718,5.171-4.225
	c0.007-1.209,0.014-2.5,0.02-3.846C402.923,211.019,401.18,213.646,399.178,216.052z"/>
<path fill="#34373B" d="M318.196,194.845c1.867,8.587,7.55,16.181,15.675,21.726c-5.192-6.044-8.734-13.545-9.92-21.801
	C322.03,194.793,320.11,194.817,318.196,194.845z"/>
<path fill="#34373B" d="M398.738,216.578c0.145-0.099,0.295-0.195,0.439-0.295c0.001-0.078,0.001-0.151,0.002-0.231
	C399.032,216.228,398.887,216.405,398.738,216.578z"/>
<path fill="#34373B" d="M404.418,194.608h4.273c-0.044,0.312-0.102,0.62-0.152,0.93c1.908,0.063,3.803,0.127,5.677,0.196
	c0.573-2.29,0.883-4.652,0.883-7.071h-10.665C404.429,190.485,404.424,192.5,404.418,194.608z"/>
<path fill="#34373B" d="M323.924,194.608h25.765h10.556c-0.513-1.88-0.798-3.835-0.798-5.838c0-0.036,0.005-0.071,0.005-0.107
	H317.52c0,2.107,0.239,4.17,0.676,6.182c1.914-0.028,3.834-0.052,5.755-0.075C323.943,194.715,323.932,194.662,323.924,194.608z"/>
<path fill="#34373B" d="M403.598,188.77c0,2.003-0.285,3.957-0.798,5.838h1.618c0.006-2.108,0.012-4.123,0.016-5.945h-0.841
	C403.593,188.699,403.598,188.734,403.598,188.77z"/>
<path fill="#FFFFFF" d="M389.153,182.04c-0.14-0.157-0.275-0.318-0.425-0.468v-0.004c-0.001-0.001-0.001-0.001-0.002-0.002
	l-0.474,0.474H389.153z"/>
<path fill="#FFFFFF" d="M389.706,182.722c-0.174-0.234-0.358-0.461-0.553-0.682h-0.901l-0.682,0.682H389.706z"/>
<path fill="#FFFFFF" d="M378.484,198.483c2.966,0.923,6.265,0.456,8.888-1.389c0.002-0.716,0.004-1.421,0.006-2.112
	c-2.939-0.059-5.904-0.112-8.911-0.158C378.477,196.037,378.475,197.269,378.484,198.483z"/>
<path fill="#FFFFFF" d="M388.724,195.971c0.299-0.298,0.569-0.617,0.826-0.944c-0.72-0.015-1.448-0.029-2.172-0.043
	c-0.002,0.691-0.004,1.396-0.006,2.112C387.845,196.762,388.301,196.394,388.724,195.971z"/>
<path fill="#FFFFFF" d="M378.484,198.483c-0.009-1.215-0.007-2.446-0.017-3.658c3.007,0.045,5.972,0.099,8.911,0.158
	c0-0.124,0.001-0.252,0.001-0.376h-11.694l-1.363,1.363C375.527,197.176,376.961,198.009,378.484,198.483z"/>
<path fill="#FFFFFF" d="M387.378,194.983c0.724,0.014,1.452,0.028,2.172,0.043c0.108-0.137,0.212-0.277,0.311-0.419h-2.482
	C387.379,194.731,387.378,194.859,387.378,194.983z"/>
<path fill="#FFFFFF" d="M387.404,182.888l-0.216,0.216c0.072,0.001,0.144,0.003,0.215,0.004
	C387.404,183.021,387.404,182.955,387.404,182.888z"/>
<path fill="#FFFFFF" d="M387.404,182.888c0,0.066,0,0.133,0,0.22c0.876,0.018,1.751,0.035,2.624,0.054
	c-0.1-0.151-0.213-0.294-0.322-0.44h-2.135L387.404,182.888z"/>
<path fill="#FFFFFF" d="M387.404,183.108c-0.072-0.001-0.144-0.003-0.215-0.004l-5.559,5.559h5.764
	C387.4,186.014,387.403,184.018,387.404,183.108z"/>
<path fill="#FFFFFF" d="M387.394,188.663h4.309c-0.02-1.985-0.602-3.881-1.676-5.501c-0.873-0.019-1.748-0.037-2.624-0.054
	C387.403,184.018,387.4,186.014,387.394,188.663z"/>
<path fill="#FFFFFF" d="M387.379,194.608c0.006-2.176,0.011-4.2,0.015-5.945h-5.764l-5.945,5.945H387.379z"/>
<path fill="#FFFFFF" d="M387.379,194.608h2.482c1.196-1.7,1.847-3.718,1.847-5.838c0-0.036-0.005-0.071-0.005-0.107h-4.309
	C387.39,190.407,387.385,192.432,387.379,194.608z"/>
<path fill="#D8E5EA" d="M387.383,182.04c-0.007-0.542-0.025-1.082-0.046-1.622c-1.743-1.212-3.777-1.826-5.815-1.826
	c-1.106,0-2.209,0.189-3.268,0.546c0.017,0.969,0.038,1.929,0.053,2.902H387.383z"/>
<path fill="#D8E5EA" d="M388.252,182.04l0.474-0.474c-0.434-0.433-0.902-0.81-1.388-1.148c0.021,0.539,0.039,1.079,0.046,1.622
	H388.252z"/>
<path fill="#D8E5EA" d="M387.383,182.04h-9.076c0.004,0.228,0.009,0.453,0.012,0.682h9.082
	C387.402,182.493,387.386,182.268,387.383,182.04z"/>
<path fill="#D8E5EA" d="M387.57,182.722l0.682-0.682h-0.869c0.003,0.228,0.019,0.453,0.019,0.682H387.57z"/>
<path fill="#D8E5EA" d="M378.254,179.138c-1.437,0.484-2.79,1.287-3.933,2.43c-0.151,0.151-0.288,0.313-0.429,0.472h4.415
	C378.292,181.068,378.271,180.108,378.254,179.138z"/>
<path fill="#D8E5EA" d="M378.308,182.04h-4.415c-0.195,0.22-0.379,0.448-0.553,0.682h4.98
	C378.316,182.493,378.311,182.268,378.308,182.04z"/>
<path fill="#D8E5EA" d="M374.321,195.971l1.363-1.363h-2.501c0.337,0.479,0.711,0.937,1.134,1.359
	C374.319,195.968,374.32,195.969,374.321,195.971z"/>
<path fill="#D8E5EA" d="M387.404,182.773c0-0.017-0.001-0.034-0.001-0.051h-9.082c0.001,0.074,0.003,0.147,0.004,0.222
	c2.973,0.045,5.922,0.101,8.864,0.16l0.216-0.216C387.404,182.853,387.404,182.802,387.404,182.773z"/>
<path fill="#D8E5EA" d="M387.402,182.722c0,0.017,0.001,0.034,0.001,0.051c0,0.029,0,0.08,0,0.115l0.166-0.166H387.402z"/>
<path fill="#D8E5EA" d="M381.629,188.663l5.559-5.559c-2.942-0.059-5.891-0.115-8.864-0.16c-0.001-0.074-0.003-0.147-0.004-0.222
	h-4.98c-1.273,1.714-1.976,3.772-1.998,5.941H381.629z"/>
<path fill="#D8E5EA" d="M373.183,194.608h2.501l5.945-5.945h-10.287c0,0.036-0.005,0.071-0.005,0.107
	C371.337,190.89,371.988,192.909,373.183,194.608z"/>
<path fill="#34373B" d="M360.5,182.04h5.926c-0.049-3.1-0.105-6.163-0.167-9.191c-0.112,0.107-0.233,0.2-0.343,0.31
	C363.385,175.686,361.557,178.726,360.5,182.04z"/>
<path fill="#34373B" d="M402.546,182.04c-0.793-2.489-2.032-4.815-3.671-6.893c0.242,2.271,0.37,4.571,0.394,6.893H402.546z"/>
<path fill="#34373B" d="M378.351,172.955c0.366-0.073,0.735-0.121,1.104-0.169c0.152-0.02,0.301-0.05,0.455-0.066
	c1.072-0.107,2.153-0.107,3.225,0c0.154,0.015,0.302,0.046,0.455,0.066c0.369,0.048,0.738,0.095,1.104,0.169
	c0.218,0.043,0.429,0.105,0.643,0.157c0.296,0.072,0.593,0.139,0.885,0.228c0.15,0.046,0.294,0.102,0.442,0.151
	c-0.343-2.184-0.804-4.333-1.379-6.444c-2.409-0.413-4.869-0.421-7.282-0.035c0.048,1.993,0.098,3.979,0.139,5.988
	C378.212,172.985,378.281,172.969,378.351,172.955z"/>
<path fill="#34373B" d="M387.709,173.873c0.209,0.087,0.408,0.189,0.612,0.284c0.273,0.127,0.548,0.249,0.815,0.393
	c0.197,0.106,0.385,0.227,0.577,0.341c0.259,0.153,0.52,0.3,0.772,0.469c0.217,0.145,0.42,0.307,0.629,0.462
	c0.212,0.158,0.429,0.306,0.635,0.475c0.372,0.305,0.727,0.63,1.07,0.967c0.035,0.035,0.074,0.064,0.109,0.099l0,0
	c1.343,1.343,2.436,2.93,3.24,4.676h3.101c-0.024-2.323-0.151-4.623-0.394-6.893c-0.543-0.689-1.115-1.359-1.746-1.988
	c-3.344-3.341-7.505-5.367-11.845-6.111c0.575,2.111,1.036,4.26,1.379,6.444c0.072,0.024,0.142,0.053,0.214,0.078
	C387.156,173.667,387.435,173.76,387.709,173.873z"/>
<path fill="#34373B" d="M366.426,182.04H360.5c-0.072,0.226-0.138,0.453-0.202,0.682h6.139
	C366.433,182.493,366.429,182.268,366.426,182.04z"/>
<path fill="#34373B" d="M399.288,182.722h3.46c-0.065-0.228-0.13-0.456-0.202-0.682h-3.277
	C399.271,182.268,399.288,182.493,399.288,182.722z"/>
<path fill="#34373B" d="M399.288,182.722c0-0.229-0.017-0.454-0.019-0.682h-3.101c0.104,0.226,0.208,0.45,0.302,0.682H399.288z"/>
<path fill="#34373B" d="M366.877,182.04c0.002-0.003,0.003-0.007,0.005-0.01c0.137-0.297,0.271-0.595,0.427-0.886
	c0.09-0.168,0.194-0.327,0.29-0.491c0.168-0.288,0.333-0.578,0.521-0.857c0.121-0.181,0.258-0.35,0.387-0.526
	c0.18-0.246,0.353-0.497,0.549-0.735c0.297-0.362,0.615-0.707,0.942-1.041c0.042-0.042,0.076-0.089,0.119-0.131
	c0.035-0.035,0.074-0.064,0.109-0.099c0.343-0.337,0.698-0.662,1.07-0.967c0.206-0.169,0.423-0.318,0.635-0.475
	c0.209-0.155,0.412-0.317,0.629-0.462c0.252-0.169,0.513-0.316,0.772-0.469c0.193-0.114,0.38-0.235,0.577-0.341
	c0.267-0.143,0.542-0.266,0.815-0.393c0.204-0.095,0.404-0.197,0.612-0.284c0.273-0.113,0.553-0.206,0.831-0.304
	c0.218-0.077,0.433-0.162,0.656-0.229c0.292-0.089,0.589-0.156,0.885-0.228c0.145-0.035,0.287-0.08,0.434-0.112
	c-0.041-2.009-0.091-3.995-0.139-5.988c-4.285,0.687-8.397,2.628-11.745,5.836c0.062,3.028,0.119,6.091,0.167,9.191H366.877z"/>
<path fill="#34373B" d="M366.563,182.722c0.02-0.05,0.046-0.099,0.066-0.149c0.076-0.181,0.165-0.355,0.247-0.533h-0.451
	c0.004,0.228,0.008,0.453,0.011,0.682H366.563z"/>
<path fill="#34373B" d="M365.41,194.679c-1.709-0.014-3.43-0.025-5.156-0.035c1.001,3.646,2.915,6.991,5.661,9.734
	c0.233,0.233,0.484,0.435,0.724,0.655c-0.006-1.545-0.014-3.082-0.023-4.611C365.856,198.584,365.461,196.636,365.41,194.679z"/>
<path fill="#34373B" d="M378.539,210.107c0,0.168,0.002,0.333,0.002,0.5c0.99,0.134,1.984,0.225,2.981,0.225
	c1.954,0,3.905-0.275,5.803-0.79c0.001-0.245,0.002-0.497,0.003-0.745C384.518,210.383,381.469,210.657,378.539,210.107z"/>
<path fill="#34373B" d="M399.245,201.895c1.482-1.992,2.621-4.192,3.352-6.54c-1.108-0.032-2.214-0.065-3.332-0.095
	C399.259,197.376,399.252,199.621,399.245,201.895z"/>
<path fill="#34373B" d="M392.929,205.657c-1.645,1.648-3.56,2.854-5.599,3.641c-0.001,0.249-0.002,0.5-0.003,0.745
	c3.593-0.973,6.99-2.849,9.804-5.663c0.779-0.778,1.47-1.618,2.115-2.486c0.008-2.274,0.014-4.519,0.02-6.635
	c-0.548-0.015-1.105-0.028-1.655-0.042C397.383,199.019,395.835,202.755,392.929,205.657z"/>
<path fill="#34373B" d="M370.116,205.657c-1.549-1.547-2.712-3.332-3.5-5.236c0.009,1.529,0.017,3.066,0.023,4.611
	c3.419,3.133,7.585,4.992,11.902,5.576c0-0.168-0.002-0.333-0.002-0.5C375.454,209.529,372.504,208.048,370.116,205.657z"/>
<path fill="#34373B" d="M399.264,195.26c1.119,0.03,2.225,0.062,3.332,0.095c0.077-0.246,0.135-0.498,0.203-0.747h-3.534
	C399.266,194.823,399.265,195.042,399.264,195.26z"/>
<path fill="#34373B" d="M365.407,194.608h-5.161c0.003,0.012,0.006,0.024,0.009,0.036c1.726,0.01,3.447,0.022,5.156,0.035
	C365.41,194.655,365.407,194.631,365.407,194.608z"/>
<path fill="#34373B" d="M397.609,195.218c0.551,0.014,1.107,0.028,1.655,0.042c0.001-0.218,0.001-0.437,0.002-0.653h-1.628
	C397.634,194.811,397.621,195.014,397.609,195.218z"/>
<path fill="#34373B" d="M366.438,182.801c0-0.027-0.001-0.053-0.001-0.079h-6.139c-0.005,0.017-0.008,0.034-0.013,0.05
	C362.332,182.784,364.401,182.784,366.438,182.801z"/>
<path fill="#34373B" d="M399.29,182.777c0,0.026,0,0.249-0.001,0.608c1.227,0.033,2.432,0.075,3.652,0.11
	c-0.063-0.258-0.121-0.518-0.193-0.774h-3.46C399.288,182.74,399.29,182.759,399.29,182.777z"/>
<path fill="#34373B" d="M396.69,183.322c0.863,0.022,1.739,0.039,2.599,0.063c0-0.359,0.001-0.582,0.001-0.608
	c0-0.019-0.002-0.037-0.002-0.055h-2.818C396.549,182.919,396.617,183.122,396.69,183.322z"/>
<path fill="#34373B" d="M365.474,187.156c0.015-0.148,0.044-0.29,0.063-0.437c0.048-0.376,0.097-0.752,0.172-1.125
	c0.041-0.206,0.099-0.405,0.148-0.607c0.074-0.309,0.145-0.619,0.238-0.924c0.062-0.205,0.141-0.402,0.211-0.603
	c0.086-0.246,0.16-0.495,0.258-0.738h-0.126c0,0.027,0.001,0.053,0.001,0.079c-2.037-0.017-4.106-0.017-6.153-0.029
	c-0.532,1.895-0.823,3.869-0.833,5.891h5.943C365.398,188.16,365.423,187.657,365.474,187.156z"/>
<path fill="#34373B" d="M399.28,188.663h4.313c-0.008-1.767-0.243-3.493-0.651-5.167c-1.22-0.036-2.425-0.077-3.652-0.11
	C399.288,184.292,399.285,186.171,399.28,188.663z"/>
<path fill="#34373B" d="M397.647,188.663h1.632c0.005-2.492,0.008-4.371,0.009-5.277c-0.86-0.023-1.736-0.041-2.599-0.063
	C397.29,184.994,397.635,186.787,397.647,188.663z"/>
<path fill="#34373B" d="M399.266,194.608h3.534c0.513-1.88,0.798-3.835,0.798-5.838c0-0.036-0.005-0.071-0.005-0.107h-4.313
	C399.276,190.397,399.272,192.421,399.266,194.608z"/>
<path fill="#34373B" d="M360.245,194.608h5.161c-0.022-1.035,0.054-2.07,0.23-3.093c-0.04-0.23-0.07-0.462-0.1-0.693
	c-0.019-0.147-0.048-0.29-0.063-0.438c-0.057-0.572-0.082-1.146-0.078-1.721h-5.943c0,0.036-0.005,0.071-0.005,0.107
	C359.447,190.773,359.733,192.727,360.245,194.608z"/>
<path fill="#34373B" d="M397.653,188.77c0,0.931-0.096,1.838-0.248,2.725c0.178,1.029,0.255,2.071,0.233,3.112h1.628
	c0.006-2.187,0.01-4.211,0.013-5.945h-1.632C397.648,188.699,397.653,188.734,397.653,188.77z"/>
<path fill="#34373B" d="M366.517,194.686c-0.366-0.003-0.74-0.005-1.107-0.008c0.051,1.957,0.446,3.905,1.206,5.743
	c-0.012-1.861-0.023-3.725-0.038-5.566C366.556,194.8,366.539,194.742,366.517,194.686z"/>
<path fill="#34373B" d="M381.522,204.9c-1.03,0-2.033-0.106-3.009-0.291c0.008,1.834,0.024,3.655,0.026,5.498
	c2.93,0.55,5.979,0.276,8.79-0.809c0.008-1.78,0.015-3.632,0.021-5.501C385.541,204.5,383.58,204.9,381.522,204.9z"/>
<path fill="#34373B" d="M387.35,203.798c-0.007,1.869-0.014,3.721-0.021,5.501c2.039-0.787,3.954-1.994,5.599-3.641
	c2.906-2.903,4.455-6.639,4.68-10.439c-0.429-0.011-0.859-0.022-1.289-0.033C394.609,199.125,391.369,202.238,387.35,203.798z"/>
<path fill="#34373B" d="M366.517,194.686c-0.01-0.026-0.017-0.053-0.028-0.079h-1.083c0.001,0.024,0.003,0.048,0.003,0.071
	C365.777,194.682,366.151,194.683,366.517,194.686z"/>
<path fill="#34373B" d="M370.116,200.176L370.116,200.176c-0.037-0.036-0.067-0.076-0.103-0.113
	c-0.334-0.34-0.656-0.691-0.959-1.059c-0.195-0.236-0.366-0.485-0.545-0.729c-0.13-0.178-0.268-0.348-0.391-0.531
	c-0.187-0.278-0.351-0.567-0.519-0.854c-0.097-0.165-0.201-0.325-0.292-0.495c-0.155-0.289-0.289-0.587-0.425-0.883
	c-0.084-0.182-0.176-0.36-0.253-0.545c-0.016-0.037-0.036-0.073-0.051-0.111c0.016,1.841,0.027,3.705,0.038,5.566
	c0.787,1.904,1.951,3.689,3.5,5.236c2.388,2.391,5.338,3.872,8.423,4.45c-0.002-1.843-0.018-3.664-0.026-5.498
	C375.267,203.996,372.361,202.42,370.116,200.176z"/>
<path fill="#34373B" d="M396.32,195.185c0.431,0.011,0.86,0.022,1.289,0.033c0.012-0.203,0.025-0.407,0.029-0.61h-1.092
	C396.472,194.801,396.402,194.996,396.32,195.185z"/>
<path fill="#34373B" d="M366.306,194.081c-0.07-0.202-0.149-0.399-0.212-0.605c-0.093-0.305-0.163-0.614-0.237-0.922
	c-0.049-0.203-0.108-0.403-0.149-0.609c-0.029-0.143-0.047-0.287-0.071-0.43c-0.176,1.023-0.252,2.058-0.23,3.093h1.083
	C366.422,194.434,366.367,194.257,366.306,194.081z"/>
<path fill="#34373B" d="M397.638,194.608c0.022-1.042-0.055-2.083-0.233-3.112c-0.184,1.078-0.472,2.118-0.859,3.112H397.638z"/>
<path fill="#34373B" d="M378.351,172.955c-0.07,0.014-0.139,0.031-0.209,0.045c0,0.002,0,0.004,0,0.006
	C378.212,172.991,378.281,172.969,378.351,172.955z"/>
<path fill="#34373B" d="M383.135,172.721c0.152,0.015,0.303,0.046,0.455,0.066C383.437,172.767,383.289,172.736,383.135,172.721z"/>
<path fill="#34373B" d="M384.694,172.955c0.216,0.043,0.429,0.105,0.643,0.157C385.123,173.06,384.912,172.998,384.694,172.955z"/>
<path fill="#34373B" d="M386.664,173.491c-0.148-0.05-0.292-0.106-0.442-0.151c0.149,0.045,0.294,0.105,0.443,0.155
	C386.665,173.493,386.665,173.492,386.664,173.491z"/>
<path fill="#34373B" d="M379.455,172.786c0.152-0.02,0.303-0.05,0.455-0.066C379.756,172.736,379.607,172.767,379.455,172.786z"/>
<path fill="#34373B" d="M389.136,174.55c0.196,0.105,0.385,0.227,0.577,0.341C389.521,174.777,389.333,174.656,389.136,174.55z"/>
<path fill="#34373B" d="M390.485,175.36c0.215,0.144,0.42,0.307,0.629,0.462C390.905,175.668,390.702,175.505,390.485,175.36z"/>
<path fill="#34373B" d="M387.709,173.873c0.207,0.086,0.408,0.189,0.612,0.284C388.117,174.062,387.917,173.96,387.709,173.873z"/>
<path fill="#34373B" d="M386.878,173.569c-0.072-0.025-0.142-0.054-0.214-0.078c0,0.001,0,0.002,0.001,0.004
	C386.736,173.518,386.807,173.544,386.878,173.569z"/>
<path fill="#34373B" d="M392.03,182.04h4.138c-0.804-1.747-1.897-3.333-3.24-4.676l-3.09,3.09
	C390.602,180.915,391.335,181.441,392.03,182.04z"/>
<path fill="#34373B" d="M391.75,176.298c0.368,0.302,0.724,0.627,1.07,0.967C392.477,176.928,392.122,176.603,391.75,176.298z"/>
<path fill="#34373B" d="M392.784,182.722h3.686c-0.094-0.231-0.198-0.456-0.302-0.682h-4.138
	C392.285,182.26,392.539,182.483,392.784,182.722z"/>
<path fill="#34373B" d="M373.332,174.891c0.193-0.114,0.381-0.236,0.577-0.341C373.712,174.656,373.524,174.777,373.332,174.891z"/>
<path fill="#34373B" d="M371.93,175.823c0.209-0.155,0.414-0.318,0.629-0.462C372.343,175.505,372.14,175.668,371.93,175.823z"/>
<path fill="#34373B" d="M376.167,173.569c0.218-0.077,0.435-0.162,0.656-0.229C376.6,173.407,376.385,173.492,376.167,173.569z"/>
<path fill="#34373B" d="M374.724,174.157c0.204-0.095,0.405-0.198,0.612-0.284C375.128,173.96,374.928,174.062,374.724,174.157z"/>
<path fill="#34373B" d="M369.056,178.536c0.295-0.358,0.612-0.704,0.942-1.041C369.67,177.829,369.353,178.174,369.056,178.536z"/>
<path fill="#34373B" d="M367.308,181.145c0.09-0.167,0.195-0.327,0.29-0.491C367.503,180.818,367.399,180.977,367.308,181.145z"/>
<path fill="#34373B" d="M370.225,177.265c0.346-0.34,0.702-0.664,1.07-0.967C370.923,176.603,370.568,176.928,370.225,177.265z"/>
<path fill="#34373B" d="M368.12,179.796c0.12-0.179,0.258-0.35,0.387-0.526C368.378,179.446,368.241,179.615,368.12,179.796z"/>
<path fill="#34373B" d="M378.142,173c-0.147,0.031-0.289,0.076-0.434,0.112c0.145-0.035,0.289-0.075,0.434-0.106
	C378.142,173.004,378.142,173.002,378.142,173z"/>
<polygon fill="#34373B" points="366.882,182.03 366.877,182.04 366.877,182.04 "/>
<path fill="#34373B" d="M366.877,182.04L366.877,182.04c-0.082,0.178-0.172,0.351-0.247,0.533
	C366.705,182.393,366.795,182.218,366.877,182.04z"/>
<path fill="#34373B" d="M393.279,183.24c1.138,0.027,2.278,0.053,3.41,0.082c-0.072-0.201-0.14-0.404-0.22-0.601h-3.686
	c0.047,0.046,0.098,0.084,0.145,0.131C393.053,182.977,393.16,183.113,393.279,183.24z"/>
<path fill="#34373B" d="M365.474,187.156c0.015-0.146,0.044-0.291,0.063-0.437C365.518,186.866,365.488,187.008,365.474,187.156z"/>
<path fill="#34373B" d="M365.708,185.594c0.041-0.204,0.1-0.405,0.148-0.607C365.808,185.189,365.749,185.388,365.708,185.594z"/>
<path fill="#34373B" d="M366.094,184.062c0.062-0.203,0.141-0.402,0.211-0.603C366.235,183.661,366.157,183.858,366.094,184.062z"/>
<path fill="#34373B" d="M396.639,188.663h1.008c-0.012-1.876-0.357-3.668-0.958-5.34c-1.133-0.029-2.272-0.055-3.41-0.082
	C394.794,184.855,395.914,186.7,396.639,188.663z"/>
<path fill="#34373B" d="M365.537,190.822c-0.019-0.146-0.049-0.292-0.063-0.438C365.488,190.531,365.518,190.675,365.537,190.822z"
	/>
<path fill="#34373B" d="M397.405,191.495c0.151-0.888,0.248-1.795,0.248-2.725c0-0.036-0.005-0.071-0.005-0.107h-1.008
	C396.981,189.587,397.239,190.534,397.405,191.495z"/>
<path fill="#34373B" d="M388.728,181.572c0.15,0.15,0.285,0.31,0.425,0.468h2.877c-0.695-0.599-1.428-1.125-2.192-1.586
	l-1.112,1.112c0.001,0.001,0.001,0.001,0.002,0.002V181.572z"/>
<path fill="#34373B" d="M389.706,182.722h3.078c-0.245-0.239-0.499-0.462-0.754-0.682h-2.877
	C389.348,182.26,389.532,182.488,389.706,182.722z"/>
<path fill="#34373B" d="M378.484,198.483c0.015,2.034,0.02,4.082,0.029,6.126c0.976,0.184,1.98,0.291,3.009,0.291
	c2.058,0,4.018-0.4,5.828-1.103c0.008-2.256,0.015-4.524,0.021-6.703C384.749,198.94,381.45,199.406,378.484,198.483z"/>
<path fill="#34373B" d="M388.724,195.971c-0.423,0.423-0.879,0.791-1.352,1.124c-0.006,2.178-0.014,4.447-0.021,6.703
	c4.019-1.56,7.258-4.672,8.969-8.613c-2.237-0.056-4.49-0.11-6.77-0.158C389.293,195.354,389.023,195.673,388.724,195.971z"/>
<path fill="#34373B" d="M374.321,195.971l-4.205,4.205c2.244,2.244,5.15,3.82,8.397,4.434c-0.009-2.044-0.014-4.092-0.029-6.126
	C376.961,198.009,375.527,197.176,374.321,195.971z"/>
<path fill="#34373B" d="M367.6,196.889c-0.097-0.165-0.202-0.327-0.292-0.495C367.399,196.564,367.504,196.724,367.6,196.889z"/>
<path fill="#34373B" d="M368.51,198.274c-0.13-0.177-0.269-0.35-0.391-0.531C368.242,197.926,368.38,198.097,368.51,198.274z"/>
<path fill="#34373B" d="M370.014,200.063c-0.337-0.343-0.659-0.695-0.959-1.059C369.358,199.372,369.68,199.723,370.014,200.063z"/>
<path fill="#34373B" d="M366.883,195.511c-0.084-0.182-0.177-0.361-0.253-0.545C366.707,195.152,366.799,195.329,366.883,195.511z"
	/>
<path fill="#34373B" d="M396.32,195.185c0.082-0.189,0.152-0.384,0.227-0.577h-6.686c-0.1,0.142-0.204,0.282-0.311,0.419
	C391.83,195.075,394.082,195.128,396.32,195.185z"/>
<path fill="#34373B" d="M390.027,183.162c1.09,0.024,2.167,0.053,3.252,0.078c-0.12-0.128-0.226-0.263-0.351-0.388
	c-0.047-0.047-0.098-0.085-0.145-0.131h-3.078C389.814,182.868,389.927,183.011,390.027,183.162z"/>
<path fill="#34373B" d="M396.639,188.663c-0.725-1.962-1.845-3.807-3.36-5.422c-1.085-0.026-2.162-0.055-3.252-0.078
	c1.073,1.619,1.655,3.516,1.676,5.501H396.639z"/>
<path fill="#34373B" d="M365.857,192.554c-0.049-0.203-0.108-0.404-0.149-0.609C365.749,192.151,365.808,192.351,365.857,192.554z"
	/>
<path fill="#34373B" d="M366.306,194.081c-0.07-0.202-0.15-0.401-0.212-0.605C366.157,193.682,366.235,193.88,366.306,194.081z"/>
<path fill="#34373B" d="M391.703,188.663c0,0.036,0.005,0.071,0.005,0.107c0,2.12-0.651,4.138-1.847,5.838h6.686
	c0.387-0.994,0.675-2.034,0.859-3.112c-0.167-0.962-0.425-1.908-0.766-2.833H391.703z"/>
<path fill="#34373B" d="M378.351,172.955c0.363-0.072,0.733-0.121,1.104-0.169C379.086,172.834,378.717,172.882,378.351,172.955z"/>
<path fill="#34373B" d="M383.135,172.721c-1.072-0.107-2.153-0.107-3.225,0c0.531-0.053,1.068-0.081,1.612-0.081
	S382.604,172.668,383.135,172.721z"/>
<path fill="#34373B" d="M385.337,173.112c0.297,0.072,0.595,0.139,0.885,0.228C385.93,173.251,385.633,173.184,385.337,173.112z"/>
<path fill="#34373B" d="M383.59,172.786c0.371,0.048,0.742,0.096,1.104,0.169C384.328,172.882,383.959,172.834,383.59,172.786z"/>
<path fill="#34373B" d="M392.929,177.363c-0.035-0.035-0.074-0.064-0.109-0.099C392.855,177.299,392.894,177.329,392.929,177.363
	L392.929,177.363z"/>
<path fill="#34373B" d="M386.878,173.569c0.279,0.098,0.559,0.191,0.831,0.304C387.435,173.76,387.156,173.667,386.878,173.569z"/>
<path fill="#34373B" d="M391.114,175.823c0.212,0.158,0.431,0.307,0.635,0.475C391.544,176.129,391.327,175.98,391.114,175.823z"/>
<path fill="#34373B" d="M389.713,174.891c0.26,0.154,0.522,0.302,0.772,0.469C390.233,175.191,389.972,175.044,389.713,174.891z"/>
<path fill="#34373B" d="M388.321,174.157c0.274,0.128,0.55,0.25,0.815,0.393C388.869,174.407,388.594,174.284,388.321,174.157z"/>
<path fill="#34373B" d="M373.909,174.55c0.265-0.142,0.541-0.265,0.815-0.393C374.451,174.284,374.176,174.407,373.909,174.55z"/>
<path fill="#34373B" d="M366.882,182.03c0.137-0.298,0.272-0.598,0.427-0.886C367.152,181.435,367.018,181.733,366.882,182.03z"/>
<path fill="#34373B" d="M372.559,175.36c0.25-0.167,0.513-0.316,0.772-0.469C373.073,175.044,372.811,175.191,372.559,175.36z"/>
<path fill="#34373B" d="M367.599,180.653c0.169-0.289,0.335-0.58,0.521-0.857C367.932,180.076,367.767,180.365,367.599,180.653z"/>
<path fill="#34373B" d="M368.506,179.27c0.181-0.247,0.355-0.499,0.549-0.735C368.859,178.774,368.687,179.024,368.506,179.27z"/>
<path fill="#34373B" d="M371.295,176.298c0.204-0.168,0.423-0.317,0.635-0.475C371.718,175.98,371.501,176.129,371.295,176.298z"/>
<path fill="#34373B" d="M370.225,177.265c-0.035,0.035-0.074,0.064-0.109,0.099c-0.042,0.042-0.077,0.089-0.119,0.131
	C370.073,177.417,370.148,177.341,370.225,177.265z"/>
<path fill="#34373B" d="M375.336,173.873c0.271-0.113,0.552-0.206,0.831-0.304C375.889,173.667,375.61,173.76,375.336,173.873z"/>
<path fill="#34373B" d="M376.823,173.34c0.29-0.088,0.588-0.155,0.885-0.228C377.412,173.184,377.115,173.251,376.823,173.34z"/>
<path fill="#34373B" d="M366.63,182.573c-0.021,0.05-0.046,0.099-0.066,0.149h0.012C366.595,182.673,366.609,182.621,366.63,182.573
	z"/>
<path fill="#34373B" d="M365.474,187.156c-0.05,0.501-0.075,1.004-0.078,1.507h0.002
	C365.401,188.155,365.424,187.652,365.474,187.156z"/>
<path fill="#34373B" d="M366.575,182.722h-0.012c-0.098,0.243-0.172,0.492-0.258,0.738
	C366.392,183.212,366.477,182.964,366.575,182.722z"/>
<path fill="#34373B" d="M365.857,184.987c0.075-0.31,0.145-0.621,0.238-0.924C366.001,184.368,365.931,184.677,365.857,184.987z"/>
<path fill="#34373B" d="M365.537,186.719c0.048-0.378,0.098-0.756,0.172-1.125C365.634,185.967,365.585,186.343,365.537,186.719z"/>
<path fill="#34373B" d="M365.537,190.822c0.03,0.231,0.06,0.463,0.1,0.693c0.001-0.006,0.002-0.013,0.003-0.019
	C365.601,191.272,365.566,191.048,365.537,190.822z"/>
<path fill="#34373B" d="M365.397,188.663h-0.002c-0.004,0.574,0.021,1.149,0.078,1.721c-0.053-0.531-0.082-1.069-0.082-1.614
	C365.392,188.734,365.397,188.699,365.397,188.663z"/>
<path fill="#34373B" d="M366.578,194.825c-0.018-0.045-0.033-0.093-0.051-0.139c-0.003,0-0.007,0-0.01,0
	c0.022,0.056,0.038,0.113,0.061,0.169C366.578,194.845,366.578,194.835,366.578,194.825z"/>
<path fill="#34373B" d="M369.055,199.003c-0.193-0.234-0.366-0.484-0.545-0.729C368.689,198.519,368.861,198.767,369.055,199.003z"
	/>
<path fill="#34373B" d="M366.498,194.608h-0.008c0.01,0.026,0.017,0.053,0.028,0.079c0.003,0,0.007,0,0.01,0
	C366.517,194.661,366.508,194.634,366.498,194.608z"/>
<path fill="#34373B" d="M370.116,200.176L370.116,200.176c-0.036-0.036-0.067-0.077-0.102-0.113
	C370.05,200.099,370.08,200.14,370.116,200.176z"/>
<path fill="#34373B" d="M366.578,194.855c0.015,0.038,0.036,0.073,0.051,0.111c-0.019-0.046-0.033-0.095-0.052-0.141
	C366.578,194.835,366.578,194.845,366.578,194.855z"/>
<path fill="#34373B" d="M368.119,197.743c-0.185-0.276-0.35-0.566-0.519-0.854C367.768,197.176,367.932,197.465,368.119,197.743z"/>
<path fill="#34373B" d="M367.308,196.394c-0.154-0.287-0.288-0.586-0.425-0.883C367.019,195.808,367.153,196.105,367.308,196.394z"
	/>
<path fill="#34373B" d="M366.306,194.081c0.061,0.175,0.117,0.352,0.184,0.526h0.008
	C366.431,194.434,366.367,194.258,366.306,194.081z"/>
<path fill="#34373B" d="M365.64,191.495c-0.001,0.006-0.002,0.013-0.003,0.019c0.025,0.144,0.043,0.288,0.071,0.43
	C365.679,191.797,365.665,191.644,365.64,191.495z"/>
<path fill="#34373B" d="M366.094,193.477c-0.092-0.302-0.163-0.613-0.237-0.922C365.931,192.863,366.001,193.172,366.094,193.477z"
	/>
<path fill="#34373B" d="M378.242,178.471c3.008-0.622,6.155-0.376,9.052,0.733c-0.115-1.927-0.334-3.829-0.629-5.709
	c-0.148-0.05-0.293-0.11-0.443-0.155c-0.29-0.088-0.588-0.155-0.885-0.228c-0.215-0.052-0.427-0.114-0.643-0.157
	c-0.363-0.072-0.733-0.121-1.104-0.169c-0.152-0.02-0.303-0.05-0.455-0.066c-0.531-0.053-1.068-0.081-1.612-0.081
	s-1.082,0.029-1.612,0.081c-0.152,0.015-0.303,0.046-0.455,0.066c-0.371,0.048-0.742,0.096-1.104,0.169
	c-0.07,0.014-0.139,0.036-0.209,0.051C378.179,174.818,378.21,176.647,378.242,178.471z"/>
<path fill="#34373B" d="M392.928,177.364c-0.035-0.035-0.074-0.065-0.109-0.099c-0.346-0.34-0.702-0.664-1.07-0.967
	c-0.204-0.168-0.423-0.317-0.635-0.475c-0.209-0.155-0.414-0.318-0.629-0.462c-0.25-0.167-0.513-0.316-0.772-0.469
	c-0.193-0.114-0.381-0.236-0.577-0.341c-0.265-0.142-0.541-0.265-0.815-0.393c-0.204-0.095-0.405-0.198-0.612-0.284
	c-0.271-0.113-0.552-0.206-0.831-0.304c-0.071-0.025-0.142-0.051-0.213-0.075c0.295,1.88,0.514,3.782,0.629,5.709
	c0.877,0.336,1.725,0.756,2.544,1.251L392.928,177.364z"/>
<path fill="#34373B" d="M371.015,182.04c2.132-1.837,4.622-3.031,7.227-3.57c-0.032-1.824-0.063-3.652-0.1-5.465
	c-0.146,0.031-0.289,0.071-0.434,0.106c-0.297,0.072-0.595,0.139-0.885,0.228c-0.221,0.067-0.437,0.153-0.656,0.229
	c-0.279,0.098-0.559,0.191-0.831,0.304c-0.207,0.086-0.408,0.189-0.612,0.284c-0.274,0.128-0.55,0.25-0.815,0.393
	c-0.196,0.105-0.385,0.227-0.577,0.341c-0.26,0.154-0.522,0.302-0.772,0.469c-0.215,0.144-0.42,0.307-0.629,0.462
	c-0.212,0.158-0.431,0.307-0.635,0.475c-0.368,0.302-0.724,0.627-1.07,0.967c-0.077,0.076-0.152,0.152-0.228,0.23
	c-0.33,0.337-0.647,0.683-0.942,1.041c-0.194,0.236-0.369,0.488-0.549,0.735c-0.128,0.176-0.266,0.346-0.387,0.526
	c-0.186,0.277-0.352,0.568-0.521,0.857c-0.096,0.164-0.201,0.325-0.29,0.491c-0.155,0.288-0.289,0.588-0.427,0.886
	c-0.002,0.003-0.003,0.007-0.005,0.01H371.015z"/>
<path fill="#34373B" d="M370.261,182.722c0.245-0.239,0.499-0.462,0.754-0.682h-4.138c-0.082,0.178-0.172,0.353-0.247,0.533
	c-0.02,0.049-0.035,0.1-0.054,0.149H370.261z"/>
<path fill="#34373B" d="M366.406,188.663c0.783-2.117,2.009-4.108,3.71-5.81c0.047-0.047,0.098-0.085,0.145-0.131h-3.686
	c-0.098,0.242-0.184,0.49-0.27,0.738c-0.07,0.201-0.149,0.4-0.211,0.603c-0.092,0.303-0.163,0.614-0.238,0.924
	c-0.049,0.203-0.108,0.403-0.148,0.607c-0.074,0.369-0.124,0.747-0.172,1.125c-0.019,0.146-0.048,0.291-0.063,0.437
	c-0.049,0.496-0.073,0.999-0.076,1.507H366.406z"/>
<path fill="#34373B" d="M366.406,188.663h-1.008c0,0.036-0.005,0.071-0.005,0.107c0,0.545,0.029,1.083,0.082,1.614
	c0.015,0.147,0.045,0.292,0.063,0.438c0.029,0.226,0.065,0.45,0.103,0.674C365.806,190.534,366.064,189.587,366.406,188.663z"/>
<path fill="#34373B" d="M381.522,178.592c2.038,0,4.072,0.614,5.815,1.826c-0.016-0.405-0.02-0.812-0.043-1.215
	c-2.897-1.109-6.043-1.356-9.052-0.733c0.004,0.223,0.008,0.445,0.012,0.668C379.313,178.781,380.416,178.592,381.522,178.592z"/>
<path fill="#34373B" d="M388.726,181.567l1.112-1.112c-0.819-0.494-1.668-0.915-2.544-1.251c0.024,0.403,0.028,0.81,0.043,1.215
	C387.824,180.757,388.291,181.134,388.726,181.567z"/>
<path fill="#34373B" d="M374.321,181.568c1.143-1.143,2.496-1.946,3.933-2.43c-0.004-0.223-0.008-0.445-0.012-0.668
	c-2.605,0.539-5.095,1.733-7.227,3.57h2.878C374.033,181.881,374.17,181.72,374.321,181.568z"/>
<path fill="#34373B" d="M373.34,182.722c0.174-0.234,0.358-0.461,0.553-0.682h-2.878c-0.256,0.22-0.51,0.443-0.754,0.682H373.34z"/>
<path fill="#34373B" d="M366.527,194.687c0.018,0.046,0.032,0.093,0.051,0.139c0-0.046-0.001-0.093-0.001-0.138
	C366.561,194.687,366.544,194.687,366.527,194.687z"/>
<path fill="#34373B" d="M374.317,195.967c-0.423-0.422-0.797-0.88-1.134-1.359h-6.685c0.01,0.026,0.019,0.053,0.029,0.079
	c0.016,0,0.033,0,0.05,0c0,0.046,0.001,0.093,0.001,0.138c0.019,0.046,0.033,0.095,0.052,0.141c0.077,0.184,0.169,0.363,0.253,0.545
	c0.137,0.297,0.271,0.596,0.425,0.883c0.09,0.168,0.196,0.329,0.292,0.495c0.168,0.288,0.334,0.578,0.519,0.854
	c0.122,0.181,0.261,0.354,0.391,0.531c0.179,0.245,0.353,0.495,0.545,0.729c0.3,0.364,0.622,0.717,0.959,1.059
	c0.036,0.036,0.067,0.077,0.103,0.113l4.205-4.205C374.32,195.969,374.319,195.968,374.317,195.967z"/>
<path fill="#34373B" d="M366.406,188.663h4.936c0.022-2.169,0.725-4.227,1.998-5.941h-3.079c-0.047,0.046-0.098,0.084-0.145,0.131
	C368.415,184.554,367.189,186.545,366.406,188.663z"/>
<path fill="#34373B" d="M373.183,194.608c-1.195-1.698-1.847-3.717-1.847-5.838c0-0.036,0.005-0.071,0.005-0.107h-4.936
	c-0.342,0.924-0.6,1.871-0.766,2.833c0.025,0.149,0.039,0.302,0.069,0.45c0.041,0.205,0.1,0.406,0.149,0.609
	c0.075,0.309,0.145,0.62,0.237,0.922c0.062,0.204,0.141,0.403,0.212,0.605c0.062,0.177,0.125,0.352,0.193,0.526H373.183z"/>
<path fill="#8FC0E5" d="M542.697,566.178"/>
</svg>
